<?xml version="1.0" standalone="no"?>
<!DOCTYPE svg PUBLIC "-//W3C//DTD SVG 20010904//EN"
 "http://www.w3.org/TR/2001/REC-SVG-20010904/DTD/svg10.dtd">
<svg version="1.0" xmlns="http://www.w3.org/2000/svg"
 width="805.000000pt" height="588.000000pt" viewBox="0 0 805.000000 588.000000"
 preserveAspectRatio="xMidYMid meet">

<g transform="translate(0.000000,588.000000) scale(0.100000,-0.100000)"
fill="#000000" stroke="none">
<path d="M32 5033 l3 -648 2 642 3 643 3923 3 3922 2 -3927 3 -3928 2 2 -647z"/>
<path d="M6900 5640 c0 -5 5 -10 10 -10 6 0 10 5 10 10 0 6 -4 10 -10 10 -5 0
-10 -4 -10 -10z"/>
<path d="M100 5595 c0 -46 0 -46 33 -43 30 3 32 5 32 43 0 38 -2 40 -32 43
-33 3 -33 3 -33 -43z m50 20 c0 -8 -7 -15 -15 -15 -8 0 -15 7 -15 15 0 8 7 15
15 15 8 0 15 -7 15 -15z m0 -40 c0 -8 -7 -15 -15 -15 -8 0 -15 7 -15 15 0 8 7
15 15 15 8 0 15 -7 15 -15z"/>
<path d="M190 5595 c0 -44 0 -45 33 -44 23 1 26 3 10 6 -13 2 -23 11 -23 18 0
7 10 16 23 18 l22 4 -22 2 c-13 0 -23 7 -23 15 0 8 10 17 23 19 16 3 13 5 -10
6 -33 1 -33 0 -33 -44z"/>
<path d="M270 5596 c0 -25 5 -46 10 -46 6 0 10 9 10 20 0 11 4 20 10 20 5 0
14 -9 20 -20 6 -11 15 -20 21 -20 6 0 7 6 2 12 -4 7 -7 26 -8 43 0 26 -4 30
-32 33 -33 3 -33 3 -33 -42z m50 19 c0 -8 -7 -15 -15 -15 -8 0 -15 7 -15 15 0
8 7 15 15 15 8 0 15 -7 15 -15z"/>
<path d="M6652 5628 c-7 -7 -12 -21 -12 -33 0 -12 5 -26 12 -33 7 -7 21 -12
33 -12 12 0 26 5 33 12 7 7 12 21 12 33 0 12 -5 26 -12 33 -7 7 -21 12 -33 12
-12 0 -26 -5 -33 -12z m53 -33 c0 -23 -4 -30 -20 -30 -21 0 -31 25 -21 51 11
28 41 12 41 -21z"/>
<path d="M6838 5628 c-9 -28 7 -73 27 -75 11 -2 14 0 8 3 -16 7 -17 54 -2 54
6 0 4 7 -5 15 -18 18 -23 19 -28 3z"/>
<path d="M6750 5571 c0 -28 5 -51 10 -51 6 0 10 6 10 14 0 8 10 16 23 18 17 2
22 10 22 33 0 27 -4 30 -32 33 l-33 3 0 -50z m46 3 c-5 -13 -10 -14 -18 -6 -6
6 -8 18 -4 28 5 13 10 14 18 6 6 -6 8 -18 4 -28z"/>
<path d="M6900 5585 c0 -19 5 -35 10 -35 6 0 10 16 10 35 0 19 -4 35 -10 35
-5 0 -10 -16 -10 -35z"/>
<path d="M6944 5606 c-12 -31 0 -51 31 -51 27 0 30 3 30 30 0 25 -4 30 -28 33
-17 2 -29 -2 -33 -12z m42 -32 c-5 -13 -10 -14 -18 -6 -6 6 -8 18 -4 28 5 13
10 14 18 6 6 -6 8 -18 4 -28z"/>
<path d="M7030 5586 c0 -42 17 -49 22 -9 4 39 28 42 28 4 0 -17 5 -31 11 -31
6 0 9 14 7 33 -3 28 -7 32 -35 35 -32 3 -33 2 -33 -32z"/>
<path d="M7124 5609 c-4 -7 4 -20 17 -31 l24 -20 -24 6 c-16 3 -21 2 -14 -5
14 -14 45 -8 51 9 2 7 -5 16 -17 19 -12 3 -21 10 -21 15 0 6 9 8 20 5 11 -3
18 -1 14 4 -8 13 -41 11 -50 -2z"/>
<path d="M6650 5415 l0 -65 65 0 65 0 0 65 0 65 -65 0 -65 0 0 -65z m120 0 l0
-55 -55 0 -55 0 0 55 0 55 55 0 55 0 0 -55z"/>
<path d="M7092 5420 c0 -32 2 -47 7 -37 6 17 8 17 20 3 7 -9 18 -16 24 -16 5
0 2 9 -9 21 -18 20 -18 21 1 35 10 8 14 14 8 14 -7 0 -15 -4 -18 -10 -11 -18
-24 -10 -28 18 -2 15 -4 2 -5 -28z"/>
<path d="M7373 5420 c0 -30 2 -43 4 -27 2 15 2 39 0 55 -2 15 -4 2 -4 -28z"/>
<path d="M7450 5456 c0 -8 -10 -16 -22 -18 -18 -2 -23 -10 -23 -33 0 -25 4
-30 28 -33 26 -3 27 -2 27 47 0 28 -2 51 -5 51 -3 0 -5 -6 -5 -14z m-3 -42 c8
-21 -13 -42 -28 -27 -13 13 -5 43 11 43 6 0 13 -7 17 -16z"/>
<path d="M6851 5413 c1 -26 4 -38 6 -26 3 13 13 23 26 25 34 5 29 42 -5 46
-27 3 -28 2 -27 -45z m42 22 c1 -5 -6 -11 -15 -13 -11 -2 -18 3 -18 13 0 17
30 18 33 0z"/>
<path d="M7203 5415 c0 -27 2 -40 4 -27 3 15 11 22 28 22 17 0 25 -7 28 -22 2
-13 4 0 4 27 0 28 -2 40 -4 28 -3 -16 -11 -23 -28 -23 -17 0 -25 7 -28 23 -2
12 -4 0 -4 -28z"/>
<path d="M6934 5426 c-15 -38 22 -74 49 -47 7 7 4 8 -10 5 -12 -3 -24 -1 -27
5 -5 7 3 11 19 11 20 0 26 4 23 18 -4 22 -46 29 -54 8z m41 -6 c3 -5 -3 -10
-15 -10 -12 0 -18 5 -15 10 3 6 10 10 15 10 5 0 12 -4 15 -10z"/>
<path d="M7015 5431 c-3 -7 0 -8 9 -5 8 3 21 2 28 -2 9 -6 5 -10 -12 -14 -34
-8 -32 -34 3 -38 27 -3 28 -1 25 30 -2 25 -8 34 -25 36 -11 2 -24 -2 -28 -7z
m40 -41 c-3 -5 -13 -10 -21 -10 -8 0 -14 5 -14 10 0 6 9 10 21 10 11 0 17 -4
14 -10z"/>
<path d="M7294 5426 c-11 -29 0 -51 26 -51 21 0 25 5 25 30 0 24 -5 31 -23 33
-13 2 -24 -3 -28 -12z m43 -12 c8 -21 -13 -42 -28 -27 -13 13 -5 43 11 43 6 0
13 -7 17 -16z"/>
<path d="M6650 5205 l0 -65 65 0 65 0 0 65 0 65 -65 0 -65 0 0 -65z m120 0 l0
-55 -55 0 -55 0 0 55 0 55 55 0 55 0 0 -55z"/>
<path d="M6862 5223 c-5 -16 -13 -36 -17 -46 -7 -17 -6 -18 14 -6 17 12 25 12
42 0 20 -12 21 -11 14 6 -4 10 -12 30 -17 46 -5 15 -14 27 -18 27 -4 0 -13
-12 -18 -27z m32 -18 c4 -10 -1 -15 -14 -15 -13 0 -18 5 -14 15 4 8 10 15 14
15 4 0 10 -7 14 -15z"/>
<path d="M6911 5223 c-1 -17 21 -63 29 -63 10 0 34 59 27 66 -3 3 -8 -4 -12
-15 -8 -27 -19 -27 -33 2 -6 12 -11 17 -11 10z"/>
<path d="M6984 5216 c-15 -38 22 -74 49 -47 7 7 4 8 -10 5 -12 -3 -24 -1 -27
5 -5 7 3 11 19 11 20 0 26 4 23 18 -4 22 -46 29 -54 8z m41 -6 c3 -5 -3 -10
-15 -10 -12 0 -18 5 -15 10 3 6 10 10 15 10 5 0 12 -4 15 -10z"/>
<path d="M7061 5193 c1 -27 3 -31 6 -13 2 14 12 31 21 38 14 11 13 12 -6 12
-19 0 -22 -5 -21 -37z"/>
<path d="M7115 5221 c-3 -7 0 -8 9 -5 8 3 21 2 28 -2 9 -6 5 -10 -12 -14 -34
-8 -32 -34 3 -38 27 -3 28 -1 25 30 -2 25 -8 34 -25 36 -11 2 -24 -2 -28 -7z
m40 -41 c-3 -5 -13 -10 -21 -10 -8 0 -14 5 -14 10 0 6 9 10 21 10 11 0 17 -4
14 -10z"/>
<path d="M7194 5216 c-10 -27 1 -50 26 -56 17 -4 21 -8 12 -14 -6 -4 -16 -4
-22 -1 -5 3 -10 1 -10 -5 0 -6 10 -10 23 -8 19 3 22 10 25 51 3 45 2 47 -23
47 -14 0 -28 -6 -31 -14z m43 -12 c8 -21 -13 -42 -28 -27 -13 13 -5 43 11 43
6 0 13 -7 17 -16z"/>
<path d="M7274 5216 c-15 -38 22 -74 49 -47 7 7 4 8 -10 5 -12 -3 -24 -1 -27
5 -5 7 3 11 19 11 20 0 26 4 23 18 -4 22 -46 29 -54 8z m41 -6 c3 -5 -3 -10
-15 -10 -12 0 -18 5 -15 10 3 6 10 10 15 10 5 0 12 -4 15 -10z"/>
<path d="M6973 5030 c0 -30 2 -43 4 -27 2 15 2 39 0 55 -2 15 -4 2 -4 -28z"/>
<path d="M7083 5030 c0 -30 2 -43 4 -27 2 15 2 39 0 55 -2 15 -4 2 -4 -28z"/>
<path d="M7458 5063 c6 -2 12 -20 12 -38 0 -18 -6 -36 -12 -38 -7 -3 1 -5 17
-5 17 0 24 2 18 5 -8 2 -13 22 -13 44 0 31 -4 39 -17 38 -11 0 -13 -3 -5 -6z"/>
<path d="M6823 5015 c0 -22 2 -30 4 -17 2 12 2 30 0 40 -3 9 -5 -1 -4 -23z"/>
<path d="M7003 5000 c0 -30 2 -43 4 -27 2 15 2 39 0 55 -2 15 -4 2 -4 -28z"/>
<path d="M7331 5024 c0 -11 3 -14 6 -6 3 7 2 16 -1 19 -3 4 -6 -2 -5 -13z"/>
<path d="M7381 5024 c0 -11 3 -14 6 -6 3 7 2 16 -1 19 -3 4 -6 -2 -5 -13z"/>
<path d="M104 5006 c-8 -35 4 -66 26 -66 22 0 34 31 26 66 -4 15 -14 24 -26
24 -12 0 -22 -9 -26 -24z m41 -22 c0 -19 -5 -29 -15 -29 -16 0 -25 28 -16 51
10 25 31 10 31 -22z"/>
<path d="M224 5006 c-8 -35 4 -66 26 -66 22 0 34 31 26 66 -4 15 -14 24 -26
24 -12 0 -22 -9 -26 -24z m41 -22 c0 -19 -5 -29 -15 -29 -16 0 -25 28 -16 51
10 25 31 10 31 -22z"/>
<path d="M304 5006 c-8 -35 4 -66 26 -66 22 0 34 31 26 66 -4 15 -14 24 -26
24 -12 0 -22 -9 -26 -24z m41 -22 c0 -19 -5 -29 -15 -29 -16 0 -25 28 -16 51
10 25 31 10 31 -22z"/>
<path d="M384 5006 c-8 -35 4 -66 26 -66 22 0 34 31 26 66 -4 15 -14 24 -26
24 -12 0 -22 -9 -26 -24z m41 -22 c0 -19 -5 -29 -15 -29 -16 0 -25 28 -16 51
10 25 31 10 31 -22z"/>
<path d="M497 5000 c4 -25 2 -30 -13 -30 -14 0 -15 3 -6 12 7 7 12 17 12 23
-1 11 -30 -25 -30 -37 0 -4 9 -8 20 -8 11 0 20 -6 20 -12 0 -10 2 -10 8 -1 10
16 3 83 -9 83 -5 0 -6 -13 -2 -30z"/>
<path d="M574 5015 c-8 -19 5 -38 22 -31 17 6 17 2 3 -27 l-10 -22 19 22 c20
22 20 22 25 2 7 -26 32 -20 32 7 0 12 -6 18 -17 18 -21 -2 -21 0 -7 29 l10 22
-19 -22 c-19 -22 -20 -22 -25 -3 -6 23 -25 26 -33 5z m26 -10 c0 -8 -4 -15
-10 -15 -5 0 -10 7 -10 15 0 8 5 15 10 15 6 0 10 -7 10 -15z m60 -40 c0 -8 -4
-15 -10 -15 -5 0 -10 7 -10 15 0 8 5 15 10 15 6 0 10 -7 10 -15z"/>
<path d="M7132 5005 c0 -16 2 -22 5 -12 2 9 2 23 0 30 -3 6 -5 -1 -5 -18z"/>
<path d="M7558 5023 c7 -3 16 -2 19 1 4 3 -2 6 -13 5 -11 0 -14 -3 -6 -6z"/>
<path d="M7638 5023 c7 -3 16 -2 19 1 4 3 -2 6 -13 5 -11 0 -14 -3 -6 -6z"/>
<path d="M7718 5023 c7 -3 16 -2 19 1 4 3 -2 6 -13 5 -11 0 -14 -3 -6 -6z"/>
<path d="M7192 5013 c9 -2 19 -12 21 -21 3 -12 5 -10 6 6 1 17 -4 22 -21 21
-16 -1 -18 -3 -6 -6z"/>
<path d="M6653 5003 c9 -2 25 -2 35 0 9 3 1 5 -18 5 -19 0 -27 -2 -17 -5z"/>
<path d="M6903 5003 c9 -2 25 -2 35 0 9 3 1 5 -18 5 -19 0 -27 -2 -17 -5z"/>
<path d="M7540 4855 l0 -64 -152 -4 -153 -3 158 -2 157 -2 0 70 c0 39 -2 70
-5 70 -3 0 -5 -29 -5 -65z"/>
<path d="M7860 4555 l0 -145 -642 -3 -643 -2 648 -3 647 -2 0 150 c0 83 -2
150 -5 150 -3 0 -5 -65 -5 -145z"/>
<path d="M7097 4593 c-15 -14 -6 -34 19 -43 29 -12 22 -34 -9 -26 -14 3 -17 2
-10 -5 16 -16 47 -7 51 14 2 11 -6 20 -23 27 -29 11 -24 35 6 27 11 -3 17 -1
13 4 -6 10 -38 12 -47 2z"/>
<path d="M7168 4589 c-2 -6 -2 -26 0 -45 3 -24 9 -34 21 -33 10 0 11 2 4 6
-15 5 -18 50 -4 55 5 2 3 8 -4 15 -9 9 -15 9 -17 2z"/>
<path d="M7224 4566 c-11 -29 0 -51 26 -51 21 0 25 5 25 30 0 24 -5 31 -23 33
-13 2 -24 -3 -28 -12z m43 -12 c8 -21 -13 -42 -28 -27 -13 13 -5 43 11 43 6 0
13 -7 17 -16z"/>
<path d="M7301 4528 c1 -29 3 -45 6 -36 2 9 14 18 26 20 17 2 22 10 22 33 0
25 -4 30 -27 33 -28 3 -28 2 -27 -50z m46 26 c8 -21 -13 -42 -28 -27 -13 13
-5 43 11 43 6 0 13 -7 17 -16z"/>
<path d="M20 2310 l0 -2020 3935 0 3935 0 0 2020 0 2020 -3935 0 -3935 0 0
-2020z m7860 0 l0 -2010 -3925 0 -3925 0 0 2010 0 2010 3925 0 3925 0 0 -2010z"/>
<path d="M6040 2313 l0 -1998 910 3 910 2 -2 153 -2 152 -3 -147 -4 -148 -899
0 -900 0 0 1985 0 1985 913 3 912 2 -917 3 -918 2 0 -1997z"/>
<path d="M6070 4195 l0 -65 65 0 65 0 0 65 0 65 -65 0 -65 0 0 -65z m120 0 l0
-55 -55 0 -55 0 0 55 0 55 55 0 55 0 0 -55z"/>
<path d="M5740 4150 l0 -90 95 0 95 0 0 90 0 90 -95 0 -95 0 0 -90z"/>
<path d="M6271 4193 c1 -26 4 -38 6 -26 3 13 13 23 26 25 34 5 29 42 -5 46
-27 3 -28 2 -27 -45z m42 22 c1 -5 -6 -11 -15 -13 -11 -2 -18 3 -18 13 0 17
30 18 33 0z"/>
<path d="M6648 4229 c-2 -6 -2 -26 0 -45 3 -24 9 -34 21 -33 10 0 11 2 4 6
-15 5 -18 50 -4 55 5 2 3 8 -4 15 -9 9 -15 9 -17 2z"/>
<path d="M2163 4215 c-49 -34 -12 -112 48 -103 35 5 33 23 -2 23 -38 0 -60 26
-43 53 7 10 24 17 43 17 17 0 30 4 28 10 -6 17 -51 17 -74 0z"/>
<path d="M2770 4170 c0 -33 4 -60 10 -60 6 0 10 27 10 60 0 33 -4 60 -10 60
-6 0 -10 -27 -10 -60z"/>
<path d="M2810 4170 c0 -33 4 -60 10 -60 6 0 10 27 10 60 0 33 -4 60 -10 60
-6 0 -10 -27 -10 -60z"/>
<path d="M3030 4220 c0 -5 5 -10 10 -10 6 0 10 5 10 10 0 6 -4 10 -10 10 -5 0
-10 -4 -10 -10z"/>
<path d="M3433 4195 c-31 -48 -30 -65 6 -65 16 0 31 -6 33 -12 3 -9 10 -7 24
6 13 14 15 21 6 24 -7 2 -12 21 -12 43 0 51 -26 53 -57 4z m37 -15 c0 -23 -4
-30 -20 -30 -18 0 -18 1 -2 30 9 16 18 30 20 30 1 0 2 -13 2 -30z"/>
<path d="M3590 4171 c0 -34 4 -61 10 -61 6 0 10 9 10 19 0 15 8 21 31 23 71 7
63 71 -10 76 l-41 3 0 -60z m75 19 c0 -9 -11 -16 -27 -18 -23 -3 -28 1 -28 18
0 17 5 21 28 18 16 -2 27 -9 27 -18z"/>
<path d="M3722 4218 c-21 -21 -13 -38 23 -55 45 -22 45 -37 -1 -30 -25 4 -34
2 -31 -6 5 -17 55 -21 73 -6 23 19 16 38 -21 56 -43 20 -46 37 -5 31 20 -3 30
0 30 9 0 16 -52 17 -68 1z"/>
<path d="M3820 4170 c0 -33 4 -60 10 -60 6 0 10 14 10 32 l0 32 35 -34 c19
-18 37 -31 40 -29 3 3 -6 16 -20 29 -30 28 -31 41 -5 65 11 10 18 21 15 23 -3
3 -19 -7 -35 -23 l-30 -29 0 27 c0 15 -4 27 -10 27 -6 0 -10 -27 -10 -60z"/>
<path d="M2587 4207 c-2 -7 -2 -30 2 -52 5 -31 11 -41 29 -43 12 -2 22 1 22 7
0 6 -7 11 -15 11 -9 0 -15 9 -15 25 0 16 6 25 15 25 8 0 15 5 15 10 0 6 -7 10
-15 10 -8 0 -15 5 -15 10 0 14 -17 12 -23 -3z"/>
<path d="M2957 4207 c-2 -7 -2 -30 2 -52 5 -31 11 -41 29 -43 12 -2 22 1 22 7
0 6 -7 11 -15 11 -9 0 -15 9 -15 25 0 16 6 25 15 25 8 0 15 5 15 10 0 6 -7 10
-15 10 -8 0 -15 5 -15 10 0 14 -17 12 -23 -3z"/>
<path d="M6354 4206 c-15 -38 22 -74 49 -47 7 7 4 8 -10 5 -12 -3 -24 -1 -27
5 -5 7 3 11 19 11 20 0 26 4 23 18 -4 22 -46 29 -54 8z m41 -6 c3 -5 -3 -10
-15 -10 -12 0 -18 5 -15 10 3 6 10 10 15 10 5 0 12 -4 15 -10z"/>
<path d="M6431 4183 c1 -27 3 -31 6 -13 2 14 12 31 21 38 14 11 13 12 -6 12
-19 0 -22 -5 -21 -37z"/>
<path d="M6485 4210 c-8 -14 3 -30 21 -30 8 0 14 -5 14 -11 0 -6 -9 -9 -20 -6
-11 3 -18 1 -14 -4 7 -13 31 -11 40 2 4 7 -4 20 -17 31 l-24 20 23 -5 c12 -3
20 -1 16 4 -7 12 -31 11 -39 -1z"/>
<path d="M6553 4185 c0 -22 2 -30 4 -17 2 12 2 30 0 40 -3 9 -5 -1 -4 -23z"/>
<path d="M6585 4210 c-8 -14 3 -30 21 -30 8 0 14 -5 14 -11 0 -6 -9 -9 -20 -6
-11 3 -18 1 -14 -4 7 -13 31 -11 40 2 4 7 -4 20 -17 31 l-24 20 23 -5 c12 -3
20 -1 16 4 -7 12 -31 11 -39 -1z"/>
<path d="M6704 4206 c-15 -38 22 -74 49 -47 7 7 4 8 -10 5 -12 -3 -24 -1 -27
5 -5 7 3 11 19 11 20 0 26 4 23 18 -4 22 -46 29 -54 8z m41 -6 c3 -5 -3 -10
-15 -10 -12 0 -18 5 -15 10 3 6 10 10 15 10 5 0 12 -4 15 -10z"/>
<path d="M6781 4181 c1 -36 1 -36 8 -6 3 17 13 30 21 30 8 0 18 -13 22 -30 6
-29 6 -29 5 5 -2 31 -5 35 -29 36 -26 1 -28 -2 -27 -35z"/>
<path d="M6864 4206 c-10 -26 1 -51 24 -54 12 -2 22 1 22 6 0 5 -8 9 -17 8
-12 -1 -18 6 -18 19 0 13 6 20 18 19 9 -1 17 2 17 7 0 15 -40 10 -46 -5z"/>
<path d="M6934 4206 c-15 -38 22 -74 49 -47 7 7 4 8 -10 5 -12 -3 -24 -1 -27
5 -5 7 3 11 19 11 20 0 26 4 23 18 -4 22 -46 29 -54 8z m41 -6 c3 -5 -3 -10
-15 -10 -12 0 -18 5 -15 10 3 6 10 10 15 10 5 0 12 -4 15 -10z"/>
<path d="M2272 4188 c-28 -28 -7 -78 33 -78 27 0 45 18 45 45 0 27 -18 45 -45
45 -12 0 -26 -5 -33 -12z m56 -31 c4 -20 -25 -34 -40 -19 -15 15 -1 44 19 40
10 -2 19 -11 21 -21z"/>
<path d="M2370 4153 c0 -50 17 -59 22 -10 2 24 8 32 23 32 15 0 21 -8 23 -32
4 -43 22 -42 22 1 0 41 -15 55 -58 54 -31 -1 -32 -2 -32 -45z"/>
<path d="M2484 4186 c-8 -21 3 -36 26 -36 10 0 22 -5 26 -11 5 -8 -3 -10 -25
-7 -20 3 -30 1 -28 -6 2 -6 19 -11 38 -11 48 0 52 30 7 51 l-33 15 33 -4 c20
-2 31 0 29 7 -6 18 -66 20 -73 2z"/>
<path d="M2672 4188 c-16 -16 -15 -53 2 -67 17 -15 68 -11 73 5 2 6 -8 9 -26
6 -16 -2 -32 1 -35 7 -5 7 5 11 28 11 23 0 36 5 36 13 0 19 -21 37 -45 37 -12
0 -26 -5 -33 -12z m51 -15 c-7 -2 -19 -2 -25 0 -7 3 -2 5 12 5 14 0 19 -2 13
-5z"/>
<path d="M2865 4190 c-4 -6 6 -11 22 -11 l28 -1 -30 -7 c-24 -5 -30 -12 -30
-31 0 -22 5 -25 38 -27 35 -1 37 0 37 31 0 18 -5 37 -12 44 -15 15 -45 16 -53
2z m40 -50 c-3 -5 -13 -10 -21 -10 -8 0 -14 5 -14 10 0 6 9 10 21 10 11 0 17
-4 14 -10z"/>
<path d="M3030 4155 c0 -25 5 -45 10 -45 6 0 10 20 10 45 0 25 -4 45 -10 45
-5 0 -10 -20 -10 -45z"/>
<path d="M3082 4188 c-7 -7 -12 -21 -12 -33 0 -12 5 -26 12 -33 7 -7 21 -12
33 -12 12 0 26 5 33 12 7 7 12 21 12 33 0 12 -5 26 -12 33 -7 7 -21 12 -33 12
-12 0 -26 -5 -33 -12z m56 -31 c4 -20 -25 -34 -40 -19 -15 15 -1 44 19 40 10
-2 19 -11 21 -21z"/>
<path d="M3180 4153 c0 -50 17 -59 22 -10 2 24 8 32 23 32 15 0 21 -8 23 -32
4 -43 22 -42 22 1 0 41 -15 55 -58 54 -31 -1 -32 -2 -32 -45z"/>
<path d="M3290 4185 c0 -8 5 -15 10 -15 6 0 10 7 10 15 0 8 -4 15 -10 15 -5 0
-10 -7 -10 -15z"/>
<path d="M3520 4160 c0 -5 11 -10 25 -10 14 0 25 5 25 10 0 6 -11 10 -25 10
-14 0 -25 -4 -25 -10z"/>
<path d="M3290 4125 c0 -8 5 -15 10 -15 6 0 10 7 10 15 0 8 -4 15 -10 15 -5 0
-10 -7 -10 -15z"/>
<path d="M6303 4020 c0 -30 2 -43 4 -27 2 15 2 39 0 55 -2 15 -4 2 -4 -28z"/>
<path d="M6613 4020 c0 -30 2 -43 4 -27 2 15 2 39 0 55 -2 15 -4 2 -4 -28z"/>
<path d="M6723 4020 c0 -30 2 -43 4 -27 2 15 2 39 0 55 -2 15 -4 2 -4 -28z"/>
<path d="M7371 4033 c-1 -27 -5 -33 -23 -34 -21 -1 -21 -2 -3 -6 11 -3 23 -10
26 -15 10 -16 15 15 8 52 l-6 35 -2 -32z"/>
<path d="M6143 4005 c0 -22 2 -30 4 -17 2 12 2 30 0 40 -3 9 -5 -1 -4 -23z"/>
<path d="M6463 4005 c0 -22 2 -30 4 -17 2 12 2 30 0 40 -3 9 -5 -1 -4 -23z"/>
<path d="M6643 3990 c0 -30 2 -43 4 -27 2 15 2 39 0 55 -2 15 -4 2 -4 -28z"/>
<path d="M6971 4014 c0 -11 3 -14 6 -6 3 7 2 16 -1 19 -3 4 -6 -2 -5 -13z"/>
<path d="M7021 4014 c0 -11 3 -14 6 -6 3 7 2 16 -1 19 -3 4 -6 -2 -5 -13z"/>
<path d="M7091 4014 c0 -11 3 -14 6 -6 3 7 2 16 -1 19 -3 4 -6 -2 -5 -13z"/>
<path d="M7141 4014 c0 -11 3 -14 6 -6 3 7 2 16 -1 19 -3 4 -6 -2 -5 -13z"/>
<path d="M6192 3995 c0 -16 2 -22 5 -12 2 9 2 23 0 30 -3 6 -5 -1 -5 -18z"/>
<path d="M6772 3995 c0 -16 2 -22 5 -12 2 9 2 23 0 30 -3 6 -5 -1 -5 -18z"/>
<path d="M426 4001 c-4 -5 3 -7 14 -4 27 7 26 -14 -2 -44 l-21 -23 29 1 c18 1
22 3 11 6 -17 4 -18 6 -2 24 10 10 15 25 12 34 -7 16 -32 20 -41 6z"/>
<path d="M6252 4003 c9 -2 19 -12 21 -21 3 -12 5 -10 6 6 1 17 -4 22 -21 21
-16 -1 -18 -3 -6 -6z"/>
<path d="M6832 4003 c9 -2 19 -12 21 -21 3 -12 5 -10 6 6 1 17 -4 22 -21 21
-16 -1 -18 -3 -6 -6z"/>
<path d="M6073 3993 c9 -2 25 -2 35 0 9 3 1 5 -18 5 -19 0 -27 -2 -17 -5z"/>
<path d="M6543 3993 c9 -2 25 -2 35 0 9 3 1 5 -18 5 -19 0 -27 -2 -17 -5z"/>
<path d="M530 2345 l0 -1635 2705 0 2705 0 -2 1633 -3 1632 -2702 3 -2703 2 0
-1635z m5400 0 l0 -1625 -2695 0 -2695 0 0 1625 0 1625 2695 0 2695 0 0 -1625z"/>
<path d="M4380 3310 c0 -5 5 -10 10 -10 6 0 10 5 10 10 0 6 -4 10 -10 10 -5 0
-10 -4 -10 -10z"/>
<path d="M1970 3230 c0 -5 5 -10 10 -10 6 0 10 5 10 10 0 6 -4 10 -10 10 -5 0
-10 -4 -10 -10z"/>
<path d="M2225 3219 c-4 -6 -5 -13 -2 -16 7 -7 27 6 27 18 0 12 -17 12 -25 -2z"/>
<path d="M2130 3210 c0 -5 5 -10 10 -10 6 0 10 5 10 10 0 6 -4 10 -10 10 -5 0
-10 -4 -10 -10z"/>
<path d="M2610 3190 c0 -5 5 -10 10 -10 6 0 10 5 10 10 0 6 -4 10 -10 10 -5 0
-10 -4 -10 -10z"/>
<path d="M4130 3190 c0 -5 5 -10 10 -10 6 0 10 5 10 10 0 6 -4 10 -10 10 -5 0
-10 -4 -10 -10z"/>
<path d="M2450 3170 c0 -5 5 -10 10 -10 6 0 10 5 10 10 0 6 -4 10 -10 10 -5 0
-10 -4 -10 -10z"/>
<path d="M4160 3170 c0 -5 5 -10 11 -10 6 0 9 -6 6 -12 -2 -7 -11 -12 -21 -10
-21 4 -21 -14 0 -22 22 -8 22 -8 34 14 8 16 8 24 -4 35 -17 17 -26 19 -26 5z"/>
<path d="M3960 3160 c0 -5 5 -10 10 -10 6 0 10 5 10 10 0 6 -4 10 -10 10 -5 0
-10 -4 -10 -10z"/>
<path d="M4240 3150 c0 -5 5 -10 10 -10 6 0 10 5 10 10 0 6 -4 10 -10 10 -5 0
-10 -4 -10 -10z"/>
<path d="M4320 3150 c0 -5 5 -10 10 -10 6 0 10 5 10 10 0 6 -4 10 -10 10 -5 0
-10 -4 -10 -10z"/>
<path d="M2100 3140 c0 -5 5 -10 10 -10 6 0 10 5 10 10 0 6 -4 10 -10 10 -5 0
-10 -4 -10 -10z"/>
<path d="M2180 3140 c0 -5 5 -10 10 -10 6 0 10 5 10 10 0 6 -4 10 -10 10 -5 0
-10 -4 -10 -10z"/>
<path d="M3790 3140 c0 -5 5 -10 10 -10 6 0 10 5 10 10 0 6 -4 10 -10 10 -5 0
-10 -4 -10 -10z"/>
<path d="M2130 3130 c0 -5 5 -10 10 -10 6 0 10 5 10 10 0 6 -4 10 -10 10 -5 0
-10 -4 -10 -10z"/>
<path d="M4780 3130 c0 -5 5 -10 10 -10 6 0 10 5 10 10 0 6 -4 10 -10 10 -5 0
-10 -4 -10 -10z"/>
<path d="M2220 3120 c0 -5 5 -10 10 -10 6 0 10 5 10 10 0 6 -4 10 -10 10 -5 0
-10 -4 -10 -10z"/>
<path d="M2280 3120 c0 -5 5 -10 10 -10 6 0 10 5 10 10 0 6 -4 10 -10 10 -5 0
-10 -4 -10 -10z"/>
<path d="M4374 3119 c-6 -10 12 -29 29 -29 9 0 9 4 1 24 -7 19 -20 21 -30 5z"/>
<path d="M2087 3114 c-14 -15 -6 -21 28 -22 19 -1 35 3 35 8 0 6 -6 10 -14 10
-8 0 -21 2 -28 5 -8 3 -17 2 -21 -1z"/>
<path d="M2162 3109 c2 -7 10 -15 17 -17 8 -3 12 1 9 9 -2 7 -10 15 -17 17 -8
3 -12 -1 -9 -9z"/>
<path d="M2244 3106 c-6 -7 -15 -22 -18 -34 -6 -17 -3 -22 11 -23 10 0 13 -3
6 -6 -14 -5 -18 -23 -5 -23 25 1 33 17 20 45 -10 22 -10 29 0 33 13 4 17 22 5
22 -5 -1 -13 -7 -19 -14z"/>
<path d="M2360 3108 c0 -17 18 -44 24 -37 8 7 -5 49 -15 49 -5 0 -9 -6 -9 -12z"/>
<path d="M3870 3114 c0 -3 6 -12 14 -20 8 -7 16 -18 18 -24 4 -13 38 -2 38 12
0 6 -6 8 -13 5 -8 -3 -20 3 -28 14 -13 18 -29 25 -29 13z"/>
<path d="M2470 3100 c0 -5 5 -10 10 -10 6 0 10 5 10 10 0 6 -4 10 -10 10 -5 0
-10 -4 -10 -10z"/>
<path d="M2670 3101 c0 -11 31 -24 39 -16 3 3 -1 10 -9 15 -19 12 -30 12 -30
1z"/>
<path d="M4055 3093 c4 -10 7 -22 7 -28 0 -5 -3 -18 -7 -27 -11 -28 10 -21 25
7 7 14 17 25 22 25 4 0 8 5 8 10 0 6 -9 10 -20 10 -11 0 -20 5 -20 10 0 6 -5
10 -11 10 -7 0 -8 -7 -4 -17z"/>
<path d="M4326 3077 c-24 -39 -29 -87 -10 -87 18 0 28 20 16 32 -7 7 -4 20 9
42 10 17 19 34 19 39 0 17 -16 5 -34 -26z"/>
<path d="M4430 3090 c0 -5 5 -10 10 -10 6 0 10 5 10 10 0 6 -4 10 -10 10 -5 0
-10 -4 -10 -10z"/>
<path d="M4180 3080 c0 -5 9 -10 20 -10 11 0 20 5 20 10 0 6 -9 10 -20 10 -11
0 -20 -4 -20 -10z"/>
<path d="M2070 3071 c0 -11 31 -24 39 -16 3 3 -1 10 -9 15 -19 12 -30 12 -30
1z"/>
<path d="M2150 3070 c0 -5 5 -10 10 -10 6 0 10 5 10 10 0 6 -4 10 -10 10 -5 0
-10 -4 -10 -10z"/>
<path d="M2450 3070 c0 -5 5 -10 10 -10 6 0 10 5 10 10 0 6 -4 10 -10 10 -5 0
-10 -4 -10 -10z"/>
<path d="M2860 3070 c0 -5 5 -10 10 -10 6 0 10 5 10 10 0 6 -4 10 -10 10 -5 0
-10 -4 -10 -10z"/>
<path d="M4000 3070 c-8 -5 -12 -11 -9 -14 7 -8 49 5 49 15 0 12 -21 11 -40
-1z"/>
<path d="M2190 3060 c0 -5 5 -10 10 -10 6 0 10 5 10 10 0 6 -4 10 -10 10 -5 0
-10 -4 -10 -10z"/>
<path d="M2290 3059 c-11 -7 -12 -12 -3 -15 7 -3 9 -12 6 -20 -8 -21 10 -17
25 6 20 32 2 50 -28 29z"/>
<path d="M4380 3063 c0 -14 19 -38 25 -32 8 8 -5 39 -16 39 -5 0 -9 -3 -9 -7z"/>
<path d="M4570 3060 c0 -5 5 -10 10 -10 6 0 10 5 10 10 0 6 -4 10 -10 10 -5 0
-10 -4 -10 -10z"/>
<path d="M1930 3050 c0 -5 5 -10 10 -10 6 0 10 5 10 10 0 6 -4 10 -10 10 -5 0
-10 -4 -10 -10z"/>
<path d="M3640 3050 c0 -5 5 -10 10 -10 6 0 10 5 10 10 0 6 -4 10 -10 10 -5 0
-10 -4 -10 -10z"/>
<path d="M4137 3053 c-12 -11 -8 -23 8 -23 8 0 15 7 15 15 0 16 -12 20 -23 8z"/>
<path d="M4250 3050 c0 -5 5 -10 10 -10 6 0 10 5 10 10 0 6 -4 10 -10 10 -5 0
-10 -4 -10 -10z"/>
<path d="M4430 3045 c0 -8 5 -15 10 -15 6 0 10 7 10 15 0 8 -4 15 -10 15 -5 0
-10 -7 -10 -15z"/>
<path d="M2050 3040 c0 -5 5 -10 10 -10 6 0 10 5 10 10 0 6 -4 10 -10 10 -5 0
-10 -4 -10 -10z"/>
<path d="M2140 3044 c0 -10 28 -34 39 -34 6 0 11 5 11 10 0 6 -7 10 -15 10 -8
0 -15 5 -15 10 0 6 -4 10 -10 10 -5 0 -10 -3 -10 -6z"/>
<path d="M4193 3035 c-18 -20 -16 -25 12 -25 27 0 28 1 19 24 -7 19 -15 20
-31 1z"/>
<path d="M2090 3030 c0 -5 7 -10 15 -10 8 0 15 5 15 10 0 6 -7 10 -15 10 -8 0
-15 -4 -15 -10z"/>
<path d="M2403 2997 c-8 -30 -8 -43 0 -52 16 -15 59 -17 54 -2 -2 7 -14 11
-26 10 -11 -2 -21 2 -21 7 0 6 5 10 11 10 6 0 9 7 5 15 -3 9 3 20 14 27 26 17
25 26 -3 26 -19 0 -26 -8 -34 -41z"/>
<path d="M3710 3030 c0 -5 5 -10 10 -10 6 0 10 5 10 10 0 6 -4 10 -10 10 -5 0
-10 -4 -10 -10z"/>
<path d="M3940 3030 c0 -5 5 -10 10 -10 6 0 10 5 10 10 0 6 -4 10 -10 10 -5 0
-10 -4 -10 -10z"/>
<path d="M2200 3020 c0 -5 5 -10 10 -10 6 0 10 5 10 10 0 6 -4 10 -10 10 -5 0
-10 -4 -10 -10z"/>
<path d="M2580 3020 c0 -5 5 -10 10 -10 6 0 10 5 10 10 0 6 -4 10 -10 10 -5 0
-10 -4 -10 -10z"/>
<path d="M3980 3020 c0 -5 4 -10 10 -10 5 0 9 -10 7 -21 -1 -12 3 -24 9 -26
15 -5 15 50 0 59 -16 11 -26 10 -26 -2z"/>
<path d="M4240 3020 c0 -5 5 -10 10 -10 6 0 10 5 10 10 0 6 -4 10 -10 10 -5 0
-10 -4 -10 -10z"/>
<path d="M4270 3020 c0 -5 5 -10 10 -10 6 0 10 5 10 10 0 6 -4 10 -10 10 -5 0
-10 -4 -10 -10z"/>
<path d="M4510 3020 c0 -5 5 -10 10 -10 6 0 10 5 10 10 0 6 -4 10 -10 10 -5 0
-10 -4 -10 -10z"/>
<path d="M1990 3010 c0 -5 5 -10 10 -10 6 0 10 5 10 10 0 6 -4 10 -10 10 -5 0
-10 -4 -10 -10z"/>
<path d="M2250 3014 c0 -9 31 -37 36 -32 9 9 -8 38 -22 38 -8 0 -14 -3 -14 -6z"/>
<path d="M2453 3013 c-20 -8 -15 -23 7 -23 11 0 20 7 20 15 0 15 -6 17 -27 8z"/>
<path d="M2320 3002 c0 -4 6 -14 12 -20 10 -10 10 -15 -2 -22 -8 -5 -11 -12
-7 -17 5 -4 13 -1 18 7 8 11 12 12 16 3 2 -7 9 -13 14 -13 12 0 -1 53 -15 62
-15 10 -36 10 -36 0z"/>
<path d="M2650 3000 c0 -5 5 -10 10 -10 6 0 10 5 10 10 0 6 -4 10 -10 10 -5 0
-10 -4 -10 -10z"/>
<path d="M3780 3000 c0 -5 5 -10 10 -10 6 0 10 5 10 10 0 6 -4 10 -10 10 -5 0
-10 -4 -10 -10z"/>
<path d="M4100 3000 c0 -5 5 -10 10 -10 6 0 10 5 10 10 0 6 -4 10 -10 10 -5 0
-10 -4 -10 -10z"/>
<path d="M4350 3000 c0 -5 5 -10 10 -10 6 0 10 5 10 10 0 6 -4 10 -10 10 -5 0
-10 -4 -10 -10z"/>
<path d="M4477 3004 c-13 -13 -76 -22 -80 -10 -2 7 -10 5 -20 -6 -9 -9 -17
-18 -17 -21 0 -2 25 -3 55 -3 30 1 55 4 55 8 0 4 7 5 15 2 10 -4 15 0 15 15 0
20 -10 27 -23 15z"/>
<path d="M1930 2990 c0 -5 5 -10 10 -10 6 0 10 -7 10 -15 0 -8 5 -15 10 -15
16 0 11 37 -6 44 -21 8 -24 8 -24 -4z"/>
<path d="M3951 2984 c-18 -21 -6 -30 14 -11 8 9 15 18 15 21 0 11 -15 5 -29
-10z"/>
<path d="M4046 2984 c-9 -24 0 -29 19 -11 19 19 19 27 1 27 -8 0 -17 -7 -20
-16z"/>
<path d="M4141 2991 c-19 -12 -4 -33 18 -26 22 7 44 -17 35 -38 -4 -11 1 -15
18 -14 13 0 31 -3 41 -7 13 -6 17 -4 17 10 0 26 -20 53 -27 37 -2 -7 -9 -13
-14 -13 -14 0 -11 38 4 43 6 2 9 7 5 11 -3 4 -16 2 -28 -4 -16 -9 -25 -9 -33
-1 -13 13 -18 13 -36 2z"/>
<path d="M4590 2990 c0 -5 5 -10 10 -10 6 0 10 5 10 10 0 6 -4 10 -10 10 -5 0
-10 -4 -10 -10z"/>
<path d="M2050 2980 c0 -5 5 -10 10 -10 6 0 10 5 10 10 0 6 -4 10 -10 10 -5 0
-10 -4 -10 -10z"/>
<path d="M2134 2973 c4 -9 2 -20 -5 -23 -8 -5 -6 -14 7 -29 23 -27 37 -27 29
-1 -8 25 3 26 21 3 7 -10 15 -15 19 -11 9 8 -17 48 -31 48 -7 0 -14 7 -18 15
-3 8 -10 15 -17 15 -6 0 -8 -7 -5 -17z"/>
<path d="M2230 2980 c0 -5 5 -10 10 -10 6 0 10 5 10 10 0 6 -4 10 -10 10 -5 0
-10 -4 -10 -10z"/>
<path d="M2300 2980 c0 -5 5 -10 10 -10 6 0 10 5 10 10 0 6 -4 10 -10 10 -5 0
-10 -4 -10 -10z"/>
<path d="M1990 2970 c0 -5 5 -10 10 -10 6 0 10 5 10 10 0 6 -4 10 -10 10 -5 0
-10 -4 -10 -10z"/>
<path d="M2480 2965 c0 -8 5 -15 10 -15 6 0 10 7 10 15 0 8 -4 15 -10 15 -5 0
-10 -7 -10 -15z"/>
<path d="M2680 2970 c0 -5 5 -10 10 -10 6 0 10 5 10 10 0 6 -4 10 -10 10 -5 0
-10 -4 -10 -10z"/>
<path d="M4270 2970 c0 -5 5 -10 10 -10 6 0 10 5 10 10 0 6 -4 10 -10 10 -5 0
-10 -4 -10 -10z"/>
<path d="M4318 2973 c-22 -5 -24 -23 -3 -23 9 0 12 -6 9 -15 -8 -19 10 -20 25
-1 11 13 5 47 -8 45 -3 -1 -14 -3 -23 -6z"/>
<path d="M2020 2950 c0 -11 5 -20 10 -20 6 0 10 9 10 20 0 11 -4 20 -10 20 -5
0 -10 -9 -10 -20z"/>
<path d="M2202 2959 c2 -7 10 -15 17 -17 8 -3 12 1 9 9 -2 7 -10 15 -17 17 -8
3 -12 -1 -9 -9z"/>
<path d="M4110 2960 c0 -5 5 -10 10 -10 6 0 10 5 10 10 0 6 -4 10 -10 10 -5 0
-10 -4 -10 -10z"/>
<path d="M3970 2953 c0 -14 19 -38 25 -32 8 8 -5 39 -16 39 -5 0 -9 -3 -9 -7z"/>
<path d="M1910 2940 c0 -5 5 -10 10 -10 6 0 10 5 10 10 0 6 -4 10 -10 10 -5 0
-10 -4 -10 -10z"/>
<path d="M2250 2940 c-8 -5 -12 -12 -8 -15 3 -4 0 -23 -8 -42 -9 -19 -13 -37
-11 -39 9 -10 38 10 33 22 -3 8 1 14 9 14 19 0 21 -56 3 -63 -10 -4 -9 -8 2
-16 22 -15 28 -14 41 11 9 16 9 23 0 26 -6 2 -11 12 -11 21 0 10 -9 29 -21 42
-11 13 -16 25 -10 27 12 4 15 22 4 22 -5 0 -15 -4 -23 -10z"/>
<path d="M3930 2941 c0 -5 7 -17 16 -25 18 -18 34 -21 34 -6 0 6 -4 10 -10 10
-5 0 -10 7 -10 15 0 8 -7 15 -15 15 -8 0 -15 -4 -15 -9z"/>
<path d="M4010 2940 c0 -5 5 -10 10 -10 6 0 10 5 10 10 0 6 -4 10 -10 10 -5 0
-10 -4 -10 -10z"/>
<path d="M1950 2931 c0 -11 31 -24 39 -16 3 3 -1 10 -9 15 -19 12 -30 12 -30
1z"/>
<path d="M2480 2930 c0 -5 5 -10 10 -10 6 0 10 5 10 10 0 6 -4 10 -10 10 -5 0
-10 -4 -10 -10z"/>
<path d="M2520 2930 c0 -5 9 -10 20 -10 11 0 20 5 20 10 0 6 -9 10 -20 10 -11
0 -20 -4 -20 -10z"/>
<path d="M2580 2930 c0 -5 5 -10 10 -10 6 0 10 5 10 10 0 6 -4 10 -10 10 -5 0
-10 -4 -10 -10z"/>
<path d="M3830 2930 c0 -5 5 -10 10 -10 6 0 10 5 10 10 0 6 -4 10 -10 10 -5 0
-10 -4 -10 -10z"/>
<path d="M4060 2926 c0 -8 6 -17 13 -19 6 -3 2 -6 -10 -6 -25 -1 -33 -21 -9
-21 27 0 46 12 46 30 0 10 -7 21 -16 24 -22 8 -24 8 -24 -8z"/>
<path d="M4430 2925 c0 -8 5 -15 10 -15 6 0 10 7 10 15 0 8 -4 15 -10 15 -5 0
-10 -7 -10 -15z"/>
<path d="M4590 2930 c0 -5 5 -10 10 -10 6 0 10 5 10 10 0 6 -4 10 -10 10 -5 0
-10 -4 -10 -10z"/>
<path d="M2073 2915 c-8 -22 6 -33 17 -15 13 20 12 30 0 30 -6 0 -13 -7 -17
-15z"/>
<path d="M2280 2925 c0 -8 34 -45 42 -45 13 0 9 20 -6 36 -14 13 -36 19 -36 9z"/>
<path d="M2330 2920 c0 -13 28 -25 38 -16 3 4 0 11 -8 16 -20 13 -30 12 -30 0z"/>
<path d="M3860 2900 c0 -21 5 -30 16 -30 11 0 14 5 10 16 -3 9 -6 22 -6 30 0
8 -4 14 -10 14 -5 0 -10 -13 -10 -30z"/>
<path d="M4154 2917 c-15 -18 -26 -65 -16 -71 12 -7 52 5 52 15 0 5 -8 9 -17
10 -11 0 -13 3 -5 6 13 5 17 53 5 53 -5 -1 -13 -6 -19 -13z"/>
<path d="M4370 2920 c0 -5 -11 -12 -24 -16 -14 -3 -27 -12 -30 -20 -3 -8 -12
-14 -21 -14 -8 0 -15 -4 -15 -10 0 -15 40 -12 46 4 3 8 16 17 30 20 13 4 24
11 24 16 0 6 4 10 10 10 5 0 7 -7 4 -15 -7 -17 4 -19 26 -5 13 9 12 12 -4 25
-23 17 -46 20 -46 5z"/>
<path d="M4480 2920 c0 -5 5 -10 10 -10 6 0 10 5 10 10 0 6 -4 10 -10 10 -5 0
-10 -4 -10 -10z"/>
<path d="M2000 2910 c0 -11 48 -25 57 -16 9 8 3 12 -29 20 -17 4 -28 2 -28 -4z"/>
<path d="M2394 2898 c3 -13 6 -30 6 -39 0 -22 31 -34 42 -17 6 10 8 8 8 -4 0
-10 5 -18 10 -18 6 0 10 9 10 19 0 23 -30 36 -43 19 -5 -8 -7 0 -3 25 4 32 2
37 -16 37 -16 0 -19 -5 -14 -22z"/>
<path d="M3650 2910 c0 -5 5 -10 10 -10 6 0 10 5 10 10 0 6 -4 10 -10 10 -5 0
-10 -4 -10 -10z"/>
<path d="M4290 2910 c0 -5 5 -10 10 -10 6 0 10 5 10 10 0 6 -4 10 -10 10 -5 0
-10 -4 -10 -10z"/>
<path d="M4540 2910 c0 -5 9 -10 20 -10 11 0 20 5 20 10 0 6 -9 10 -20 10 -11
0 -20 -4 -20 -10z"/>
<path d="M1670 2900 c0 -5 5 -10 10 -10 6 0 10 5 10 10 0 6 -4 10 -10 10 -5 0
-10 -4 -10 -10z"/>
<path d="M1840 2900 c0 -5 5 -10 10 -10 6 0 10 5 10 10 0 6 -4 10 -10 10 -5 0
-10 -4 -10 -10z"/>
<path d="M2110 2900 c0 -5 5 -10 10 -10 6 0 10 5 10 10 0 6 -4 10 -10 10 -5 0
-10 -4 -10 -10z"/>
<path d="M2460 2895 c0 -8 5 -15 10 -15 6 0 10 7 10 15 0 8 -4 15 -10 15 -5 0
-10 -7 -10 -15z"/>
<path d="M3990 2903 c0 -14 19 -38 25 -32 8 8 -5 39 -16 39 -5 0 -9 -3 -9 -7z"/>
<path d="M2190 2890 c0 -5 5 -10 10 -10 6 0 10 5 10 10 0 6 -4 10 -10 10 -5 0
-10 -4 -10 -10z"/>
<path d="M2690 2890 c0 -5 5 -10 10 -10 6 0 10 5 10 10 0 6 -4 10 -10 10 -5 0
-10 -4 -10 -10z"/>
<path d="M4200 2890 c0 -5 5 -10 10 -10 6 0 10 5 10 10 0 6 -4 10 -10 10 -5 0
-10 -4 -10 -10z"/>
<path d="M4234 2884 c3 -9 6 -20 6 -25 0 -5 7 -9 15 -9 18 0 18 5 5 31 -13 23
-35 26 -26 3z"/>
<path d="M3930 2880 c0 -5 5 -10 10 -10 6 0 10 5 10 10 0 6 -4 10 -10 10 -5 0
-10 -4 -10 -10z"/>
<path d="M4106 2874 c-9 -22 3 -32 14 -14 12 19 12 30 1 30 -5 0 -12 -7 -15
-16z"/>
<path d="M4510 2880 c0 -5 5 -10 10 -10 6 0 10 5 10 10 0 6 -4 10 -10 10 -5 0
-10 -4 -10 -10z"/>
<path d="M4610 2880 c0 -5 5 -10 10 -10 6 0 10 5 10 10 0 6 -4 10 -10 10 -5 0
-10 -4 -10 -10z"/>
<path d="M1820 2870 c0 -5 5 -10 10 -10 6 0 10 5 10 10 0 6 -4 10 -10 10 -5 0
-10 -4 -10 -10z"/>
<path d="M1850 2870 c0 -5 5 -10 10 -10 6 0 10 5 10 10 0 6 -4 10 -10 10 -5 0
-10 -4 -10 -10z"/>
<path d="M1930 2873 c0 -14 19 -38 25 -32 8 8 -5 39 -16 39 -5 0 -9 -3 -9 -7z"/>
<path d="M2010 2870 c0 -5 5 -10 10 -10 6 0 10 5 10 10 0 6 -4 10 -10 10 -5 0
-10 -4 -10 -10z"/>
<path d="M2080 2870 c0 -5 5 -10 10 -10 6 0 10 5 10 10 0 6 -4 10 -10 10 -5 0
-10 -4 -10 -10z"/>
<path d="M4414 2864 c3 -9 6 -20 6 -25 0 -11 11 -11 30 1 13 8 12 11 -5 24
-26 20 -39 20 -31 0z"/>
<path d="M2310 2860 c0 -5 5 -10 10 -10 6 0 10 5 10 10 0 6 -4 10 -10 10 -5 0
-10 -4 -10 -10z"/>
<path d="M3750 2860 c0 -5 5 -10 10 -10 6 0 10 5 10 10 0 6 -4 10 -10 10 -5 0
-10 -4 -10 -10z"/>
<path d="M4050 2845 c0 -14 5 -25 10 -25 6 0 10 -7 10 -15 0 -8 5 -15 10 -15
6 0 10 6 10 13 0 8 4 7 10 -3 5 -8 7 -23 4 -32 -7 -25 1 -22 31 7 30 31 32 38
4 30 -15 -5 -22 -2 -26 14 -3 12 -13 21 -24 21 -11 0 -19 7 -19 15 0 8 -4 15
-10 15 -5 0 -10 -11 -10 -25z"/>
<path d="M4202 2859 c2 -7 10 -15 17 -17 8 -3 12 1 9 9 -2 7 -10 15 -17 17 -8
3 -12 -1 -9 -9z"/>
<path d="M4340 2860 c0 -5 5 -10 10 -10 6 0 10 5 10 10 0 6 -4 10 -10 10 -5 0
-10 -4 -10 -10z"/>
<path d="M2150 2850 c0 -5 5 -10 10 -10 6 0 10 5 10 10 0 6 -4 10 -10 10 -5 0
-10 -4 -10 -10z"/>
<path d="M3860 2850 c0 -5 5 -10 10 -10 6 0 10 5 10 10 0 6 -4 10 -10 10 -5 0
-10 -4 -10 -10z"/>
<path d="M3926 2838 c8 -27 33 -53 42 -44 3 4 2 10 -4 14 -6 4 -14 17 -18 30
-4 12 -12 22 -17 22 -6 0 -7 -9 -3 -22z"/>
<path d="M3996 2844 c-9 -22 3 -32 14 -14 12 19 12 30 1 30 -5 0 -12 -7 -15
-16z"/>
<path d="M4373 2830 c0 -32 4 -35 25 -21 12 7 12 12 1 30 -19 29 -26 26 -26
-9z"/>
<path d="M4540 2850 c0 -5 5 -10 10 -10 6 0 10 5 10 10 0 6 -4 10 -10 10 -5 0
-10 -4 -10 -10z"/>
<path d="M2510 2840 c0 -5 5 -10 10 -10 6 0 10 5 10 10 0 6 -4 10 -10 10 -5 0
-10 -4 -10 -10z"/>
<path d="M2650 2840 c0 -5 5 -10 10 -10 6 0 10 5 10 10 0 6 -4 10 -10 10 -5 0
-10 -4 -10 -10z"/>
<path d="M1850 2830 c0 -5 5 -10 10 -10 6 0 10 5 10 10 0 6 -4 10 -10 10 -5 0
-10 -4 -10 -10z"/>
<path d="M2350 2830 c-13 -9 -12 -12 4 -25 23 -17 36 -19 36 -5 0 6 -4 10 -10
10 -5 0 -7 7 -4 15 7 17 -4 19 -26 5z"/>
<path d="M3870 2820 c-13 -11 -20 -23 -17 -26 3 -4 13 1 22 10 9 9 21 16 26
16 5 0 9 5 9 10 0 16 -15 12 -40 -10z"/>
<path d="M4170 2831 c0 -5 7 -12 16 -15 22 -9 24 -8 24 9 0 8 -9 15 -20 15
-11 0 -20 -4 -20 -9z"/>
<path d="M1930 2820 c0 -5 5 -10 10 -10 6 0 10 5 10 10 0 6 -4 10 -10 10 -5 0
-10 -4 -10 -10z"/>
<path d="M2190 2820 c0 -5 5 -10 10 -10 6 0 10 5 10 10 0 6 -4 10 -10 10 -5 0
-10 -4 -10 -10z"/>
<path d="M4570 2820 c0 -5 5 -10 10 -10 6 0 10 5 10 10 0 6 -4 10 -10 10 -5 0
-10 -4 -10 -10z"/>
<path d="M2030 2810 c0 -5 5 -10 10 -10 6 0 10 5 10 10 0 6 -4 10 -10 10 -5 0
-10 -4 -10 -10z"/>
<path d="M2412 2809 c2 -7 10 -15 17 -17 8 -3 12 1 9 9 -2 7 -10 15 -17 17 -8
3 -12 -1 -9 -9z"/>
<path d="M3690 2810 c0 -5 5 -10 10 -10 6 0 10 5 10 10 0 6 -4 10 -10 10 -5 0
-10 -4 -10 -10z"/>
<path d="M2142 2799 c2 -7 10 -15 17 -17 8 -3 12 1 9 9 -2 7 -10 15 -17 17 -8
3 -12 -1 -9 -9z"/>
<path d="M2202 2802 c-7 -5 -10 -16 -6 -25 8 -21 24 -22 24 -2 0 9 6 12 15 9
8 -4 15 -2 15 4 0 5 -7 13 -16 16 -19 7 -16 7 -32 -2z"/>
<path d="M2464 2795 c3 -8 -2 -22 -11 -30 -23 -23 -8 -30 17 -8 20 20 19 53
-2 53 -6 0 -8 -7 -4 -15z"/>
<path d="M2530 2800 c0 -5 9 -10 20 -10 11 0 20 5 20 10 0 6 -9 10 -20 10 -11
0 -20 -4 -20 -10z"/>
<path d="M2830 2800 c0 -5 5 -10 10 -10 6 0 10 5 10 10 0 6 -4 10 -10 10 -5 0
-10 -4 -10 -10z"/>
<path d="M3790 2800 c0 -5 5 -10 10 -10 6 0 10 5 10 10 0 6 -4 10 -10 10 -5 0
-10 -4 -10 -10z"/>
<path d="M4170 2800 c0 -5 5 -10 10 -10 6 0 10 5 10 10 0 6 -4 10 -10 10 -5 0
-10 -4 -10 -10z"/>
<path d="M4220 2800 c0 -5 5 -10 10 -10 6 0 10 5 10 10 0 6 -4 10 -10 10 -5 0
-10 -4 -10 -10z"/>
<path d="M2057 2793 c-14 -13 -6 -23 18 -23 28 0 34 15 9 24 -19 7 -19 7 -27
-1z"/>
<path d="M3980 2791 c0 -11 31 -24 39 -16 3 3 -1 10 -9 15 -19 12 -30 12 -30
1z"/>
<path d="M4326 2784 c-9 -22 3 -32 14 -14 12 19 12 30 1 30 -5 0 -12 -7 -15
-16z"/>
<path d="M4420 2790 c0 -5 5 -10 10 -10 6 0 10 5 10 10 0 6 -4 10 -10 10 -5 0
-10 -4 -10 -10z"/>
<path d="M4590 2780 c0 -5 5 -10 10 -10 6 0 10 5 10 10 0 6 -4 10 -10 10 -5 0
-10 -4 -10 -10z"/>
<path d="M1920 2770 c0 -5 5 -10 10 -10 6 0 10 5 10 10 0 6 -4 10 -10 10 -5 0
-10 -4 -10 -10z"/>
<path d="M2315 2769 c-4 -6 -5 -12 -2 -15 7 -7 37 7 37 17 0 13 -27 11 -35 -2z"/>
<path d="M2400 2765 c0 -8 5 -15 10 -15 6 0 10 7 10 15 0 8 -4 15 -10 15 -5 0
-10 -7 -10 -15z"/>
<path d="M2501 2764 c-18 -21 -6 -30 14 -11 8 9 15 18 15 21 0 11 -15 5 -29
-10z"/>
<path d="M2540 2770 c0 -5 5 -10 10 -10 6 0 10 5 10 10 0 6 -4 10 -10 10 -5 0
-10 -4 -10 -10z"/>
<path d="M4050 2770 c0 -5 5 -10 10 -10 6 0 10 5 10 10 0 6 -4 10 -10 10 -5 0
-10 -4 -10 -10z"/>
<path d="M4160 2772 c0 -4 12 -13 27 -19 21 -10 28 -10 35 0 13 20 10 23 -27
24 -19 1 -35 -2 -35 -5z"/>
<path d="M4520 2770 c0 -5 5 -10 10 -10 6 0 10 5 10 10 0 6 -4 10 -10 10 -5 0
-10 -4 -10 -10z"/>
<path d="M1810 2760 c0 -5 5 -10 10 -10 6 0 10 5 10 10 0 6 -4 10 -10 10 -5 0
-10 -4 -10 -10z"/>
<path d="M2570 2761 c0 -9 52 -22 60 -15 7 7 -23 24 -42 24 -10 0 -18 -4 -18
-9z"/>
<path d="M3930 2760 c0 -5 5 -10 10 -10 6 0 10 5 10 10 0 6 -4 10 -10 10 -5 0
-10 -4 -10 -10z"/>
<path d="M4460 2750 c-13 -11 -20 -23 -17 -26 3 -4 13 1 22 10 9 9 21 16 26
16 5 0 9 5 9 10 0 16 -15 12 -40 -10z"/>
<path d="M4350 2750 c0 -5 5 -10 10 -10 6 0 10 5 10 10 0 6 -4 10 -10 10 -5 0
-10 -4 -10 -10z"/>
<path d="M4400 2745 c0 -8 5 -15 10 -15 6 0 10 7 10 15 0 8 -4 15 -10 15 -5 0
-10 -7 -10 -15z"/>
<path d="M1950 2740 c0 -5 5 -10 10 -10 6 0 10 5 10 10 0 6 -4 10 -10 10 -5 0
-10 -4 -10 -10z"/>
<path d="M2111 2734 c-7 -8 -10 -18 -6 -22 4 -4 10 -1 12 6 3 6 11 12 19 12 8
0 14 5 14 10 0 15 -23 11 -39 -6z"/>
<path d="M2190 2740 c0 -5 5 -10 10 -10 6 0 10 5 10 10 0 6 -4 10 -10 10 -5 0
-10 -4 -10 -10z"/>
<path d="M2360 2741 c0 -11 31 -24 39 -16 3 3 -1 10 -9 15 -19 12 -30 12 -30
1z"/>
<path d="M3780 2740 c0 -5 5 -10 10 -10 6 0 10 5 10 10 0 6 -4 10 -10 10 -5 0
-10 -4 -10 -10z"/>
<path d="M3980 2740 c0 -5 5 -10 10 -10 6 0 10 5 10 10 0 6 -4 10 -10 10 -5 0
-10 -4 -10 -10z"/>
<path d="M4020 2740 c0 -5 5 -10 10 -10 6 0 10 5 10 10 0 6 -4 10 -10 10 -5 0
-10 -4 -10 -10z"/>
<path d="M4141 2734 c-18 -21 -6 -30 14 -11 8 9 15 18 15 21 0 11 -15 5 -29
-10z"/>
<path d="M1920 2730 c0 -5 5 -10 10 -10 6 0 10 5 10 10 0 6 -4 10 -10 10 -5 0
-10 -4 -10 -10z"/>
<path d="M2280 2730 c0 -5 5 -10 10 -10 6 0 10 5 10 10 0 6 -4 10 -10 10 -5 0
-10 -4 -10 -10z"/>
<path d="M2660 2720 c0 -5 5 -10 10 -10 6 0 10 5 10 10 0 6 -4 10 -10 10 -5 0
-10 -4 -10 -10z"/>
<path d="M3830 2720 c0 -5 5 -10 10 -10 6 0 10 5 10 10 0 6 -4 10 -10 10 -5 0
-10 -4 -10 -10z"/>
<path d="M1790 2700 c0 -5 5 -10 10 -10 6 0 10 5 10 10 0 6 -4 10 -10 10 -5 0
-10 -4 -10 -10z"/>
<path d="M2220 2690 c0 -11 5 -20 10 -20 6 0 10 9 10 20 0 11 -4 20 -10 20 -5
0 -10 -9 -10 -20z"/>
<path d="M2540 2700 c0 -5 5 -10 10 -10 6 0 10 5 10 10 0 6 -4 10 -10 10 -5 0
-10 -4 -10 -10z"/>
<path d="M1960 2690 c0 -5 5 -10 10 -10 6 0 10 5 10 10 0 6 -4 10 -10 10 -5 0
-10 -4 -10 -10z"/>
<path d="M4103 2693 c-15 -6 -17 -43 -3 -43 6 0 10 7 10 15 0 18 17 20 23 3 2
-7 8 -10 12 -6 6 6 -18 39 -27 37 -2 0 -9 -3 -15 -6z"/>
<path d="M4220 2690 c0 -5 5 -10 10 -10 6 0 10 5 10 10 0 6 -4 10 -10 10 -5 0
-10 -4 -10 -10z"/>
<path d="M1910 2680 c0 -5 5 -10 10 -10 6 0 10 5 10 10 0 6 -4 10 -10 10 -5 0
-10 -4 -10 -10z"/>
<path d="M2180 2680 c0 -5 5 -10 10 -10 6 0 10 5 10 10 0 6 -4 10 -10 10 -5 0
-10 -4 -10 -10z"/>
<path d="M2070 2670 c0 -5 5 -10 10 -10 6 0 10 5 10 10 0 6 -4 10 -10 10 -5 0
-10 -4 -10 -10z"/>
<path d="M4030 2670 c0 -5 5 -10 10 -10 6 0 10 5 10 10 0 6 -4 10 -10 10 -5 0
-10 -4 -10 -10z"/>
<path d="M4320 2670 c0 -5 7 -10 15 -10 8 0 15 5 15 10 0 6 -7 10 -15 10 -8 0
-15 -4 -15 -10z"/>
<path d="M2420 2661 c0 -11 31 -24 39 -16 3 3 -1 10 -9 15 -19 12 -30 12 -30
1z"/>
<path d="M2180 2650 c0 -5 5 -10 10 -10 6 0 10 5 10 10 0 6 -4 10 -10 10 -5 0
-10 -4 -10 -10z"/>
<path d="M2310 2570 c0 -5 5 -10 10 -10 6 0 10 5 10 10 0 6 -4 10 -10 10 -5 0
-10 -4 -10 -10z"/>
<path d="M2310 2540 c0 -5 5 -10 10 -10 6 0 10 5 10 10 0 6 -4 10 -10 10 -5 0
-10 -4 -10 -10z"/>
<path d="M4070 2440 c0 -5 5 -10 10 -10 6 0 10 5 10 10 0 6 -4 10 -10 10 -5 0
-10 -4 -10 -10z"/>
<path d="M2860 2190 c0 -5 5 -10 10 -10 6 0 10 5 10 10 0 6 -4 10 -10 10 -5 0
-10 -4 -10 -10z"/>
<path d="M2000 2100 c0 -5 5 -10 10 -10 6 0 10 5 10 10 0 6 -4 10 -10 10 -5 0
-10 -4 -10 -10z"/>
<path d="M2480 2100 c0 -5 5 -10 10 -10 6 0 10 5 10 10 0 6 -4 10 -10 10 -5 0
-10 -4 -10 -10z"/>
<path d="M2120 2070 c0 -5 5 -10 10 -10 6 0 10 5 10 10 0 6 -4 10 -10 10 -5 0
-10 -4 -10 -10z"/>
<path d="M4180 2070 c0 -5 5 -10 10 -10 6 0 10 5 10 10 0 6 -4 10 -10 10 -5 0
-10 -4 -10 -10z"/>
<path d="M2470 2060 c0 -5 5 -10 10 -10 6 0 10 5 10 10 0 6 -4 10 -10 10 -5 0
-10 -4 -10 -10z"/>
<path d="M2380 2050 c0 -5 5 -10 10 -10 6 0 10 5 10 10 0 6 -4 10 -10 10 -5 0
-10 -4 -10 -10z"/>
<path d="M4300 2040 c0 -5 5 -10 10 -10 6 0 10 5 10 10 0 6 -4 10 -10 10 -5 0
-10 -4 -10 -10z"/>
<path d="M2390 2024 c0 -10 31 -36 37 -31 3 3 -2 13 -10 22 -16 15 -27 19 -27
9z"/>
<path d="M3955 2009 c-4 -6 -5 -13 -2 -16 7 -7 27 6 27 18 0 12 -17 12 -25 -2z"/>
<path d="M4050 2010 c0 -5 5 -10 10 -10 6 0 10 5 10 10 0 6 -4 10 -10 10 -5 0
-10 -4 -10 -10z"/>
<path d="M4330 2010 c0 -5 5 -10 10 -10 6 0 10 5 10 10 0 6 -4 10 -10 10 -5 0
-10 -4 -10 -10z"/>
<path d="M4370 2005 c0 -8 5 -15 10 -15 6 0 10 7 10 15 0 8 -4 15 -10 15 -5 0
-10 -7 -10 -15z"/>
<path d="M4570 2010 c0 -5 5 -10 10 -10 6 0 10 5 10 10 0 6 -4 10 -10 10 -5 0
-10 -4 -10 -10z"/>
<path d="M4120 2000 c0 -5 5 -10 10 -10 6 0 10 5 10 10 0 6 -4 10 -10 10 -5 0
-10 -4 -10 -10z"/>
<path d="M4466 1994 c-9 -22 3 -32 14 -14 12 19 12 30 1 30 -5 0 -12 -7 -15
-16z"/>
<path d="M2070 1990 c0 -5 5 -10 10 -10 6 0 10 5 10 10 0 6 -4 10 -10 10 -5 0
-10 -4 -10 -10z"/>
<path d="M4022 1989 c2 -7 10 -15 17 -17 8 -3 12 1 9 9 -2 7 -10 15 -17 17 -8
3 -12 -1 -9 -9z"/>
<path d="M4536 1984 c-9 -22 3 -32 14 -14 12 19 12 30 1 30 -5 0 -12 -7 -15
-16z"/>
<path d="M4620 1990 c0 -5 5 -10 10 -10 6 0 10 5 10 10 0 6 -4 10 -10 10 -5 0
-10 -4 -10 -10z"/>
<path d="M2392 1979 c2 -7 10 -15 17 -17 8 -3 12 1 9 9 -2 7 -10 15 -17 17 -8
3 -12 -1 -9 -9z"/>
<path d="M4250 1980 c0 -5 5 -10 10 -10 6 0 10 5 10 10 0 6 -4 10 -10 10 -5 0
-10 -4 -10 -10z"/>
<path d="M2290 1970 c0 -5 -9 -10 -20 -10 -11 0 -20 -4 -20 -10 0 -5 9 -10 20
-10 11 0 20 -4 20 -10 0 -5 5 -10 10 -10 6 0 10 6 10 14 0 8 6 17 13 19 9 4 8
8 -3 16 -19 13 -30 14 -30 1z"/>
<path d="M2730 1970 c0 -5 5 -10 10 -10 6 0 10 5 10 10 0 6 -4 10 -10 10 -5 0
-10 -4 -10 -10z"/>
<path d="M3920 1970 c0 -5 5 -10 10 -10 6 0 10 5 10 10 0 6 -4 10 -10 10 -5 0
-10 -4 -10 -10z"/>
<path d="M4135 1969 c-4 -6 -5 -13 -2 -16 7 -7 27 6 27 18 0 12 -17 12 -25 -2z"/>
<path d="M4310 1970 c0 -5 5 -10 10 -10 6 0 10 5 10 10 0 6 -4 10 -10 10 -5 0
-10 -4 -10 -10z"/>
<path d="M2100 1960 c0 -5 5 -10 10 -10 6 0 10 5 10 10 0 6 -4 10 -10 10 -5 0
-10 -4 -10 -10z"/>
<path d="M2590 1959 c0 -6 -9 -8 -20 -4 -23 7 -27 -10 -4 -19 8 -3 22 0 30 8
16 17 18 26 4 26 -5 0 -10 -5 -10 -11z"/>
<path d="M3660 1960 c0 -5 5 -10 10 -10 6 0 10 5 10 10 0 6 -4 10 -10 10 -5 0
-10 -4 -10 -10z"/>
<path d="M4420 1950 c0 -5 5 -10 10 -10 6 0 10 5 10 10 0 6 -4 10 -10 10 -5 0
-10 -4 -10 -10z"/>
<path d="M2380 1940 c0 -5 5 -10 10 -10 6 0 10 5 10 10 0 6 -4 10 -10 10 -5 0
-10 -4 -10 -10z"/>
<path d="M2720 1940 c0 -5 5 -10 10 -10 6 0 10 5 10 10 0 6 -4 10 -10 10 -5 0
-10 -4 -10 -10z"/>
<path d="M2150 1930 c0 -5 5 -10 10 -10 6 0 10 5 10 10 0 6 -4 10 -10 10 -5 0
-10 -4 -10 -10z"/>
<path d="M2196 1924 c-9 -24 -8 -26 17 -18 31 9 34 14 17 24 -21 13 -27 12
-34 -6z"/>
<path d="M2430 1930 c0 -5 5 -10 10 -10 6 0 10 5 10 10 0 6 -4 10 -10 10 -5 0
-10 -4 -10 -10z"/>
<path d="M3971 1924 c-18 -21 -6 -30 14 -11 8 9 15 18 15 21 0 11 -15 5 -29
-10z"/>
<path d="M4040 1930 c0 -5 5 -10 10 -10 6 0 10 5 10 10 0 6 -4 10 -10 10 -5 0
-10 -4 -10 -10z"/>
<path d="M4140 1933 c0 -14 19 -38 25 -32 8 8 -5 39 -16 39 -5 0 -9 -3 -9 -7z"/>
<path d="M2020 1920 c0 -5 5 -10 10 -10 6 0 10 5 10 10 0 6 -4 10 -10 10 -5 0
-10 -4 -10 -10z"/>
<path d="M2315 1905 c-11 -14 -26 -25 -32 -25 -7 0 -13 -3 -13 -7 0 -12 18
-38 23 -33 2 3 11 16 20 30 9 13 17 19 17 12 0 -6 4 -12 8 -12 5 0 9 14 9 30
0 36 -6 37 -32 5z"/>
<path d="M4110 1920 c0 -5 5 -10 10 -10 6 0 10 5 10 10 0 6 -4 10 -10 10 -5 0
-10 -4 -10 -10z"/>
<path d="M4196 1914 c-9 -22 -8 -24 9 -24 8 0 15 9 15 20 0 24 -15 27 -24 4z"/>
<path d="M2070 1910 c0 -5 5 -10 10 -10 6 0 10 -7 10 -15 0 -8 5 -15 10 -15
15 0 12 19 -4 36 -17 16 -26 18 -26 4z"/>
<path d="M3930 1910 c0 -5 5 -10 10 -10 6 0 10 5 10 10 0 6 -4 10 -10 10 -5 0
-10 -4 -10 -10z"/>
<path d="M4360 1910 c0 -5 5 -10 10 -10 6 0 10 5 10 10 0 6 -4 10 -10 10 -5 0
-10 -4 -10 -10z"/>
<path d="M1610 1900 c0 -5 5 -10 10 -10 6 0 10 5 10 10 0 6 -4 10 -10 10 -5 0
-10 -4 -10 -10z"/>
<path d="M2130 1900 c0 -5 7 -10 15 -10 8 0 15 5 15 10 0 6 -7 10 -15 10 -8 0
-15 -4 -15 -10z"/>
<path d="M3870 1900 c0 -5 5 -10 10 -10 6 0 10 5 10 10 0 6 -4 10 -10 10 -5 0
-10 -4 -10 -10z"/>
<path d="M1810 1890 c0 -5 5 -10 10 -10 6 0 10 5 10 10 0 6 -4 10 -10 10 -5 0
-10 -4 -10 -10z"/>
<path d="M2500 1890 c0 -5 5 -10 10 -10 6 0 10 5 10 10 0 6 -4 10 -10 10 -5 0
-10 -4 -10 -10z"/>
<path d="M2650 1890 c0 -5 5 -10 10 -10 6 0 10 5 10 10 0 6 -4 10 -10 10 -5 0
-10 -4 -10 -10z"/>
<path d="M2760 1890 c0 -5 5 -10 10 -10 6 0 10 5 10 10 0 6 -4 10 -10 10 -5 0
-10 -4 -10 -10z"/>
<path d="M3990 1890 c0 -5 5 -10 10 -10 6 0 10 5 10 10 0 6 -4 10 -10 10 -5 0
-10 -4 -10 -10z"/>
<path d="M4236 1885 c-6 -17 2 -45 13 -45 4 0 8 14 8 30 0 32 -11 40 -21 15z"/>
<path d="M4430 1890 c0 -5 5 -10 10 -10 6 0 10 5 10 10 0 6 -4 10 -10 10 -5 0
-10 -4 -10 -10z"/>
<path d="M2240 1875 c0 -8 5 -15 10 -15 6 0 10 7 10 15 0 8 -4 15 -10 15 -5 0
-10 -7 -10 -15z"/>
<path d="M2360 1883 c0 -14 19 -38 25 -32 8 8 -5 39 -16 39 -5 0 -9 -3 -9 -7z"/>
<path d="M2540 1880 c0 -5 9 -10 20 -10 11 0 20 5 20 10 0 6 -9 10 -20 10 -11
0 -20 -4 -20 -10z"/>
<path d="M2600 1880 c0 -5 5 -10 10 -10 6 0 10 5 10 10 0 6 -4 10 -10 10 -5 0
-10 -4 -10 -10z"/>
<path d="M3820 1880 c-8 -5 -23 -7 -32 -4 -22 7 -24 -12 -3 -20 17 -6 65 13
65 26 0 11 -11 10 -30 -2z"/>
<path d="M4150 1880 c0 -5 5 -10 10 -10 6 0 10 5 10 10 0 6 -4 10 -10 10 -5 0
-10 -4 -10 -10z"/>
<path d="M4290 1880 c0 -5 5 -10 10 -10 6 0 10 5 10 10 0 6 -4 10 -10 10 -5 0
-10 -4 -10 -10z"/>
<path d="M4380 1880 c0 -5 9 -10 20 -10 11 0 20 5 20 10 0 6 -9 10 -20 10 -11
0 -20 -4 -20 -10z"/>
<path d="M2163 1873 c-23 -9 -14 -20 17 -20 32 0 40 11 14 21 -9 3 -16 6 -17
5 -1 0 -8 -3 -14 -6z"/>
<path d="M2400 1870 c0 -5 5 -10 10 -10 6 0 10 5 10 10 0 6 -4 10 -10 10 -5 0
-10 -4 -10 -10z"/>
<path d="M3740 1870 c0 -5 5 -10 10 -10 6 0 10 5 10 10 0 6 -4 10 -10 10 -5 0
-10 -4 -10 -10z"/>
<path d="M3950 1870 c0 -5 5 -10 10 -10 6 0 10 5 10 10 0 6 -4 10 -10 10 -5 0
-10 -4 -10 -10z"/>
<path d="M4070 1870 c0 -5 5 -10 10 -10 6 0 10 5 10 10 0 6 -4 10 -10 10 -5 0
-10 -4 -10 -10z"/>
<path d="M4180 1865 c-14 -7 -40 -12 -57 -9 -18 2 -33 0 -33 -5 0 -12 21 -19
50 -16 14 1 37 3 53 4 20 1 27 6 27 21 0 23 -6 24 -40 5z"/>
<path d="M4600 1870 c0 -5 5 -10 10 -10 6 0 10 5 10 10 0 6 -4 10 -10 10 -5 0
-10 -4 -10 -10z"/>
<path d="M2450 1860 c0 -5 5 -10 10 -10 6 0 10 5 10 10 0 6 -4 10 -10 10 -5 0
-10 -4 -10 -10z"/>
<path d="M3910 1860 c0 -5 5 -10 10 -10 6 0 10 5 10 10 0 6 -4 10 -10 10 -5 0
-10 -4 -10 -10z"/>
<path d="M3980 1860 c0 -5 -9 -10 -19 -10 -10 0 -21 -7 -25 -15 -3 -8 -12 -12
-21 -9 -10 4 -15 0 -15 -15 0 -26 14 -27 40 -1 11 11 25 20 30 20 6 0 10 5 10
11 0 6 9 8 20 4 24 -7 27 10 4 19 -21 8 -24 8 -24 -4z"/>
<path d="M4480 1860 c0 -5 5 -10 10 -10 6 0 10 5 10 10 0 6 -4 10 -10 10 -5 0
-10 -4 -10 -10z"/>
<path d="M2040 1850 c0 -5 5 -10 10 -10 6 0 10 5 10 10 0 6 -4 10 -10 10 -5 0
-10 -4 -10 -10z"/>
<path d="M2120 1840 c0 -11 5 -20 10 -20 6 0 10 9 10 20 0 11 -4 20 -10 20 -5
0 -10 -9 -10 -20z"/>
<path d="M4326 1853 c-4 -4 -15 -8 -24 -8 -11 0 -17 -9 -19 -27 -1 -16 2 -28
8 -28 5 0 9 5 9 12 0 6 6 3 14 -7 14 -19 11 -55 -5 -55 -5 0 -9 -9 -9 -20 0
-12 7 -20 16 -20 10 0 14 6 10 15 -3 8 -2 15 3 15 16 0 20 54 5 71 -22 25 -17
30 21 23 29 -5 35 -3 35 11 0 11 -5 15 -15 12 -8 -4 -17 -2 -20 3 -7 12 -19
13 -29 3z"/>
<path d="M1950 1840 c0 -5 5 -10 10 -10 6 0 10 5 10 10 0 6 -4 10 -10 10 -5 0
-10 -4 -10 -10z"/>
<path d="M2476 1841 c-8 -12 3 -41 15 -41 5 0 9 8 9 18 0 14 2 15 10 2 11 -18
25 -7 17 15 -7 16 -42 21 -51 6z"/>
<path d="M3820 1840 c-8 -5 -12 -12 -9 -15 8 -8 39 5 39 16 0 11 -11 11 -30
-1z"/>
<path d="M4060 1840 c0 -5 5 -10 10 -10 6 0 10 5 10 10 0 6 -4 10 -10 10 -5 0
-10 -4 -10 -10z"/>
<path d="M1977 1833 c-12 -11 -8 -23 8 -23 8 0 15 7 15 15 0 16 -12 20 -23 8z"/>
<path d="M2170 1831 c0 -3 16 -19 34 -35 22 -19 32 -35 29 -47 -9 -32 13 -21
33 16 10 19 22 35 26 35 5 0 8 5 8 10 0 6 -7 10 -15 10 -8 0 -15 5 -15 10 0 6
-5 10 -10 10 -6 0 -8 -10 -4 -24 6 -24 -10 -44 -21 -26 -3 5 -1 10 4 10 6 0
11 5 11 11 0 6 -7 9 -15 5 -9 -3 -15 0 -15 8 0 8 -11 14 -25 14 -14 0 -25 -3
-25 -7z"/>
<path d="M2340 1830 c0 -6 9 -18 21 -28 11 -9 30 -25 41 -34 23 -20 38 -23 38
-9 0 5 -9 12 -19 16 -11 3 -24 19 -30 35 -7 20 -17 30 -30 30 -12 0 -21 -5
-21 -10z"/>
<path d="M2430 1825 c-7 -9 -11 -18 -8 -20 9 -10 38 7 38 21 0 18 -14 18 -30
-1z"/>
<path d="M2650 1830 c0 -5 5 -10 10 -10 6 0 10 5 10 10 0 6 -4 10 -10 10 -5 0
-10 -4 -10 -10z"/>
<path d="M4692 1829 c2 -7 10 -15 17 -17 8 -3 12 1 9 9 -2 7 -10 15 -17 17 -8
3 -12 -1 -9 -9z"/>
<path d="M2310 1820 c0 -5 5 -10 10 -10 6 0 10 5 10 10 0 6 -4 10 -10 10 -5 0
-10 -4 -10 -10z"/>
<path d="M4170 1820 c0 -6 7 -13 15 -17 14 -5 14 -8 -1 -24 -22 -24 -13 -35
14 -18 25 16 36 50 19 61 -17 11 -47 10 -47 -2z"/>
<path d="M3730 1810 c0 -5 5 -10 10 -10 6 0 10 5 10 10 0 6 -4 10 -10 10 -5 0
-10 -4 -10 -10z"/>
<path d="M4000 1810 c0 -6 11 -16 25 -22 14 -6 25 -15 25 -21 0 -5 15 -7 34
-5 29 3 37 0 45 -20 6 -12 11 -29 11 -37 0 -8 5 -15 10 -15 6 0 10 -7 10 -15
0 -8 5 -15 10 -15 6 0 10 9 10 20 0 11 -4 20 -10 20 -5 0 -10 11 -10 24 0 13
-6 27 -12 29 -10 4 -10 6 0 6 6 1 12 6 12 12 0 6 -7 9 -15 5 -8 -3 -15 -1 -15
5 0 6 -7 9 -15 5 -8 -3 -15 -2 -15 2 0 4 -4 13 -9 20 -7 12 -12 12 -29 1 -17
-11 -24 -11 -34 -1 -15 15 -28 16 -28 2z"/>
<path d="M4250 1810 c0 -5 5 -10 10 -10 6 0 10 5 10 10 0 6 -4 10 -10 10 -5 0
-10 -4 -10 -10z"/>
<path d="M2076 1794 c-9 -22 3 -32 14 -14 12 19 12 30 1 30 -5 0 -12 -7 -15
-16z"/>
<path d="M2112 1799 c2 -7 10 -15 17 -17 8 -3 12 1 9 9 -2 7 -10 15 -17 17 -8
3 -12 -1 -9 -9z"/>
<path d="M2160 1800 c0 -5 5 -10 10 -10 6 0 10 5 10 10 0 6 -4 10 -10 10 -5 0
-10 -4 -10 -10z"/>
<path d="M4540 1795 c0 -8 5 -15 10 -15 6 0 10 7 10 15 0 8 -4 15 -10 15 -5 0
-10 -7 -10 -15z"/>
<path d="M2020 1790 c0 -5 4 -10 9 -10 5 0 7 -9 4 -20 -3 -11 -1 -20 5 -20 11
0 24 39 16 52 -7 11 -34 10 -34 -2z"/>
<path d="M2304 1785 c3 -8 1 -15 -4 -15 -15 0 -12 -17 4 -23 18 -7 56 3 56 14
0 5 -6 9 -14 9 -8 0 -16 7 -20 15 -3 8 -10 15 -17 15 -6 0 -9 -7 -5 -15z"/>
<path d="M2600 1790 c0 -5 5 -10 10 -10 6 0 10 5 10 10 0 6 -4 10 -10 10 -5 0
-10 -4 -10 -10z"/>
<path d="M2660 1790 c0 -5 5 -10 10 -10 6 0 10 5 10 10 0 6 -4 10 -10 10 -5 0
-10 -4 -10 -10z"/>
<path d="M3790 1790 c0 -5 5 -10 10 -10 6 0 10 5 10 10 0 6 -4 10 -10 10 -5 0
-10 -4 -10 -10z"/>
<path d="M3970 1790 c0 -5 7 -10 15 -10 8 0 15 5 15 10 0 6 -7 10 -15 10 -8 0
-15 -4 -15 -10z"/>
<path d="M4360 1790 c0 -5 5 -10 10 -10 6 0 10 5 10 10 0 6 -4 10 -10 10 -5 0
-10 -4 -10 -10z"/>
<path d="M4400 1790 c0 -5 5 -10 10 -10 6 0 10 5 10 10 0 6 -4 10 -10 10 -5 0
-10 -4 -10 -10z"/>
<path d="M2840 1780 c0 -5 5 -10 10 -10 6 0 10 5 10 10 0 6 -4 10 -10 10 -5 0
-10 -4 -10 -10z"/>
<path d="M4260 1780 c0 -5 5 -10 10 -10 6 0 10 5 10 10 0 6 -4 10 -10 10 -5 0
-10 -4 -10 -10z"/>
<path d="M4430 1780 c0 -5 5 -10 10 -10 6 0 10 5 10 10 0 6 -4 10 -10 10 -5 0
-10 -4 -10 -10z"/>
<path d="M4460 1780 c0 -5 5 -10 10 -10 6 0 10 5 10 10 0 6 -4 10 -10 10 -5 0
-10 -4 -10 -10z"/>
<path d="M1970 1770 c0 -5 5 -10 10 -10 6 0 10 5 10 10 0 6 -4 10 -10 10 -5 0
-10 -4 -10 -10z"/>
<path d="M2149 1767 c-7 -7 -26 -11 -46 -9 -20 3 -33 0 -33 -7 0 -6 13 -11 29
-11 42 0 67 -28 62 -67 -2 -14 36 -17 63 -7 25 10 19 25 -7 19 -18 -5 -26 -1
-35 20 -15 33 -15 42 0 27 15 -15 28 -16 28 -2 0 10 -36 50 -45 50 -2 0 -10
-6 -16 -13z"/>
<path d="M2470 1770 c0 -5 5 -10 10 -10 6 0 10 5 10 10 0 6 -4 10 -10 10 -5 0
-10 -4 -10 -10z"/>
<path d="M3940 1770 c0 -5 5 -10 10 -10 6 0 10 5 10 10 0 6 -4 10 -10 10 -5 0
-10 -4 -10 -10z"/>
<path d="M4510 1770 c0 -5 5 -10 10 -10 6 0 10 5 10 10 0 6 -4 10 -10 10 -5 0
-10 -4 -10 -10z"/>
<path d="M1890 1760 c0 -5 5 -10 10 -10 6 0 10 5 10 10 0 6 -4 10 -10 10 -5 0
-10 -4 -10 -10z"/>
<path d="M4390 1760 c0 -5 5 -10 10 -10 6 0 10 5 10 10 0 6 -4 10 -10 10 -5 0
-10 -4 -10 -10z"/>
<path d="M4570 1763 c0 -14 19 -38 25 -32 8 8 -5 39 -16 39 -5 0 -9 -3 -9 -7z"/>
<path d="M2370 1750 c0 -5 5 -10 10 -10 6 0 10 5 10 10 0 6 -4 10 -10 10 -5 0
-10 -4 -10 -10z"/>
<path d="M2590 1750 c0 -5 5 -10 10 -10 6 0 10 5 10 10 0 6 -4 10 -10 10 -5 0
-10 -4 -10 -10z"/>
<path d="M4000 1750 c0 -5 10 -10 23 -11 l22 0 -22 -9 c-13 -5 -23 -14 -23
-21 0 -6 7 -9 15 -5 9 3 15 0 15 -9 0 -19 8 -19 26 -1 22 22 17 53 -8 60 -33
8 -48 7 -48 -4z"/>
<path d="M4220 1750 c0 -5 5 -10 10 -10 6 0 10 5 10 10 0 6 -4 10 -10 10 -5 0
-10 -4 -10 -10z"/>
<path d="M2000 1740 c0 -5 5 -10 10 -10 6 0 10 5 10 10 0 6 -4 10 -10 10 -5 0
-10 -4 -10 -10z"/>
<path d="M2387 1730 c-19 -22 -23 -50 -7 -50 6 0 10 -7 10 -15 0 -8 5 -15 10
-15 6 0 10 8 10 18 0 19 27 46 48 48 27 2 32 4 32 13 0 6 -8 9 -17 9 -10 -1
-29 1 -44 5 -18 5 -30 1 -42 -13z"/>
<path d="M2820 1740 c0 -5 5 -10 10 -10 6 0 10 5 10 10 0 6 -4 10 -10 10 -5 0
-10 -4 -10 -10z"/>
<path d="M3800 1740 c0 -5 5 -10 10 -10 6 0 10 5 10 10 0 6 -4 10 -10 10 -5 0
-10 -4 -10 -10z"/>
<path d="M3916 1734 c-9 -22 3 -32 14 -14 12 19 12 30 1 30 -5 0 -12 -7 -15
-16z"/>
<path d="M1800 1730 c0 -5 9 -10 20 -10 11 0 20 5 20 10 0 6 -9 10 -20 10 -11
0 -20 -4 -20 -10z"/>
<path d="M2270 1735 c0 -3 11 -17 25 -30 29 -30 35 -31 35 -5 0 13 -7 20 -20
20 -11 0 -20 5 -20 10 0 6 -4 10 -10 10 -5 0 -10 -2 -10 -5z"/>
<path d="M2340 1730 c0 -5 5 -10 10 -10 6 0 10 5 10 10 0 6 -4 10 -10 10 -5 0
-10 -4 -10 -10z"/>
<path d="M2530 1730 c0 -5 5 -10 10 -10 6 0 10 5 10 10 0 6 -4 10 -10 10 -5 0
-10 -4 -10 -10z"/>
<path d="M3710 1730 c0 -5 5 -10 10 -10 6 0 10 5 10 10 0 6 -4 10 -10 10 -5 0
-10 -4 -10 -10z"/>
<path d="M4170 1735 c0 -3 9 -16 20 -27 11 -12 16 -24 12 -27 -5 -3 -12 -18
-16 -33 -5 -24 -3 -28 15 -28 16 0 20 5 16 19 -6 23 22 38 34 19 14 -23 18 -3
6 35 -7 22 -17 35 -24 33 -7 -3 -15 -1 -18 4 -6 10 -45 14 -45 5z"/>
<path d="M4520 1730 c0 -5 5 -10 10 -10 6 0 10 5 10 10 0 6 -4 10 -10 10 -5 0
-10 -4 -10 -10z"/>
<path d="M1970 1720 c0 -5 5 -10 10 -10 6 0 10 5 10 10 0 6 -4 10 -10 10 -5 0
-10 -4 -10 -10z"/>
<path d="M2040 1720 c0 -5 5 -10 10 -10 6 0 10 5 10 10 0 6 -4 10 -10 10 -5 0
-10 -4 -10 -10z"/>
<path d="M2077 1724 c-13 -13 -7 -23 16 -27 l22 -4 -22 -8 c-13 -4 -23 -12
-23 -17 0 -5 10 -8 23 -7 12 2 28 0 35 -5 7 -4 16 -5 19 -2 7 7 -17 66 -27 66
-5 0 -15 2 -22 5 -8 3 -17 2 -21 -1z"/>
<path d="M3580 1715 c0 -8 5 -15 10 -15 6 0 10 7 10 15 0 8 -4 15 -10 15 -5 0
-10 -7 -10 -15z"/>
<path d="M3850 1720 c0 -5 5 -10 10 -10 6 0 10 5 10 10 0 6 -4 10 -10 10 -5 0
-10 -4 -10 -10z"/>
<path d="M3970 1720 c0 -5 5 -10 10 -10 6 0 10 5 10 10 0 6 -4 10 -10 10 -5 0
-10 -4 -10 -10z"/>
<path d="M4100 1720 c0 -5 5 -10 10 -10 6 0 10 5 10 10 0 6 -4 10 -10 10 -5 0
-10 -4 -10 -10z"/>
<path d="M4340 1721 c0 -11 31 -24 39 -16 3 3 -1 10 -9 15 -19 12 -30 12 -30
1z"/>
<path d="M4550 1720 c0 -5 5 -10 10 -10 6 0 10 5 10 10 0 6 -4 10 -10 10 -5 0
-10 -4 -10 -10z"/>
<path d="M2220 1710 c0 -5 5 -10 10 -10 6 0 10 5 10 10 0 6 -4 10 -10 10 -5 0
-10 -4 -10 -10z"/>
<path d="M4260 1710 c0 -5 5 -10 10 -10 6 0 10 5 10 10 0 6 -4 10 -10 10 -5 0
-10 -4 -10 -10z"/>
<path d="M4690 1710 c0 -5 5 -10 10 -10 6 0 10 5 10 10 0 6 -4 10 -10 10 -5 0
-10 -4 -10 -10z"/>
<path d="M2250 1700 c0 -5 5 -10 10 -10 6 0 10 5 10 10 0 6 -4 10 -10 10 -5 0
-10 -4 -10 -10z"/>
<path d="M2500 1700 c0 -5 5 -10 10 -10 6 0 10 5 10 10 0 6 -4 10 -10 10 -5 0
-10 -4 -10 -10z"/>
<path d="M2530 1700 c0 -5 9 -10 20 -10 11 0 20 5 20 10 0 6 -9 10 -20 10 -11
0 -20 -4 -20 -10z"/>
<path d="M2650 1704 c0 -10 31 -36 37 -31 3 3 -2 13 -10 22 -16 15 -27 19 -27
9z"/>
<path d="M3880 1700 c0 -5 5 -10 10 -10 6 0 10 5 10 10 0 6 -4 10 -10 10 -5 0
-10 -4 -10 -10z"/>
<path d="M1900 1690 c-8 -5 -11 -12 -8 -15 9 -9 68 5 68 16 0 12 -41 11 -60
-1z"/>
<path d="M1970 1693 c1 -12 26 -43 35 -43 4 0 5 7 1 15 -3 8 -1 15 4 15 6 0
10 5 10 10 0 6 -11 10 -25 10 -14 0 -25 -3 -25 -7z"/>
<path d="M3950 1690 c0 -5 5 -10 10 -10 6 0 10 5 10 10 0 6 -4 10 -10 10 -5 0
-10 -4 -10 -10z"/>
<path d="M4080 1680 c0 -11 5 -20 10 -20 6 0 10 9 10 20 0 11 -4 20 -10 20 -5
0 -10 -9 -10 -20z"/>
<path d="M2790 1680 c0 -5 5 -10 10 -10 6 0 10 5 10 10 0 6 -4 10 -10 10 -5 0
-10 -4 -10 -10z"/>
<path d="M3910 1680 c0 -5 5 -10 10 -10 6 0 10 5 10 10 0 6 -4 10 -10 10 -5 0
-10 -4 -10 -10z"/>
<path d="M2580 1670 c0 -5 5 -10 10 -10 6 0 10 5 10 10 0 6 -4 10 -10 10 -5 0
-10 -4 -10 -10z"/>
<path d="M2622 1669 c2 -7 10 -15 17 -17 8 -3 12 1 9 9 -2 7 -10 15 -17 17 -8
3 -12 -1 -9 -9z"/>
<path d="M4360 1670 c-8 -5 -12 -12 -9 -15 8 -8 39 5 39 16 0 11 -11 11 -30
-1z"/>
<path d="M4580 1670 c0 -5 5 -10 10 -10 6 0 10 5 10 10 0 6 -4 10 -10 10 -5 0
-10 -4 -10 -10z"/>
<path d="M2290 1660 c-8 -5 -12 -12 -9 -15 8 -8 39 5 39 16 0 11 -11 11 -30
-1z"/>
<path d="M2520 1650 c0 -11 5 -20 10 -20 6 0 10 9 10 20 0 11 -4 20 -10 20 -5
0 -10 -9 -10 -20z"/>
<path d="M4010 1660 c0 -5 5 -10 10 -10 6 0 10 5 10 10 0 6 -4 10 -10 10 -5 0
-10 -4 -10 -10z"/>
<path d="M2700 1650 c0 -5 5 -10 10 -10 6 0 10 5 10 10 0 6 -4 10 -10 10 -5 0
-10 -4 -10 -10z"/>
<path d="M3982 1649 c2 -7 10 -15 17 -17 8 -3 12 1 9 9 -2 7 -10 15 -17 17 -8
3 -12 -1 -9 -9z"/>
<path d="M4316 1634 c-6 -24 -2 -43 8 -33 11 10 17 59 8 59 -5 0 -13 -12 -16
-26z"/>
<path d="M2194 1635 c-4 -10 -13 -13 -27 -9 -16 5 -19 3 -14 -11 4 -9 7 -19 7
-21 0 -2 6 -4 14 -4 12 0 46 40 46 55 0 12 -21 4 -26 -10z"/>
<path d="M4140 1640 c0 -5 5 -10 10 -10 6 0 10 5 10 10 0 6 -4 10 -10 10 -5 0
-10 -4 -10 -10z"/>
<path d="M4290 1640 c0 -5 5 -10 10 -10 6 0 10 5 10 10 0 6 -4 10 -10 10 -5 0
-10 -4 -10 -10z"/>
<path d="M4440 1640 c0 -5 5 -10 10 -10 6 0 10 5 10 10 0 6 -4 10 -10 10 -5 0
-10 -4 -10 -10z"/>
<path d="M4530 1640 c0 -5 5 -10 10 -10 6 0 10 5 10 10 0 6 -4 10 -10 10 -5 0
-10 -4 -10 -10z"/>
<path d="M2610 1630 c0 -5 5 -10 10 -10 6 0 10 5 10 10 0 6 -4 10 -10 10 -5 0
-10 -4 -10 -10z"/>
<path d="M4050 1630 c0 -5 5 -10 10 -10 6 0 10 5 10 10 0 6 -4 10 -10 10 -5 0
-10 -4 -10 -10z"/>
<path d="M4090 1620 c0 -11 5 -20 10 -20 6 0 10 9 10 20 0 11 -4 20 -10 20 -5
0 -10 -9 -10 -20z"/>
<path d="M4240 1630 c0 -5 5 -10 10 -10 6 0 10 5 10 10 0 6 -4 10 -10 10 -5 0
-10 -4 -10 -10z"/>
<path d="M4360 1630 c0 -5 5 -10 10 -10 6 0 10 5 10 10 0 6 -4 10 -10 10 -5 0
-10 -4 -10 -10z"/>
<path d="M2230 1620 c0 -5 5 -10 10 -10 6 0 10 5 10 10 0 6 -4 10 -10 10 -5 0
-10 -4 -10 -10z"/>
<path d="M2275 1619 c-4 -6 -5 -13 -2 -16 7 -7 27 6 27 18 0 12 -17 12 -25 -2z"/>
<path d="M2320 1620 c0 -5 5 -10 10 -10 6 0 10 5 10 10 0 6 -4 10 -10 10 -5 0
-10 -4 -10 -10z"/>
<path d="M2420 1624 c0 -10 31 -36 37 -31 3 3 -2 13 -10 22 -16 15 -27 19 -27
9z"/>
<path d="M2570 1620 c0 -5 5 -10 10 -10 6 0 10 5 10 10 0 6 -4 10 -10 10 -5 0
-10 -4 -10 -10z"/>
<path d="M2643 1615 c-8 -22 6 -33 17 -15 13 20 12 30 0 30 -6 0 -13 -7 -17
-15z"/>
<path d="M4490 1610 c0 -11 5 -20 10 -20 6 0 10 9 10 20 0 11 -4 20 -10 20 -5
0 -10 -9 -10 -20z"/>
<path d="M3840 1610 c0 -5 9 -10 20 -10 11 0 20 5 20 10 0 6 -9 10 -20 10 -11
0 -20 -4 -20 -10z"/>
<path d="M3980 1613 c0 -14 19 -38 25 -32 8 8 -5 39 -16 39 -5 0 -9 -3 -9 -7z"/>
<path d="M4410 1610 c0 -5 5 -10 10 -10 6 0 10 5 10 10 0 6 -4 10 -10 10 -5 0
-10 -4 -10 -10z"/>
<path d="M4550 1610 c0 -5 5 -10 10 -10 6 0 10 5 10 10 0 6 -4 10 -10 10 -5 0
-10 -4 -10 -10z"/>
<path d="M1950 1600 c0 -5 5 -10 10 -10 6 0 10 5 10 10 0 6 -4 10 -10 10 -5 0
-10 -4 -10 -10z"/>
<path d="M2080 1600 c0 -5 5 -10 10 -10 6 0 10 5 10 10 0 6 -4 10 -10 10 -5 0
-10 -4 -10 -10z"/>
<path d="M3920 1600 c0 -5 9 -10 20 -10 11 0 20 5 20 10 0 6 -9 10 -20 10 -11
0 -20 -4 -20 -10z"/>
<path d="M4060 1595 c0 -8 5 -15 10 -15 6 0 10 7 10 15 0 8 -4 15 -10 15 -5 0
-10 -7 -10 -15z"/>
<path d="M2320 1590 c0 -5 5 -10 10 -10 6 0 10 5 10 10 0 6 -4 10 -10 10 -5 0
-10 -4 -10 -10z"/>
<path d="M2570 1590 c0 -5 5 -10 10 -10 6 0 10 5 10 10 0 6 -4 10 -10 10 -5 0
-10 -4 -10 -10z"/>
<path d="M2610 1590 c0 -5 5 -10 10 -10 6 0 10 5 10 10 0 6 -4 10 -10 10 -5 0
-10 -4 -10 -10z"/>
<path d="M2760 1590 c0 -5 5 -10 10 -10 6 0 10 5 10 10 0 6 -4 10 -10 10 -5 0
-10 -4 -10 -10z"/>
<path d="M4190 1590 c0 -5 5 -10 10 -10 6 0 10 5 10 10 0 6 -4 10 -10 10 -5 0
-10 -4 -10 -10z"/>
<path d="M4220 1590 c0 -5 5 -10 10 -10 6 0 10 5 10 10 0 6 -4 10 -10 10 -5 0
-10 -4 -10 -10z"/>
<path d="M4090 1580 c0 -5 5 -10 10 -10 6 0 10 5 10 10 0 6 -4 10 -10 10 -5 0
-10 -4 -10 -10z"/>
<path d="M4245 1565 c-26 -27 -32 -45 -16 -45 5 0 12 9 16 19 3 11 15 23 26
26 10 4 19 11 19 16 0 16 -18 10 -45 -16z"/>
<path d="M1930 1560 c0 -5 5 -10 10 -10 6 0 10 5 10 10 0 6 -4 10 -10 10 -5 0
-10 -4 -10 -10z"/>
<path d="M2260 1560 c0 -5 5 -10 10 -10 6 0 10 5 10 10 0 6 -4 10 -10 10 -5 0
-10 -4 -10 -10z"/>
<path d="M4390 1560 c0 -5 5 -10 10 -10 6 0 10 5 10 10 0 6 -4 10 -10 10 -5 0
-10 -4 -10 -10z"/>
<path d="M4500 1560 c0 -5 5 -10 10 -10 6 0 10 5 10 10 0 6 -4 10 -10 10 -5 0
-10 -4 -10 -10z"/>
<path d="M2156 1544 c-9 -22 3 -32 14 -14 12 19 12 30 1 30 -5 0 -12 -7 -15
-16z"/>
<path d="M4100 1550 c0 -5 5 -10 10 -10 6 0 10 5 10 10 0 6 -4 10 -10 10 -5 0
-10 -4 -10 -10z"/>
<path d="M2240 1530 c0 -5 5 -10 10 -10 6 0 10 5 10 10 0 6 -4 10 -10 10 -5 0
-10 -4 -10 -10z"/>
<path d="M2520 1530 c0 -5 5 -10 10 -10 6 0 10 5 10 10 0 6 -4 10 -10 10 -5 0
-10 -4 -10 -10z"/>
<path d="M4370 1530 c0 -5 5 -10 10 -10 6 0 10 5 10 10 0 6 -4 10 -10 10 -5 0
-10 -4 -10 -10z"/>
<path d="M4540 1530 c0 -5 5 -10 10 -10 6 0 10 5 10 10 0 6 -4 10 -10 10 -5 0
-10 -4 -10 -10z"/>
<path d="M2100 1520 c0 -5 5 -10 10 -10 6 0 10 5 10 10 0 6 -4 10 -10 10 -5 0
-10 -4 -10 -10z"/>
<path d="M2460 1520 c0 -5 5 -10 10 -10 6 0 10 5 10 10 0 6 -4 10 -10 10 -5 0
-10 -4 -10 -10z"/>
<path d="M4060 1520 c0 -5 5 -10 10 -10 6 0 10 5 10 10 0 6 -4 10 -10 10 -5 0
-10 -4 -10 -10z"/>
<path d="M4260 1520 c0 -5 5 -10 10 -10 6 0 10 5 10 10 0 6 -4 10 -10 10 -5 0
-10 -4 -10 -10z"/>
<path d="M2290 1510 c0 -5 5 -10 10 -10 6 0 10 5 10 10 0 6 -4 10 -10 10 -5 0
-10 -4 -10 -10z"/>
<path d="M2250 1500 c0 -5 5 -10 10 -10 6 0 10 5 10 10 0 6 -4 10 -10 10 -5 0
-10 -4 -10 -10z"/>
<path d="M4230 1500 c0 -5 5 -10 10 -10 6 0 10 5 10 10 0 6 -4 10 -10 10 -5 0
-10 -4 -10 -10z"/>
<path d="M1890 1490 c0 -5 5 -10 10 -10 6 0 10 5 10 10 0 6 -4 10 -10 10 -5 0
-10 -4 -10 -10z"/>
<path d="M2020 1490 c0 -5 5 -10 10 -10 6 0 10 5 10 10 0 6 -4 10 -10 10 -5 0
-10 -4 -10 -10z"/>
<path d="M4410 1490 c0 -5 5 -10 10 -10 6 0 10 5 10 10 0 6 -4 10 -10 10 -5 0
-10 -4 -10 -10z"/>
<path d="M2500 1480 c0 -5 5 -10 10 -10 6 0 10 5 10 10 0 6 -4 10 -10 10 -5 0
-10 -4 -10 -10z"/>
<path d="M2330 1460 c0 -5 5 -10 10 -10 6 0 10 5 10 10 0 6 -4 10 -10 10 -5 0
-10 -4 -10 -10z"/>
<path d="M2110 1430 c0 -5 5 -10 10 -10 6 0 10 5 10 10 0 6 -4 10 -10 10 -5 0
-10 -4 -10 -10z"/>
<path d="M4460 1390 c0 -5 5 -10 10 -10 6 0 10 5 10 10 0 6 -4 10 -10 10 -5 0
-10 -4 -10 -10z"/>
<path d="M7100 3845 l0 -64 -152 -4 -153 -3 158 -2 157 -2 0 70 c0 39 -2 70
-5 70 -3 0 -5 -29 -5 -65z"/>
<path d="M6740 3710 c0 -5 5 -10 10 -10 6 0 10 5 10 10 0 6 -4 10 -10 10 -5 0
-10 -4 -10 -10z"/>
<path d="M6117 3668 c-18 -46 -16 -58 8 -38 13 11 20 11 41 -1 20 -10 29 -10
44 -1 12 7 21 8 25 2 3 -6 11 -10 17 -10 6 0 5 6 -3 16 -10 12 -10 20 -1 35
13 20 3 26 -15 8 -8 -8 -13 -8 -17 0 -4 6 -11 11 -17 11 -5 0 -4 -9 3 -20 10
-15 10 -22 0 -32 -9 -9 -15 -3 -29 30 -9 23 -21 42 -28 42 -7 0 -19 -19 -28
-42z m37 -3 c3 -9 0 -15 -9 -15 -9 0 -12 6 -9 15 4 8 7 15 9 15 2 0 5 -7 9
-15z"/>
<path d="M6492 3698 c-7 -7 -12 -21 -12 -33 0 -12 5 -26 12 -33 7 -7 21 -12
33 -12 12 0 26 5 33 12 7 7 12 21 12 33 0 12 -5 26 -12 33 -7 7 -21 12 -33 12
-12 0 -26 -5 -33 -12z m53 -33 c0 -23 -4 -30 -20 -30 -21 0 -31 25 -21 51 11
28 41 12 41 -21z"/>
<path d="M6678 3698 c-9 -28 7 -73 27 -75 11 -2 14 0 8 3 -16 7 -17 54 -2 54
6 0 4 7 -5 15 -18 18 -23 19 -28 3z"/>
<path d="M6282 3678 c-21 -21 -14 -47 14 -54 14 -4 30 -2 36 4 8 8 5 9 -9 6
-12 -3 -24 -1 -27 5 -5 7 3 11 19 11 21 0 26 4 21 16 -3 9 -6 18 -6 20 0 9
-37 3 -48 -8z m33 -8 c3 -5 -1 -10 -10 -10 -9 0 -13 5 -10 10 3 6 8 10 10 10
2 0 7 -4 10 -10z"/>
<path d="M6364 3679 c-4 -7 4 -20 17 -31 l24 -20 -24 6 c-16 3 -21 2 -14 -5
14 -14 45 -8 51 9 2 7 -5 16 -17 19 -12 3 -21 10 -21 15 0 6 9 8 20 5 11 -3
18 -1 14 4 -8 13 -41 11 -50 -2z"/>
<path d="M6590 3641 c0 -28 5 -51 10 -51 6 0 10 6 10 14 0 8 10 16 23 18 17 2
22 10 22 33 0 27 -4 30 -32 33 l-33 3 0 -50z m46 3 c-5 -13 -10 -14 -18 -6 -6
6 -8 18 -4 28 5 13 10 14 18 6 6 -6 8 -18 4 -28z"/>
<path d="M6740 3655 c0 -19 5 -35 10 -35 6 0 10 16 10 35 0 19 -4 35 -10 35
-5 0 -10 -16 -10 -35z"/>
<path d="M6784 3676 c-12 -31 0 -51 31 -51 27 0 30 3 30 30 0 25 -4 30 -28 33
-17 2 -29 -2 -33 -12z m42 -32 c-5 -13 -10 -14 -18 -6 -6 6 -8 18 -4 28 5 13
10 14 18 6 6 -6 8 -18 4 -28z"/>
<path d="M6870 3656 c0 -42 17 -49 22 -9 4 39 28 42 28 4 0 -17 5 -31 11 -31
6 0 9 14 7 33 -3 28 -7 32 -35 35 -32 3 -33 2 -33 -32z"/>
<path d="M6964 3679 c-4 -7 4 -20 17 -31 l24 -20 -24 6 c-16 3 -21 2 -14 -5
14 -14 45 -8 51 9 2 7 -5 16 -17 19 -12 3 -21 10 -21 15 0 6 9 8 20 5 11 -3
18 -1 14 4 -8 13 -41 11 -50 -2z"/>
<path d="M318 3603 c6 -2 12 -17 12 -33 0 -16 -6 -31 -12 -33 -7 -3 1 -5 17
-5 17 0 24 2 18 5 -7 2 -13 20 -13 39 0 26 -4 34 -17 33 -11 0 -13 -3 -5 -6z"/>
<path d="M420 3590 c0 -11 6 -20 14 -20 26 0 28 -20 4 -30 l-23 -10 25 3 c32
3 40 36 11 44 -26 7 -27 20 -3 26 13 4 11 5 -5 6 -17 1 -23 -5 -23 -19z"/>
<path d="M7582 3473 l-2 -122 -97 -4 -98 -3 98 -2 97 -2 0 -120 0 -119 -97 -4
-98 -3 98 -2 97 -2 0 -120 0 -119 -97 -4 -98 -3 98 -2 97 -2 0 -120 0 -119
-97 -4 c-54 -1 -2 -4 115 -5 l212 -2 -2 503 c-1 276 -4 447 -5 380 l-4 -123
-104 0 -104 0 -4 123 -3 122 -2 -122z m218 -253 l0 -120 -105 0 -105 0 0 120
0 120 105 0 105 0 0 -120z m0 -250 l0 -120 -105 0 -105 0 0 120 0 120 105 0
105 0 0 -120z m0 -250 l0 -120 -105 0 -105 0 0 120 0 120 105 0 105 0 0 -120z"/>
<path d="M7698 3203 c7 -3 16 -2 19 1 4 3 -2 6 -13 5 -11 0 -14 -3 -6 -6z"/>
<path d="M7698 2953 c7 -3 16 -2 19 1 4 3 -2 6 -13 5 -11 0 -14 -3 -6 -6z"/>
<path d="M7698 2703 c7 -3 16 -2 19 1 4 3 -2 6 -13 5 -11 0 -14 -3 -6 -6z"/>
<path d="M6114 3488 c14 -20 14 -24 1 -45 -9 -13 -11 -23 -6 -23 5 0 12 7 15
17 6 14 9 14 27 -6 24 -25 34 -21 42 16 3 16 9 37 13 47 5 13 4 17 -3 13 -6
-4 -14 -23 -17 -42 -8 -39 -20 -45 -35 -17 -7 14 -6 25 5 40 8 12 11 22 6 22
-6 0 -13 -8 -17 -17 -6 -17 -7 -17 -19 0 -19 25 -30 21 -12 -5z"/>
<path d="M6220 3465 c0 -40 2 -45 23 -45 29 0 47 18 47 45 0 27 -18 45 -47 45
-21 0 -23 -5 -23 -45z m53 13 c8 -12 7 -21 -2 -32 -23 -28 -41 -19 -41 20 0
28 4 35 16 32 9 -2 22 -10 27 -20z"/>
<path d="M6313 3455 c0 -22 2 -30 4 -17 2 12 2 30 0 40 -3 9 -5 -1 -4 -23z"/>
<path d="M6331 3483 c-1 -18 21 -63 31 -63 4 0 8 4 8 9 0 5 7 17 16 26 12 11
14 19 6 27 -7 7 -12 4 -17 -11 -8 -27 -19 -27 -33 2 -6 12 -11 17 -11 10z"/>
<path d="M7481 3478 c0 -9 -9 -19 -18 -21 -16 -4 -16 -5 -1 -6 9 0 19 -9 21
-18 4 -16 5 -16 6 -1 0 9 9 19 19 21 15 4 15 5 0 6 -9 0 -19 9 -21 19 -4 15
-5 15 -6 0z"/>
<path d="M7698 3453 c7 -3 16 -2 19 1 4 3 -2 6 -13 5 -11 0 -14 -3 -6 -6z"/>
<path d="M6115 3233 c8 -18 15 -40 16 -50 0 -12 3 -9 8 8 5 14 14 36 20 50
l12 24 -19 -23 -18 -24 -17 24 c-17 22 -17 22 -2 -9z"/>
<path d="M6196 3249 c-2 -8 -9 -29 -15 -48 -6 -19 -9 -36 -6 -39 2 -3 6 1 9 9
2 8 9 29 15 48 6 19 9 36 6 39 -2 3 -6 -1 -9 -9z"/>
<path d="M6220 3215 c0 -40 2 -45 23 -45 29 0 47 18 47 45 0 27 -18 45 -47 45
-21 0 -23 -5 -23 -45z m53 13 c8 -12 7 -21 -2 -32 -23 -28 -41 -19 -41 20 0
28 4 35 16 32 9 -2 22 -10 27 -20z"/>
<path d="M6313 3205 c0 -22 2 -30 4 -17 2 12 2 30 0 40 -3 9 -5 -1 -4 -23z"/>
<path d="M6331 3233 c-1 -18 21 -63 31 -63 4 0 8 4 8 9 0 5 7 17 16 26 12 11
14 19 6 27 -7 7 -12 4 -17 -11 -8 -27 -19 -27 -33 2 -6 12 -11 17 -11 10z"/>
<path d="M7481 3228 c0 -9 -9 -19 -18 -21 -16 -4 -16 -5 -1 -6 9 0 19 -9 21
-18 4 -16 5 -16 6 -1 0 9 9 19 19 21 15 4 15 5 0 6 -9 0 -19 9 -21 19 -4 15
-5 15 -6 0z"/>
<path d="M428 3193 c6 -2 12 -17 12 -33 0 -16 -6 -31 -12 -33 -7 -3 1 -5 17
-5 17 0 24 2 18 5 -7 2 -13 20 -13 39 0 26 -4 34 -17 33 -11 0 -13 -3 -5 -6z"/>
<path d="M6312 3003 c-4 -10 -5 -34 -1 -53 l6 -35 2 33 c1 20 6 32 15 32 9 0
16 -13 19 -32 l4 -33 1 33 c1 18 7 32 15 32 8 0 7 4 -3 10 -13 9 -13 11 0 20
11 7 11 10 2 10 -7 0 -15 -7 -18 -15 -4 -8 -12 -15 -20 -15 -17 0 -18 17 -1
23 9 4 9 6 0 6 -7 1 -16 -7 -21 -16z"/>
<path d="M6114 2988 c14 -20 14 -24 1 -45 -9 -13 -11 -23 -6 -23 5 0 12 8 16
18 6 16 7 16 19 0 19 -26 29 -22 11 5 -13 21 -13 25 1 45 8 12 11 22 6 22 -6
0 -13 -8 -17 -17 -6 -17 -7 -17 -19 0 -19 25 -30 21 -12 -5z"/>
<path d="M6230 2996 c-15 -19 -9 -56 12 -69 34 -22 66 41 36 71 -16 16 -33 15
-48 -2z m45 -15 c7 -23 -3 -51 -20 -51 -7 0 -16 7 -19 16 -9 23 2 54 19 54 8
0 16 -8 20 -19z"/>
<path d="M7481 2978 c0 -9 -9 -19 -18 -21 -16 -4 -16 -5 -1 -6 9 0 19 -9 21
-18 4 -16 5 -16 6 -1 0 9 9 19 19 21 15 4 15 5 0 6 -9 0 -19 9 -21 19 -4 15
-5 15 -6 0z"/>
<path d="M314 2776 c-11 -28 0 -61 21 -61 16 0 20 7 20 35 0 25 -5 36 -18 38
-9 2 -20 -3 -23 -12z m36 -26 c0 -25 -18 -36 -26 -16 -8 21 3 49 16 41 5 -3
10 -15 10 -25z"/>
<path d="M420 2770 c0 -11 6 -20 14 -20 26 0 28 -20 4 -30 l-23 -10 25 3 c32
3 40 36 11 44 -26 7 -27 20 -3 26 13 4 11 5 -5 6 -17 1 -23 -5 -23 -19z"/>
<path d="M6312 2753 c-4 -10 -5 -34 -1 -53 l6 -35 2 33 c1 20 6 32 15 32 9 0
16 -13 19 -32 l4 -33 1 33 c1 18 7 32 15 32 8 0 7 4 -3 10 -13 9 -13 11 0 20
11 7 11 10 2 10 -7 0 -15 -7 -18 -15 -4 -8 -12 -15 -20 -15 -17 0 -18 17 -1
23 9 4 9 6 0 6 -7 1 -16 -7 -21 -16z"/>
<path d="M6115 2733 c8 -18 15 -40 16 -50 0 -12 3 -9 8 8 5 14 14 36 20 50
l12 24 -19 -23 -18 -24 -17 24 c-17 22 -17 22 -2 -9z"/>
<path d="M6230 2746 c-15 -19 -9 -56 12 -69 34 -22 66 41 36 71 -16 16 -33 15
-48 -2z m45 -15 c7 -23 -3 -51 -20 -51 -7 0 -16 7 -19 16 -9 23 2 54 19 54 8
0 16 -8 20 -19z"/>
<path d="M7481 2728 c0 -9 -9 -19 -18 -21 -16 -4 -16 -5 -1 -6 9 0 19 -9 21
-18 4 -16 5 -16 6 -1 0 9 9 19 19 21 15 4 15 5 0 6 -9 0 -19 9 -21 19 -4 15
-5 15 -6 0z"/>
<path d="M6120 2485 l0 -65 65 0 65 0 0 65 0 65 -65 0 -65 0 0 -65z m120 0 l0
-55 -55 0 -55 0 0 55 0 55 55 0 55 0 0 -55z"/>
<path d="M6200 2495 c-7 -8 -22 -15 -34 -15 -20 -1 -20 -1 -3 -11 10 -6 19 -9
20 -7 1 1 11 13 21 26 11 12 17 22 14 22 -3 0 -11 -7 -18 -15z"/>
<path d="M6332 2503 c-5 -16 -13 -36 -17 -46 -7 -17 -6 -18 14 -6 17 12 25 12
42 0 20 -12 21 -11 14 6 -4 10 -12 30 -17 46 -5 15 -14 27 -18 27 -4 0 -13
-12 -18 -27z m32 -18 c4 -10 -1 -15 -14 -15 -13 0 -18 5 -14 15 4 8 10 15 14
15 4 0 10 -7 14 -15z"/>
<path d="M6478 2519 c-2 -6 -2 -26 0 -45 3 -24 9 -34 21 -33 10 0 11 2 4 6
-15 5 -18 50 -4 55 5 2 3 8 -4 15 -9 9 -15 9 -17 2z"/>
<path d="M6403 2480 c2 -31 5 -35 30 -36 25 -1 27 2 26 35 -1 36 -1 36 -8 6
-3 -17 -13 -30 -21 -30 -8 0 -18 13 -22 30 -6 29 -6 29 -5 -5z"/>
<path d="M6534 2496 c-11 -29 0 -51 26 -51 21 0 25 5 25 30 0 24 -5 31 -23 33
-13 2 -24 -3 -28 -12z m43 -12 c8 -21 -13 -42 -28 -27 -13 13 -5 43 11 43 6 0
13 -7 17 -16z"/>
<path d="M6611 2473 c1 -27 3 -31 6 -13 2 14 12 31 21 38 14 11 13 12 -6 12
-19 0 -22 -5 -21 -37z"/>
<path d="M6665 2501 c-3 -7 0 -8 9 -5 8 3 21 2 28 -2 9 -6 5 -10 -12 -14 -34
-8 -32 -34 3 -38 27 -3 28 -1 25 30 -2 25 -8 34 -25 36 -11 2 -24 -2 -28 -7z
m40 -41 c-3 -5 -13 -10 -21 -10 -8 0 -14 5 -14 10 0 6 9 10 21 10 11 0 17 -4
14 -10z"/>
<path d="M6741 2471 c1 -36 1 -36 8 -6 3 17 13 30 21 30 8 0 18 -13 22 -30 6
-29 6 -29 5 5 -2 31 -5 35 -29 36 -26 1 -28 -2 -27 -35z"/>
<path d="M6824 2496 c-10 -27 1 -50 26 -56 17 -4 21 -8 12 -14 -6 -4 -16 -4
-22 -1 -5 3 -10 1 -10 -5 0 -6 10 -10 23 -8 19 3 22 10 25 51 3 45 2 47 -23
47 -14 0 -28 -6 -31 -14z m43 -12 c8 -21 -13 -42 -28 -27 -13 13 -5 43 11 43
6 0 13 -7 17 -16z"/>
<path d="M6904 2496 c-15 -38 22 -74 49 -47 7 7 4 8 -10 5 -12 -3 -24 -1 -27
5 -5 7 3 11 19 11 20 0 26 4 23 18 -4 22 -46 29 -54 8z m41 -6 c3 -5 -3 -10
-15 -10 -12 0 -18 5 -15 10 3 6 10 10 15 10 5 0 12 -4 15 -10z"/>
<path d="M94 2436 c-3 -8 -4 -23 -1 -33 4 -14 5 -13 6 5 1 27 12 28 36 2 26
-28 35 -25 34 13 -1 28 -2 29 -8 9 l-6 -24 -19 21 c-22 25 -35 27 -42 7z"/>
<path d="M424 2366 c-11 -28 0 -61 21 -61 16 0 20 7 20 35 0 25 -5 36 -18 38
-9 2 -20 -3 -23 -12z m36 -26 c0 -25 -18 -36 -26 -16 -8 21 3 49 16 41 5 -3
10 -15 10 -25z"/>
<path d="M113 2350 c-3 -11 -12 -20 -19 -20 -8 0 -14 -4 -14 -10 0 -5 20 -10
45 -10 25 0 45 5 45 10 0 6 -11 10 -25 10 -14 0 -25 5 -25 10 0 6 11 10 25 10
14 0 25 5 25 10 0 6 -12 10 -26 10 -17 0 -28 -6 -31 -20z"/>
<path d="M6200 2260 c0 -52 16 -70 22 -23 4 39 28 42 28 4 0 -17 5 -31 11 -31
6 0 9 14 7 33 -2 24 -8 33 -25 35 -13 2 -23 10 -23 18 0 8 -4 14 -10 14 -5 0
-10 -22 -10 -50z"/>
<path d="M6650 2260 c0 -27 5 -50 10 -50 6 0 10 23 10 50 0 28 -4 50 -10 50
-5 0 -10 -22 -10 -50z"/>
<path d="M6990 2300 c0 -5 5 -10 10 -10 6 0 10 5 10 10 0 6 -4 10 -10 10 -5 0
-10 -4 -10 -10z"/>
<path d="M6122 2288 c-29 -29 -7 -78 35 -78 13 0 23 4 23 8 0 5 -10 8 -22 8
-19 -1 -23 4 -23 29 0 25 4 30 23 29 12 0 22 3 22 8 0 12 -44 10 -58 -4z"/>
<path d="M6742 2288 c-28 -28 -7 -78 33 -78 27 0 45 18 45 45 0 27 -18 45 -45
45 -12 0 -26 -5 -33 -12z m53 -33 c0 -23 -4 -30 -20 -30 -21 0 -31 25 -21 51
11 28 41 12 41 -21z"/>
<path d="M6928 2288 c-9 -28 7 -73 27 -75 11 -2 14 0 8 3 -16 7 -17 54 -2 54
6 0 4 7 -5 15 -18 18 -23 19 -28 3z"/>
<path d="M92 2264 c4 -35 31 -53 55 -38 19 11 31 64 15 64 -5 0 -8 -10 -8 -22
1 -18 -5 -23 -24 -23 -19 0 -25 5 -24 23 0 12 -3 22 -8 22 -5 0 -8 -12 -6 -26z"/>
<path d="M6300 2272 c0 -6 9 -8 20 -5 11 3 20 1 20 -5 0 -6 -10 -12 -22 -14
-36 -5 -28 -33 10 -36 32 -3 33 -2 30 30 -2 28 -7 34 -30 36 -16 2 -28 -1 -28
-6z m35 -42 c-3 -5 -10 -10 -16 -10 -5 0 -9 5 -9 10 0 6 7 10 16 10 8 0 12 -4
9 -10z"/>
<path d="M6380 2246 c0 -42 17 -49 22 -9 4 39 28 42 28 4 0 -17 5 -31 11 -31
6 0 9 14 7 33 -3 28 -7 32 -35 35 -32 3 -33 2 -33 -32z"/>
<path d="M6470 2246 c0 -42 17 -49 22 -9 4 39 28 42 28 4 0 -17 5 -31 11 -31
6 0 9 14 7 33 -3 28 -7 32 -35 35 -32 3 -33 2 -33 -32z"/>
<path d="M6572 2268 c-21 -21 -14 -47 14 -54 14 -4 30 -2 36 4 8 8 5 9 -9 6
-12 -3 -24 -1 -27 5 -5 7 3 11 19 11 21 0 26 4 21 16 -3 9 -6 18 -6 20 0 9
-37 3 -48 -8z m33 -8 c3 -5 -1 -10 -10 -10 -9 0 -13 5 -10 10 3 6 8 10 10 10
2 0 7 -4 10 -10z"/>
<path d="M6840 2231 c0 -28 5 -51 10 -51 6 0 10 6 10 14 0 8 10 16 23 18 17 2
22 10 22 33 0 27 -4 30 -32 33 l-33 3 0 -50z m46 3 c-5 -13 -10 -14 -18 -6 -6
6 -8 18 -4 28 5 13 10 14 18 6 6 -6 8 -18 4 -28z"/>
<path d="M6990 2245 c0 -19 5 -35 10 -35 6 0 10 16 10 35 0 19 -4 35 -10 35
-5 0 -10 -16 -10 -35z"/>
<path d="M7034 2266 c-12 -31 0 -51 31 -51 27 0 30 3 30 30 0 25 -4 30 -28 33
-17 2 -29 -2 -33 -12z m42 -32 c-5 -13 -10 -14 -18 -6 -6 6 -8 18 -4 28 5 13
10 14 18 6 6 -6 8 -18 4 -28z"/>
<path d="M7120 2246 c0 -42 17 -49 22 -9 4 39 28 42 28 4 0 -17 5 -31 11 -31
6 0 9 14 7 33 -3 28 -7 32 -35 35 -32 3 -33 2 -33 -32z"/>
<path d="M7214 2269 c-4 -7 4 -20 17 -31 l24 -20 -24 6 c-16 3 -21 2 -14 -5
14 -14 45 -8 51 9 2 7 -5 16 -17 19 -12 3 -21 10 -21 15 0 6 9 8 20 5 11 -3
18 -1 14 4 -8 13 -41 11 -50 -2z"/>
<path d="M7504 2030 c0 -80 2 -112 3 -72 2 39 2 105 0 145 -1 39 -3 7 -3 -73z"/>
<path d="M6494 2020 c0 -74 1 -105 3 -67 2 37 2 97 0 135 -2 37 -3 6 -3 -68z"/>
<path d="M6874 2020 c0 -74 1 -105 3 -67 2 37 2 97 0 135 -2 37 -3 6 -3 -68z"/>
<path d="M6282 2020 c0 -41 2 -47 7 -25 3 17 13 30 21 30 8 0 18 -13 22 -30 6
-29 6 -29 5 5 -2 28 -7 36 -24 38 -12 2 -24 11 -26 20 -3 9 -5 -8 -5 -38z"/>
<path d="M6662 2020 c0 -41 2 -47 7 -25 3 17 13 30 21 30 8 0 18 -13 22 -30 6
-29 6 -29 5 5 -2 28 -7 36 -24 38 -12 2 -24 11 -26 20 -3 9 -5 -8 -5 -38z"/>
<path d="M7314 2048 c14 -20 14 -24 1 -45 -9 -13 -11 -23 -6 -23 5 0 12 8 16
18 6 16 7 16 19 0 19 -27 29 -22 11 5 -13 20 -13 26 -1 43 17 23 23 18 41 -33
8 -21 14 -30 15 -20 0 10 7 32 16 50 l15 32 -19 -24 -20 -24 -11 21 c-14 26
-36 28 -46 5 -6 -17 -7 -17 -19 0 -19 25 -30 21 -12 -5z"/>
<path d="M6212 2048 c-27 -27 -7 -78 30 -78 10 0 18 4 18 9 0 5 -8 7 -19 4
-21 -5 -35 20 -25 49 4 13 12 18 25 15 10 -3 19 -1 19 4 0 13 -34 11 -48 -3z"/>
<path d="M6368 2053 c6 -2 12 -20 12 -38 0 -18 -6 -36 -12 -38 -7 -3 1 -5 17
-5 17 0 24 2 18 5 -8 2 -13 22 -13 44 0 31 -4 39 -17 38 -11 0 -13 -3 -5 -6z"/>
<path d="M6592 2048 c-27 -27 -7 -78 30 -78 10 0 18 4 18 9 0 5 -8 7 -19 4
-21 -5 -35 20 -25 49 4 13 12 18 25 15 10 -3 19 -1 19 4 0 13 -34 11 -48 -3z"/>
<path d="M6746 2051 c-4 -5 2 -7 13 -4 32 8 37 -18 8 -43 -35 -30 -34 -34 6
-33 25 1 27 3 9 6 l-24 5 22 23 c13 14 20 31 17 39 -7 17 -42 22 -51 7z"/>
<path d="M6962 2053 c12 -3 18 -17 21 -46 l4 -42 1 42 c2 30 7 43 20 46 9 3
-1 5 -23 5 -22 0 -32 -2 -23 -5z"/>
<path d="M7011 2003 c1 -27 3 -31 6 -13 2 14 12 31 21 38 14 11 13 12 -6 12
-19 0 -22 -5 -21 -37z"/>
<path d="M7063 2005 c0 -22 2 -30 4 -17 2 12 2 30 0 40 -3 9 -5 -1 -4 -23z"/>
<path d="M7094 2026 c-10 -27 1 -50 26 -56 17 -4 21 -8 12 -14 -6 -4 -16 -4
-22 -1 -5 3 -10 1 -10 -5 0 -6 10 -10 23 -8 19 3 22 10 25 51 3 45 2 47 -23
47 -14 0 -28 -6 -31 -14z m43 -12 c8 -21 -13 -42 -28 -27 -13 13 -5 43 11 43
6 0 13 -7 17 -16z"/>
<path d="M314 1966 c-11 -28 0 -61 21 -61 16 0 20 7 20 35 0 25 -5 36 -18 38
-9 2 -20 -3 -23 -12z m36 -26 c0 -10 -5 -22 -10 -25 -13 -8 -24 20 -16 41 8
20 26 9 26 -16z"/>
<path d="M420 1960 c0 -11 6 -20 14 -20 26 0 28 -20 4 -30 l-23 -10 25 3 c32
3 40 36 11 44 -26 7 -27 20 -3 26 13 4 11 5 -5 6 -17 1 -23 -5 -23 -19z"/>
<path d="M278 1933 c7 -3 16 -2 19 1 4 3 -2 6 -13 5 -11 0 -14 -3 -6 -6z"/>
<path d="M7800 1285 l0 -605 -852 -3 -853 -2 858 -3 857 -2 0 610 c0 336 -2
610 -5 610 -3 0 -5 -272 -5 -605z"/>
<path d="M7780 1650 l0 -130 -447 -3 -448 -2 453 -3 452 -2 0 135 c0 74 -2
135 -5 135 -3 0 -5 -58 -5 -130z"/>
<path d="M7665 1690 c-18 -20 -17 -20 20 -20 37 0 38 0 20 20 -10 11 -19 20
-20 20 -1 0 -10 -9 -20 -20z"/>
<path d="M6212 1650 c0 -41 2 -47 7 -25 3 17 13 30 21 30 8 0 18 -13 22 -30 6
-29 6 -29 5 5 -2 28 -6 35 -22 35 -11 0 -23 9 -27 20 -3 11 -6 -4 -6 -35z"/>
<path d="M6613 1650 c0 -30 2 -43 4 -27 2 15 2 39 0 55 -2 15 -4 2 -4 -28z"/>
<path d="M7062 1650 c0 -41 2 -47 7 -25 3 17 13 30 21 30 8 0 18 -13 22 -30 6
-29 6 -29 5 5 -2 28 -6 35 -22 35 -11 0 -23 9 -27 20 -3 11 -6 -4 -6 -35z"/>
<path d="M6140 1676 c-25 -31 13 -97 40 -70 8 8 4 10 -12 10 -19 -1 -23 4 -23
29 0 24 4 30 22 29 12 0 20 3 17 8 -8 13 -30 9 -44 -6z"/>
<path d="M6684 1668 c14 -20 14 -24 1 -45 -9 -13 -11 -23 -6 -23 5 0 12 8 16
18 6 16 7 16 19 0 19 -26 29 -22 11 5 -13 21 -13 25 1 45 8 12 11 22 6 22 -6
0 -13 -8 -17 -17 -6 -17 -7 -17 -19 0 -19 25 -30 21 -12 -5z"/>
<path d="M6990 1676 c-25 -31 13 -97 40 -70 8 8 4 10 -12 10 -19 -1 -23 4 -23
29 0 24 4 30 22 29 12 0 20 3 17 8 -8 13 -30 9 -44 -6z"/>
<path d="M7188 1683 c6 -2 12 -20 12 -38 0 -18 -6 -36 -12 -38 -7 -3 1 -5 17
-5 17 0 24 2 18 5 -8 2 -13 22 -13 44 0 31 -4 39 -17 38 -11 0 -13 -3 -5 -6z"/>
<path d="M6295 1661 c-3 -7 0 -8 9 -5 8 3 21 2 28 -2 9 -6 5 -10 -12 -14 -34
-8 -32 -34 3 -38 27 -3 28 -1 25 30 -2 25 -8 34 -25 36 -11 2 -24 -2 -28 -7z
m40 -41 c-3 -5 -13 -10 -21 -10 -8 0 -14 5 -14 10 0 6 9 10 21 10 11 0 17 -4
14 -10z"/>
<path d="M6371 1631 c1 -36 1 -36 8 -6 3 17 13 30 21 30 8 0 18 -13 22 -30 6
-29 6 -29 5 5 -2 31 -5 35 -29 36 -26 1 -28 -2 -27 -35z"/>
<path d="M6451 1631 c1 -36 1 -36 8 -6 3 17 13 30 21 30 8 0 18 -13 22 -30 6
-29 6 -29 5 5 -2 31 -5 35 -29 36 -26 1 -28 -2 -27 -35z"/>
<path d="M6534 1656 c-15 -38 22 -74 49 -47 7 7 4 8 -10 5 -12 -3 -24 -1 -27
5 -5 7 3 11 19 11 20 0 26 4 23 18 -4 22 -46 29 -54 8z m41 -6 c3 -5 -3 -10
-15 -10 -12 0 -18 5 -15 10 3 6 10 10 15 10 5 0 12 -4 15 -10z"/>
<path d="M7665 1610 c17 -19 19 -19 37 -4 24 23 24 24 -19 24 -36 0 -36 0 -18
-20z"/>
<path d="M428 1563 c6 -2 12 -17 12 -33 0 -16 -6 -31 -12 -33 -7 -3 1 -5 17
-5 17 0 24 2 18 5 -7 2 -13 20 -13 39 0 26 -4 34 -17 33 -11 0 -13 -3 -5 -6z"/>
<path d="M388 1523 c7 -3 16 -2 19 1 4 3 -2 6 -13 5 -11 0 -14 -3 -6 -6z"/>
<path d="M7780 1290 l0 -130 -447 -3 -448 -2 453 -3 452 -2 0 135 c0 74 -2
135 -5 135 -3 0 -5 -58 -5 -130z"/>
<path d="M7665 1330 c-18 -20 -17 -20 20 -20 37 0 38 0 20 20 -10 11 -19 20
-20 20 -1 0 -10 -9 -20 -20z"/>
<path d="M6212 1290 c0 -41 2 -47 7 -25 3 17 13 30 21 30 8 0 18 -13 22 -30 6
-29 6 -29 5 5 -2 28 -6 35 -22 35 -11 0 -23 9 -27 20 -3 11 -6 -4 -6 -35z"/>
<path d="M6613 1290 c0 -30 2 -43 4 -27 2 15 2 39 0 55 -2 15 -4 2 -4 -28z"/>
<path d="M7062 1290 c0 -41 2 -47 7 -25 3 17 13 30 21 30 8 0 18 -13 22 -30 6
-29 6 -29 5 5 -2 28 -6 35 -22 35 -11 0 -23 9 -27 20 -3 11 -6 -4 -6 -35z"/>
<path d="M6140 1316 c-25 -31 13 -97 40 -70 8 8 4 10 -12 10 -19 -1 -23 4 -23
29 0 24 4 30 22 29 12 0 20 3 17 8 -8 13 -30 9 -44 -6z"/>
<path d="M6685 1303 c8 -18 15 -40 16 -50 0 -10 5 -3 11 16 7 25 12 31 18 21
5 -9 8 -4 7 13 -2 27 -2 27 -18 6 l-15 -21 -17 24 c-17 22 -17 22 -2 -9z"/>
<path d="M6990 1316 c-25 -31 13 -97 40 -70 8 8 4 10 -12 10 -19 -1 -23 4 -23
29 0 24 4 30 22 29 12 0 20 3 17 8 -8 13 -30 9 -44 -6z"/>
<path d="M7186 1321 c-4 -5 2 -7 13 -4 32 8 37 -18 8 -43 -35 -30 -34 -34 6
-33 25 1 27 3 9 6 l-24 5 22 23 c13 14 20 31 17 39 -7 17 -42 22 -51 7z"/>
<path d="M6295 1301 c-3 -7 0 -8 9 -5 8 3 21 2 28 -2 9 -6 5 -10 -12 -14 -34
-8 -32 -34 3 -38 27 -3 28 -1 25 30 -2 25 -8 34 -25 36 -11 2 -24 -2 -28 -7z
m40 -41 c-3 -5 -13 -10 -21 -10 -8 0 -14 5 -14 10 0 6 9 10 21 10 11 0 17 -4
14 -10z"/>
<path d="M6371 1271 c1 -36 1 -36 8 -6 3 17 13 30 21 30 8 0 18 -13 22 -30 6
-29 6 -29 5 5 -2 31 -5 35 -29 36 -26 1 -28 -2 -27 -35z"/>
<path d="M6451 1271 c1 -36 1 -36 8 -6 3 17 13 30 21 30 8 0 18 -13 22 -30 6
-29 6 -29 5 5 -2 31 -5 35 -29 36 -26 1 -28 -2 -27 -35z"/>
<path d="M6534 1296 c-15 -38 22 -74 49 -47 7 7 4 8 -10 5 -12 -3 -24 -1 -27
5 -5 7 3 11 19 11 20 0 26 4 23 18 -4 22 -46 29 -54 8z m41 -6 c3 -5 -3 -10
-15 -10 -12 0 -18 5 -15 10 3 6 10 10 15 10 5 0 12 -4 15 -10z"/>
<path d="M7665 1250 c17 -19 19 -19 37 -4 24 23 24 24 -19 24 -36 0 -36 0 -18
-20z"/>
<path d="M318 1153 c6 -2 12 -17 12 -33 0 -16 -6 -31 -12 -33 -7 -3 1 -5 17
-5 17 0 24 2 18 5 -7 2 -13 20 -13 39 0 26 -4 34 -17 33 -11 0 -13 -3 -5 -6z"/>
<path d="M420 1140 c0 -11 6 -20 14 -20 26 0 28 -20 4 -30 l-23 -10 25 3 c32
3 40 36 11 44 -26 7 -27 20 -3 26 13 4 11 5 -5 6 -17 1 -23 -5 -23 -19z"/>
<path d="M278 1113 c7 -3 16 -2 19 1 4 3 -2 6 -13 5 -11 0 -14 -3 -6 -6z"/>
<path d="M7780 930 l0 -130 -447 -3 -448 -2 453 -3 452 -2 0 135 c0 74 -2 135
-5 135 -3 0 -5 -58 -5 -130z"/>
<path d="M7665 970 c-18 -20 -17 -20 20 -20 37 0 38 0 20 20 -10 11 -19 20
-20 20 -1 0 -10 -9 -20 -20z"/>
<path d="M6362 930 c0 -32 2 -47 7 -37 6 17 8 17 20 3 7 -9 18 -16 24 -16 5 0
2 9 -9 21 -18 20 -18 21 1 35 10 8 14 14 8 14 -7 0 -15 -4 -18 -10 -11 -18
-24 -10 -28 18 -2 15 -4 2 -5 -28z"/>
<path d="M7470 966 c0 -8 -10 -16 -22 -18 -18 -2 -23 -10 -23 -33 0 -25 4 -30
28 -33 26 -3 27 -2 27 47 0 28 -2 51 -5 51 -3 0 -5 -6 -5 -14z m-3 -42 c8 -21
-13 -42 -28 -27 -13 13 -5 43 11 43 6 0 13 -7 17 -16z"/>
<path d="M6132 925 c1 -46 1 -47 7 -15 6 32 8 33 15 13 4 -13 11 -23 16 -23 5
0 12 10 16 23 7 20 9 19 15 -13 6 -32 6 -31 7 15 1 45 0 48 -13 31 -8 -10 -17
-24 -20 -30 -4 -8 -6 -8 -10 0 -3 6 -12 20 -20 30 -13 17 -14 14 -13 -31z"/>
<path d="M6980 925 c0 -40 2 -45 23 -45 29 0 47 18 47 45 0 27 -18 45 -47 45
-21 0 -23 -5 -23 -45z m53 13 c8 -12 7 -21 -2 -32 -23 -28 -41 -19 -41 20 0
28 4 35 16 32 9 -2 22 -10 27 -20z"/>
<path d="M7148 959 c-2 -6 -2 -26 0 -45 3 -24 9 -34 21 -33 10 0 11 2 4 6 -15
5 -18 50 -4 55 5 2 3 8 -4 15 -9 9 -15 9 -17 2z"/>
<path d="M7242 925 c1 -46 1 -47 7 -15 6 32 8 33 15 13 4 -13 11 -23 16 -23 5
0 12 10 16 23 7 20 9 19 15 -13 6 -32 6 -31 7 15 1 45 0 48 -13 31 -8 -10 -17
-24 -20 -30 -4 -8 -6 -8 -10 0 -3 6 -12 20 -20 30 -13 17 -14 14 -13 -31z"/>
<path d="M6235 941 c-3 -7 0 -8 9 -5 8 3 21 2 28 -2 9 -6 5 -10 -12 -14 -34
-8 -32 -34 3 -38 27 -3 28 -1 25 30 -2 25 -8 34 -25 36 -11 2 -24 -2 -28 -7z
m40 -41 c-3 -5 -13 -10 -21 -10 -8 0 -14 5 -14 10 0 6 9 10 21 10 11 0 17 -4
14 -10z"/>
<path d="M6311 913 c1 -27 3 -31 6 -13 2 14 12 31 21 38 14 11 13 12 -6 12
-19 0 -22 -5 -21 -37z"/>
<path d="M6434 936 c-15 -38 22 -74 49 -47 7 7 4 8 -10 5 -12 -3 -24 -1 -27 5
-5 7 3 11 19 11 20 0 26 4 23 18 -4 22 -46 29 -54 8z m41 -6 c3 -5 -3 -10 -15
-10 -12 0 -18 5 -15 10 3 6 10 10 15 10 5 0 12 -4 15 -10z"/>
<path d="M6511 913 c1 -27 3 -31 6 -13 2 14 12 31 21 38 14 11 13 12 -6 12
-19 0 -22 -5 -21 -37z"/>
<path d="M7074 936 c-11 -29 0 -51 26 -51 21 0 25 5 25 30 0 24 -5 31 -23 33
-13 2 -24 -3 -28 -12z m43 -12 c8 -21 -13 -42 -28 -27 -13 13 -5 43 11 43 6 0
13 -7 17 -16z"/>
<path d="M7344 936 c-15 -38 22 -74 49 -47 7 7 4 8 -10 5 -12 -3 -24 -1 -27 5
-5 7 3 11 19 11 20 0 26 4 23 18 -4 22 -46 29 -54 8z m41 -6 c3 -5 -3 -10 -15
-10 -12 0 -18 5 -15 10 3 6 10 10 15 10 5 0 12 -4 15 -10z"/>
<path d="M7665 890 c17 -19 19 -19 37 -4 24 23 24 24 -19 24 -36 0 -36 0 -18
-20z"/>
<path d="M426 741 c-4 -5 3 -7 14 -4 27 7 26 -14 -2 -44 l-21 -23 29 1 c18 1
22 3 11 6 -17 4 -18 6 -2 24 10 10 15 25 12 34 -7 16 -32 20 -41 6z"/>
<path d="M388 703 c7 -3 16 -2 19 1 4 3 -2 6 -13 5 -11 0 -14 -3 -6 -6z"/>
<path d="M536 631 c-4 -5 3 -7 14 -4 27 7 26 -14 -2 -44 l-21 -23 29 1 c18 1
22 3 11 6 -17 4 -18 6 -2 24 10 10 15 25 12 34 -7 16 -32 20 -41 6z"/>
<path d="M1148 633 c6 -2 12 -17 12 -33 0 -16 -6 -31 -12 -33 -7 -3 1 -5 17
-5 17 0 24 2 18 5 -7 2 -13 20 -13 39 0 26 -4 34 -17 33 -11 0 -13 -3 -5 -6z"/>
<path d="M1250 620 c0 -11 6 -20 14 -20 26 0 28 -20 4 -30 l-23 -10 25 3 c32
3 40 36 11 44 -26 7 -27 20 -3 26 13 4 11 5 -5 6 -17 1 -23 -5 -23 -19z"/>
<path d="M1888 633 c6 -2 12 -17 12 -33 0 -16 -6 -31 -12 -33 -7 -3 1 -5 17
-5 17 0 24 2 18 5 -7 2 -13 20 -13 39 0 26 -4 34 -17 33 -11 0 -13 -3 -5 -6z"/>
<path d="M2494 626 c-11 -28 0 -61 21 -61 16 0 20 7 20 35 0 25 -5 36 -18 38
-9 2 -20 -3 -23 -12z m36 -26 c0 -10 -5 -22 -10 -25 -13 -8 -24 20 -16 41 8
20 26 9 26 -16z"/>
<path d="M2600 620 c0 -11 6 -20 14 -20 26 0 28 -20 4 -30 l-23 -10 25 3 c32
3 40 36 11 44 -26 7 -27 20 -3 26 13 4 11 5 -5 6 -17 1 -23 -5 -23 -19z"/>
<path d="M3214 626 c-11 -28 0 -61 21 -61 16 0 20 7 20 35 0 25 -5 36 -18 38
-9 2 -20 -3 -23 -12z m36 -26 c0 -10 -5 -22 -10 -25 -13 -8 -24 20 -16 41 8
20 26 9 26 -16z"/>
<path d="M3824 626 c-11 -28 0 -61 21 -61 16 0 20 7 20 35 0 25 -5 36 -18 38
-9 2 -20 -3 -23 -12z m36 -26 c0 -25 -18 -36 -26 -16 -8 21 3 49 16 41 5 -3
10 -15 10 -25z"/>
<path d="M3930 620 c0 -11 6 -20 14 -20 26 0 28 -20 4 -30 l-23 -10 25 3 c32
3 40 36 11 44 -26 7 -27 20 -3 26 13 4 11 5 -5 6 -17 1 -23 -5 -23 -19z"/>
<path d="M4568 633 c6 -2 12 -17 12 -33 0 -16 -6 -31 -12 -33 -7 -3 1 -5 17
-5 17 0 24 2 18 5 -7 2 -13 20 -13 39 0 26 -4 34 -17 33 -11 0 -13 -3 -5 -6z"/>
<path d="M5178 633 c6 -2 12 -17 12 -33 0 -16 -6 -31 -12 -33 -7 -3 1 -5 17
-5 17 0 24 2 18 5 -7 2 -13 20 -13 39 0 26 -4 34 -17 33 -11 0 -13 -3 -5 -6z"/>
<path d="M5280 620 c0 -11 6 -20 14 -20 26 0 28 -20 4 -30 l-23 -10 25 3 c32
3 40 36 11 44 -26 7 -27 20 -3 26 13 4 11 5 -5 6 -17 1 -23 -5 -23 -19z"/>
<path d="M5916 631 c-4 -5 3 -7 14 -4 27 7 26 -14 -2 -44 l-21 -23 29 1 c18 1
22 3 11 6 -17 4 -18 6 -2 24 10 10 15 25 12 34 -7 16 -32 20 -41 6z"/>
<path d="M498 593 c7 -3 16 -2 19 1 4 3 -2 6 -13 5 -11 0 -14 -3 -6 -6z"/>
<path d="M1108 593 c7 -3 16 -2 19 1 4 3 -2 6 -13 5 -11 0 -14 -3 -6 -6z"/>
<path d="M1848 593 c7 -3 16 -2 19 1 4 3 -2 6 -13 5 -11 0 -14 -3 -6 -6z"/>
<path d="M2458 593 c7 -3 16 -2 19 1 4 3 -2 6 -13 5 -11 0 -14 -3 -6 -6z"/>
<path d="M6827 513 c-15 -14 -6 -34 19 -43 29 -12 22 -34 -9 -26 -14 3 -17 2
-10 -5 16 -16 47 -7 51 14 2 11 -6 20 -23 27 -29 11 -24 35 6 27 11 -3 17 -1
13 4 -6 10 -38 12 -47 2z"/>
<path d="M6898 509 c-2 -6 -2 -26 0 -45 3 -24 9 -34 21 -33 10 0 11 2 4 6 -15
5 -18 50 -4 55 5 2 3 8 -4 15 -9 9 -15 9 -17 2z"/>
<path d="M6954 486 c-11 -29 0 -51 26 -51 21 0 25 5 25 30 0 24 -5 31 -23 33
-13 2 -24 -3 -28 -12z m43 -12 c8 -21 -13 -42 -28 -27 -13 13 -5 43 11 43 6 0
13 -7 17 -16z"/>
<path d="M7031 448 c1 -29 3 -45 6 -36 2 9 14 18 26 20 17 2 22 10 22 33 0 25
-4 30 -27 33 -28 3 -28 2 -27 -50z m46 26 c8 -21 -13 -42 -28 -27 -13 13 -5
43 11 43 6 0 13 -7 17 -16z"/>
<path d="M3200 425 c0 -25 5 -45 10 -45 6 0 10 11 10 25 0 14 5 25 10 25 6 0
10 -11 10 -25 0 -14 5 -25 10 -25 6 0 10 12 10 26 0 17 -6 28 -20 31 -11 3
-20 12 -20 19 0 8 -4 14 -10 14 -5 0 -10 -20 -10 -45z"/>
<path d="M3122 448 c-27 -27 -6 -68 35 -68 13 0 23 4 23 8 0 5 -10 8 -22 8
-18 -1 -23 5 -23 24 0 19 5 25 23 24 12 0 22 3 22 8 0 12 -44 10 -58 -4z"/>
<path d="M3288 453 c6 -2 12 -17 12 -33 0 -16 -6 -31 -12 -33 -7 -3 3 -5 22
-5 19 0 29 2 23 5 -7 2 -13 20 -13 39 0 29 -3 34 -22 33 -13 0 -17 -3 -10 -6z"/>
<path d="M792 173 l2 -108 3 102 4 103 3607 3 3607 2 -3612 3 -3613 2 2 -107z"/>
<path d="M111 182 c-1 -52 -1 -53 27 -50 23 3 27 8 27 33 0 23 -5 31 -22 33
-12 2 -24 11 -26 20 -3 9 -5 -7 -6 -36z m46 -8 c8 -21 -13 -42 -28 -27 -13 13
-5 43 11 43 6 0 13 -7 17 -16z"/>
<path d="M446 214 c-13 -33 -3 -94 15 -94 5 0 3 12 -3 26 -9 19 -9 33 -1 55 6
16 8 29 3 29 -4 0 -11 -7 -14 -16z"/>
<path d="M540 216 c0 -8 -10 -16 -22 -18 -18 -2 -23 -10 -23 -33 0 -25 4 -30
28 -33 26 -3 27 -2 27 47 0 28 -2 51 -5 51 -3 0 -5 -6 -5 -14z m-3 -42 c8 -21
-13 -42 -28 -27 -13 13 -5 43 11 43 6 0 13 -7 17 -16z"/>
<path d="M663 201 c8 -22 8 -36 -1 -55 -6 -14 -8 -26 -3 -26 5 0 12 7 15 16
13 33 3 94 -14 94 -5 0 -3 -13 3 -29z"/>
<path d="M30 175 c0 -44 0 -45 33 -44 30 2 30 2 5 6 -36 6 -36 30 0 36 l27 4
-27 2 c-17 0 -28 7 -28 15 0 8 12 17 28 19 25 4 25 4 -5 6 -33 1 -33 0 -33
-44z"/>
<path d="M206 209 c-2 -8 -9 -29 -15 -48 -6 -19 -9 -36 -6 -39 2 -3 6 1 9 9 2
8 9 29 15 48 6 19 9 36 6 39 -2 3 -6 -1 -9 -9z"/>
<path d="M230 173 c0 -25 2 -44 4 -42 8 10 13 89 5 89 -5 0 -9 -21 -9 -47z"/>
<path d="M289 180 c-6 -45 -4 -58 7 -48 3 3 4 26 2 49 l-3 44 -6 -45z"/>
<path d="M324 196 c-8 -35 4 -66 26 -66 22 0 34 31 26 66 -4 15 -14 24 -26 24
-12 0 -22 -9 -26 -24z m41 -22 c0 -19 -5 -29 -15 -29 -16 0 -25 28 -16 51 10
25 31 10 31 -22z"/>
<path d="M570 175 c0 -45 1 -46 28 -43 24 3 27 7 27 43 0 36 -3 40 -27 43 -27
3 -28 2 -28 -43z m43 20 c1 -5 -6 -11 -15 -13 -11 -2 -18 3 -18 13 0 17 30 18
33 0z m0 -40 c1 -5 -6 -11 -15 -13 -11 -2 -18 3 -18 13 0 17 30 18 33 0z"/>
<path d="M838 213 c6 -2 12 -20 12 -38 0 -18 -6 -36 -12 -38 -7 -3 1 -5 17 -5
17 0 24 2 18 5 -8 2 -13 22 -13 44 0 31 -4 39 -17 38 -11 0 -13 -3 -5 -6z"/>
<path d="M914 196 c-8 -35 4 -66 26 -66 22 0 34 31 26 66 -4 15 -14 24 -26 24
-12 0 -22 -9 -26 -24z m41 -22 c0 -19 -5 -29 -15 -29 -16 0 -25 28 -16 51 10
25 31 10 31 -22z"/>
<path d="M250 194 c0 -5 7 -19 15 -30 8 -10 15 -14 15 -8 0 5 -7 19 -15 30 -8
10 -15 14 -15 8z"/>
</g>
</svg>
