<?xml version="1.0" standalone="no"?>
<!DOCTYPE svg PUBLIC "-//W3C//DTD SVG 20010904//EN"
 "http://www.w3.org/TR/2001/REC-SVG-20010904/DTD/svg10.dtd">
<svg version="1.0" xmlns="http://www.w3.org/2000/svg"
 width="1772.000000pt" height="1052.000000pt" viewBox="0 0 1772.000000 1052.000000"
 preserveAspectRatio="xMidYMid meet">

<g transform="translate(0.000000,1052.000000) scale(0.100000,-0.100000)"
fill="#000000" stroke="none">
<path d="M7590 10335 c0 -9 9 -15 25 -15 16 0 25 6 25 15 0 9 -9 15 -25 15
-16 0 -25 -6 -25 -15z"/>
<path d="M9478 10320 c-15 -26 -22 -30 -63 -30 -62 0 -95 -23 -95 -66 0 -27 6
-36 30 -49 35 -18 151 -20 168 -3 7 7 12 44 12 95 0 72 -2 83 -17 83 -10 0
-26 -14 -35 -30z m-10 -93 c2 -26 -1 -39 -12 -43 -35 -13 -102 23 -93 50 6 17
49 36 77 34 21 -3 25 -9 28 -41z"/>
<path d="M17714 10185 c0 -88 2 -123 3 -77 2 46 2 118 0 160 -1 42 -3 5 -3
-83z"/>
<path d="M4 10180 c0 -85 2 -120 3 -77 2 42 2 112 0 155 -1 42 -3 7 -3 -78z"/>
<path d="M5899 10288 c-2 -24 -3 -62 -1 -85 3 -38 6 -43 27 -43 17 0 25 6 27
23 3 19 11 23 63 30 110 16 147 58 83 97 -26 16 -50 20 -114 20 l-82 0 -3 -42z
m163 4 c5 -5 7 -19 3 -31 -5 -18 -14 -21 -61 -21 -47 0 -54 3 -54 19 0 45 11
54 57 48 25 -2 49 -9 55 -15z"/>
<path d="M7378 10305 c-3 -13 -3 -47 0 -74 3 -40 9 -51 29 -60 30 -14 103 -14
103 -1 0 6 -10 10 -23 10 -37 0 -59 22 -55 55 2 25 8 31 33 33 39 5 58 22 23
22 -37 0 -58 10 -58 26 0 8 -10 14 -24 14 -17 0 -25 -7 -28 -25z"/>
<path d="M8480 10245 c0 -83 0 -85 24 -85 21 0 25 6 28 33 3 27 7 32 33 35 24
2 38 -5 65 -33 19 -20 44 -35 57 -35 30 0 29 8 -4 43 l-28 29 28 22 c15 12 27
27 27 34 0 22 -70 42 -151 42 l-79 0 0 -85z m162 47 c19 -19 -3 -32 -52 -32
-53 0 -69 12 -49 36 14 17 83 14 101 -4z"/>
<path d="M10425 10308 l-28 -22 22 -17 c12 -10 46 -23 77 -30 63 -14 75 -26
48 -46 -14 -10 -34 -13 -71 -8 -44 5 -53 4 -53 -9 0 -13 13 -16 65 -16 71 0
135 21 135 43 0 20 -37 43 -84 51 -22 4 -49 14 -60 21 -19 14 -18 15 8 25 15
5 42 10 61 10 19 0 37 5 40 10 4 6 -19 10 -63 10 -56 0 -75 -4 -97 -22z"/>
<path d="M6187 10283 c-4 -3 -7 -33 -7 -65 0 -55 1 -58 25 -58 22 0 25 4 25
39 0 57 8 71 40 71 16 0 32 5 35 10 7 11 -107 14 -118 3z"/>
<path d="M6381 10276 c-50 -28 -47 -79 6 -101 91 -38 201 6 176 71 -15 40
-131 58 -182 30z m114 -18 c36 -16 32 -45 -11 -65 -32 -16 -38 -16 -62 -2 -37
20 -39 45 -5 63 34 19 45 19 78 4z"/>
<path d="M6647 10283 c-4 -3 -7 -42 -7 -85 0 -76 1 -78 24 -78 15 0 26 7 29
20 4 16 14 20 51 20 95 0 136 54 80 105 -23 22 -36 25 -99 25 -39 0 -75 -3
-78 -7z m128 -25 c33 -15 33 -51 0 -66 -50 -23 -85 -9 -85 33 0 42 35 56 85
33z"/>
<path d="M6948 10277 c-48 -19 -49 -82 -1 -104 33 -16 147 -18 138 -3 -3 6
-23 10 -43 10 -44 1 -83 24 -56 34 8 3 42 6 75 6 52 0 59 2 59 20 0 41 -104
64 -172 37z m96 -13 c41 -16 -13 -40 -61 -28 -25 7 -25 8 -8 20 20 15 44 18
69 8z"/>
<path d="M7212 10278 c-7 -7 -12 -36 -12 -65 0 -50 1 -53 25 -53 14 0 26 6 27
13 0 6 2 24 3 38 3 47 13 59 44 59 16 0 33 5 36 10 9 15 -108 13 -123 -2z"/>
<path d="M7590 10225 c0 -63 1 -65 25 -65 17 0 25 6 26 18 1 9 3 31 4 47 4 48
-4 65 -31 65 -23 0 -24 -3 -24 -65z"/>
<path d="M7759 10275 c-48 -26 -47 -75 2 -100 32 -17 139 -20 139 -5 0 6 -15
10 -34 10 -19 0 -47 5 -63 11 -26 10 -27 12 -8 19 11 5 46 9 78 9 49 1 57 4
57 20 0 45 -112 68 -171 36z m110 -19 c16 -20 -16 -29 -65 -20 -37 7 -37 7
-13 20 32 17 64 17 78 0z"/>
<path d="M8020 10275 c-20 -24 -4 -44 45 -56 61 -15 61 -39 0 -39 -25 0 -45
-4 -45 -10 0 -15 112 -12 133 4 9 7 17 17 17 22 0 13 -30 30 -68 39 -44 9 -42
35 2 35 19 0 38 5 41 10 11 17 -111 12 -125 -5z"/>
<path d="M8226 10275 c-4 -11 2 -15 24 -15 20 0 30 5 30 15 0 9 -9 15 -24 15
-13 0 -26 -7 -30 -15z"/>
<path d="M8825 10280 c3 -5 21 -10 38 -10 35 0 66 -15 54 -26 -3 -4 -29 -9
-57 -12 -36 -3 -55 -11 -65 -25 -22 -32 6 -46 92 -47 62 0 72 2 78 20 10 30
-5 90 -26 100 -24 13 -122 13 -114 0z m94 -76 c11 -10 -15 -24 -45 -24 -36 0
-49 25 -16 33 15 4 52 -1 61 -9z"/>
<path d="M9046 10274 c-3 -9 -6 -38 -6 -65 0 -49 1 -50 27 -47 24 3 28 8 29
38 1 67 3 70 30 70 48 0 64 -17 64 -65 0 -41 2 -45 25 -45 23 0 25 3 25 49 0
41 -4 51 -25 65 -34 22 -160 23 -169 0z"/>
<path d="M9628 10269 c-60 -45 -12 -109 82 -109 48 0 110 30 110 52 -1 56 -33
78 -113 78 -36 -1 -60 -7 -79 -21z m116 -10 c43 -20 42 -45 -2 -68 -17 -9 -31
-9 -57 -1 -44 15 -50 34 -18 60 30 23 42 24 77 9z"/>
<path d="M9896 10274 c-3 -9 -6 -38 -6 -65 0 -46 2 -49 25 -49 21 0 25 5 26
33 2 55 3 59 21 70 12 8 24 8 42 -1 22 -10 26 -18 26 -57 0 -41 2 -45 25 -45
19 0 25 5 26 23 1 12 2 29 3 37 2 8 3 23 4 33 2 20 40 23 65 5 9 -7 17 -31 19
-53 2 -32 7 -40 23 -40 16 0 21 8 23 44 6 75 -6 80 -173 80 -120 0 -144 -2
-149 -15z"/>
<path d="M10697 10277 c-29 -12 -43 -43 -33 -74 12 -38 108 -55 173 -31 35 13
50 41 39 75 -12 37 -116 55 -179 30z m130 -33 c16 -22 7 -40 -27 -54 -45 -19
-106 12 -93 46 13 35 95 41 120 8z"/>
<path d="M10950 10240 c0 -45 3 -51 30 -65 35 -18 141 -20 158 -3 7 7 12 36
12 65 0 50 -2 53 -25 53 -26 0 -40 -28 -34 -66 5 -27 -9 -44 -34 -44 -39 1
-59 25 -59 69 1 37 -2 41 -24 41 -22 0 -24 -4 -24 -50z"/>
<path d="M11241 10276 c-7 -8 -11 -36 -9 -63 3 -44 5 -48 28 -48 22 0 25 5 26
36 2 53 10 69 36 69 13 0 30 5 38 10 11 7 -3 10 -46 10 -41 0 -65 -5 -73 -14z"/>
<path d="M11435 10277 c-29 -17 -34 -28 -31 -60 4 -32 2 -29 39 -45 34 -15
127 -16 127 -2 0 6 -13 10 -29 10 -15 0 -42 5 -60 11 -62 22 -27 79 49 79 16
0 32 5 35 10 9 14 -105 12 -130 -3z"/>
<path d="M11643 10272 c-12 -9 -25 -29 -28 -44 -6 -23 -2 -30 27 -48 35 -21
148 -29 148 -10 0 6 -17 10 -39 10 -21 0 -51 6 -65 14 l-26 13 37 7 c21 3 59
6 84 6 43 0 46 2 42 23 -8 43 -136 64 -180 29z m116 -16 c9 -11 7 -15 -10 -19
-12 -3 -35 -3 -51 0 -23 4 -26 8 -17 19 15 18 63 18 78 0z"/>
<path d="M8230 10175 c0 -9 9 -15 25 -15 16 0 25 6 25 15 0 9 -9 15 -25 15
-16 0 -25 -6 -25 -15z"/>
<path d="M1976 9793 c-3 -4 -6 -43 -6 -88 0 -78 1 -82 26 -94 32 -14 54 -3 29
15 -15 11 -18 27 -18 88 0 52 -3 76 -12 80 -7 2 -16 2 -19 -1z"/>
<path d="M492 9758 c-125 -60 -9 -178 152 -154 44 7 46 9 46 40 0 18 -3 36 -7
39 -10 10 -33 -13 -33 -34 0 -44 -111 -31 -149 17 -39 50 16 94 119 94 38 0
59 4 55 10 -12 19 -137 11 -183 -12z"/>
<path d="M3155 9766 c-3 -9 -7 -23 -10 -31 -3 -10 -18 -15 -50 -15 -81 0 -130
-44 -104 -92 22 -40 123 -61 184 -38 25 10 26 11 23 97 -3 74 -6 88 -21 91 -9
2 -19 -4 -22 -12z m-10 -86 c22 -24 13 -65 -16 -73 -36 -10 -94 15 -97 41 -7
48 77 72 113 32z"/>
<path d="M4687 9774 c-4 -4 -7 -15 -7 -25 0 -22 -20 -29 -79 -29 -37 0 -54 -6
-75 -25 -28 -26 -29 -29 -20 -62 11 -41 125 -67 189 -43 25 10 26 11 23 97 -3
79 -12 106 -31 87z m-21 -99 c33 -50 -7 -84 -75 -62 -27 9 -37 18 -39 38 -6
48 85 68 114 24z"/>
<path d="M2730 9708 c-22 -29 -50 -68 -61 -85 l-21 -33 25 0 c13 0 30 7 37 15
18 22 156 21 168 -1 5 -10 19 -14 37 -12 l28 3 -62 83 c-76 102 -92 105 -151
30z m106 -60 c-16 -11 -84 -10 -90 1 -4 5 6 23 20 41 l27 31 27 -33 c19 -23
24 -35 16 -40z"/>
<path d="M5370 9675 c0 -96 -7 -90 95 -86 105 5 165 36 165 86 0 27 -39 65
-68 65 -11 0 -24 5 -27 10 -3 6 -42 10 -86 10 l-79 0 0 -85z m194 40 c56 -51
7 -116 -88 -114 -63 1 -71 8 -74 66 -2 29 -1 57 3 63 3 5 35 10 69 10 53 0 67
-4 90 -25z"/>
<path d="M7419 9759 c0 -2 -3 -33 -5 -67 -7 -84 8 -102 80 -101 28 1 42 3 31
6 -11 2 -30 6 -42 9 -51 10 -56 93 -5 95 15 0 36 4 47 9 16 7 12 9 -19 9 -26
1 -48 8 -63 23 -13 12 -23 20 -24 17z"/>
<path d="M7847 9754 c-4 -4 -7 -38 -7 -75 0 -66 0 -67 35 -83 22 -11 44 -14
62 -10 26 7 26 8 -17 18 -44 11 -45 12 -45 51 0 39 1 40 40 43 58 5 69 22 13
22 -35 0 -49 5 -59 21 -8 11 -17 17 -22 13z"/>
<path d="M793 9720 c-42 -25 -46 -71 -9 -95 31 -21 118 -31 142 -17 16 9 10
11 -31 12 -34 0 -58 7 -75 20 l-25 20 83 0 c68 0 84 3 89 17 4 11 -3 24 -23
40 -37 30 -106 31 -151 3z m112 -20 c0 -17 -43 -25 -82 -15 -24 6 -25 7 -7 20
25 19 89 15 89 -5z"/>
<path d="M1016 9718 c-3 -13 -6 -42 -6 -65 0 -36 3 -43 20 -43 15 0 20 7 20
29 0 16 4 41 10 55 8 21 16 26 44 26 42 0 66 -28 66 -77 0 -28 4 -33 23 -33
22 0 24 4 22 45 0 24 -3 46 -6 48 -36 30 -60 37 -120 37 -61 0 -67 -2 -73 -22z"/>
<path d="M1330 9727 c-32 -15 -40 -26 -40 -59 0 -18 8 -33 24 -43 31 -21 118
-31 142 -17 16 10 12 11 -24 12 -24 0 -57 8 -75 18 l-32 17 82 5 c88 5 97 9
87 34 -15 40 -108 59 -164 33z m103 -21 c8 -20 -2 -26 -43 -26 -43 0 -54 8
-39 27 15 17 75 17 82 -1z"/>
<path d="M1552 9728 c-7 -7 -12 -36 -12 -65 0 -48 2 -53 23 -53 19 0 22 6 24
45 2 58 7 65 48 65 19 0 37 5 40 10 9 15 -108 13 -123 -2z"/>
<path d="M1750 9730 c0 -5 17 -10 39 -10 42 0 74 -23 45 -34 -8 -3 -32 -6 -52
-6 -73 -1 -98 -60 -30 -74 39 -8 102 -8 122 0 23 9 22 102 -1 120 -21 16 -123
19 -123 4z m104 -85 c-1 -16 -48 -29 -77 -21 -18 4 -24 11 -20 22 4 11 17 14
52 12 25 -2 46 -7 45 -13z"/>
<path d="M2 9710 c0 -14 2 -19 5 -12 2 6 2 18 0 25 -3 6 -5 1 -5 -13z"/>
<path d="M17714 9640 c0 -52 1 -74 3 -47 2 26 2 68 0 95 -2 26 -3 4 -3 -48z"/>
<path d="M3250 9714 c0 -3 16 -30 36 -60 59 -88 84 -92 134 -18 35 53 41 77
18 82 -15 3 -38 -26 -54 -70 -11 -30 -31 -20 -61 27 -19 30 -35 44 -50 45 -13
0 -23 -3 -23 -6z"/>
<path d="M3550 9710 c0 -5 17 -10 39 -10 42 0 74 -23 45 -34 -8 -3 -33 -6 -53
-6 -25 0 -44 -7 -56 -20 -17 -19 -17 -22 -2 -37 18 -18 110 -29 152 -19 23 6
25 11 25 56 0 39 -4 52 -22 64 -25 18 -128 22 -128 6z m107 -86 c2 -6 -6 -14
-18 -17 -32 -9 -79 3 -79 20 0 11 11 13 47 11 25 -2 48 -8 50 -14z"/>
<path d="M3783 9713 c-9 -3 -13 -26 -13 -64 0 -55 2 -59 23 -59 20 0 23 4 19
34 -6 50 12 76 52 76 41 0 56 -17 59 -66 2 -34 5 -39 27 -39 26 0 27 4 21 82
-2 23 -58 43 -118 42 -32 0 -64 -3 -70 -6z"/>
<path d="M4079 9705 c-28 -15 -40 -43 -32 -74 9 -36 124 -66 161 -42 9 5 -2
10 -33 14 -61 9 -85 23 -85 51 0 27 35 46 85 46 19 0 35 5 35 10 0 15 -101 11
-131 -5z"/>
<path d="M4288 9703 c-23 -12 -28 -21 -28 -52 0 -36 3 -40 40 -55 45 -18 107
-21 130 -6 12 7 8 10 -15 10 -39 0 -105 19 -105 29 0 5 36 11 79 12 44 2 83 8
88 12 4 5 -7 22 -25 38 -27 25 -40 29 -85 28 -28 -1 -64 -8 -79 -16z m115 -17
c3 -8 3 -17 0 -20 -8 -8 -67 -8 -88 1 -15 5 -14 8 6 19 32 18 76 17 82 0z"/>
<path d="M5751 9705 c-32 -18 -44 -41 -37 -71 4 -15 14 -24 26 -24 11 0 20 -4
20 -10 0 -5 25 -10 55 -10 70 0 105 21 105 61 0 56 -105 89 -169 54z m122 -19
c26 -20 22 -61 -8 -74 -51 -24 -103 -10 -118 31 -16 44 80 77 126 43z"/>
<path d="M6033 9700 c-27 -16 -33 -26 -33 -52 0 -27 5 -35 28 -45 46 -19 77
-23 107 -14 29 9 28 9 -12 10 -60 1 -93 19 -93 49 0 31 26 51 65 52 17 0 37 5
45 10 31 20 -74 10 -107 -10z"/>
<path d="M6216 9713 c-3 -3 -6 -23 -6 -44 0 -61 27 -79 118 -79 62 0 73 2 68
15 -3 8 -1 15 3 15 8 0 3 79 -5 89 -2 2 -11 1 -20 -3 -13 -5 -14 -9 -5 -20 9
-10 9 -16 1 -21 -6 -4 -9 -14 -6 -22 14 -36 -41 -56 -87 -32 -30 16 -37 28
-37 66 0 31 -11 48 -24 36z"/>
<path d="M6513 9713 c-19 -7 -18 -123 1 -123 11 0 16 15 18 53 l3 52 44 3 c52
4 61 -6 61 -65 0 -32 4 -43 15 -43 11 0 15 11 15 43 0 53 13 67 62 67 33 0 40
-4 49 -27 6 -16 9 -40 6 -55 -4 -31 7 -36 29 -14 18 19 18 26 -3 42 -11 8 -13
13 -5 14 18 0 15 17 -7 39 -16 16 -35 19 -147 19 -71 0 -135 -3 -141 -5z"/>
<path d="M6913 9700 c-22 -13 -33 -27 -33 -42 0 -47 39 -69 117 -66 l58 1 -50
6 c-80 10 -116 40 -49 42 71 2 124 12 124 22 0 21 -65 57 -101 57 -19 0 -49
-9 -66 -20z m116 -14 c15 -17 -5 -26 -59 -26 -41 0 -62 16 -39 31 22 14 85 10
98 -5z"/>
<path d="M7148 9709 c-26 -15 -23 -119 3 -119 5 0 9 18 9 39 0 63 6 71 59 71
40 0 49 -4 68 -32 16 -23 19 -35 12 -44 -13 -15 -4 -34 16 -34 9 0 14 12 13
40 -1 58 -41 90 -111 90 -29 0 -60 -5 -69 -11z"/>
<path d="M7630 9710 c8 -5 25 -10 38 -10 30 0 64 -18 57 -31 -4 -5 -26 -9 -51
-9 -28 0 -43 -4 -39 -10 3 -5 26 -10 51 -10 31 0 44 -4 44 -14 0 -16 -21 -26
-55 -26 -34 0 -55 10 -55 26 0 8 -7 14 -16 14 -10 0 -14 -7 -12 -22 2 -19 11
-24 48 -29 25 -3 62 -4 83 -1 37 5 37 5 37 52 0 59 -26 80 -97 80 -35 0 -44
-3 -33 -10z"/>
<path d="M8018 9655 c-2 -54 0 -65 12 -63 11 3 15 18 15 62 0 86 -22 86 -27 1z"/>
<path d="M8153 9700 c-42 -25 -46 -69 -8 -94 44 -29 150 -18 177 19 20 26 7
55 -32 75 -50 25 -96 25 -137 0z m125 -20 c29 -27 28 -44 -3 -64 -48 -31 -125
-12 -125 32 0 14 8 31 18 38 26 21 85 17 110 -6z"/>
<path d="M8423 9712 c-10 -7 -16 -48 -14 -99 1 -13 7 -23 16 -23 10 0 13 10
11 38 -5 57 7 72 58 72 36 0 47 -5 61 -26 10 -15 15 -38 13 -55 -4 -23 -1 -29
14 -29 15 0 18 8 18 44 0 38 -4 48 -29 65 -30 21 -122 30 -148 13z"/>
<path d="M0 9596 c0 -9 5 -16 10 -16 6 0 10 4 10 9 0 6 -4 13 -10 16 -5 3 -10
-1 -10 -9z"/>
<path d="M2 9500 c0 -14 2 -19 5 -12 2 6 2 18 0 25 -3 6 -5 1 -5 -13z"/>
<path d="M0 9434 c0 -8 5 -12 10 -9 6 4 8 11 5 16 -9 14 -15 11 -15 -7z"/>
<path d="M2897 9223 c-4 -3 -7 -44 -7 -90 l0 -83 78 0 c102 0 152 18 174 61
24 50 2 84 -68 104 -53 15 -165 21 -177 8z m166 -28 c37 -15 51 -44 37 -80
-11 -30 -57 -47 -116 -43 l-49 3 -3 62 c-2 52 0 62 15 66 37 10 82 7 116 -8z"/>
<path d="M6707 9223 c-4 -3 -7 -41 -7 -84 0 -85 12 -109 56 -109 27 0 31 12 9
30 -11 9 -15 33 -15 85 0 57 -3 74 -16 79 -19 7 -19 7 -27 -1z"/>
<path d="M8540 9221 c-8 -3 -15 -12 -16 -18 -1 -7 -2 -17 -2 -23 -1 -5 -26
-10 -56 -10 -71 0 -115 -32 -108 -79 6 -43 47 -61 137 -61 84 0 82 -3 83 117
0 72 -7 87 -38 74z m-23 -93 c23 -32 0 -78 -40 -78 -27 0 -77 29 -77 45 0 38
93 64 117 33z"/>
<path d="M2750 9142 c0 -83 3 -94 26 -85 10 4 14 26 14 84 0 72 -2 79 -20 79
-18 0 -20 -7 -20 -78z"/>
<path d="M11754 9191 c-33 -20 -46 -62 -34 -109 10 -44 110 -68 163 -40 64 33
71 92 17 141 -37 33 -99 37 -146 8z m112 -28 c27 -36 15 -89 -23 -104 -25 -9
-60 2 -75 25 -14 20 -8 69 10 82 24 19 72 17 88 -3z"/>
<path d="M5945 9160 c-4 -6 6 -10 24 -10 37 0 81 -16 81 -30 0 -5 -18 -10 -40
-10 -40 0 -100 -23 -100 -38 0 -5 6 -16 13 -26 10 -14 26 -16 92 -14 l80 3 6
44 c5 39 3 48 -19 68 -20 18 -36 23 -78 23 -29 0 -56 -4 -59 -10z m104 -79
c23 -15 2 -31 -40 -31 -37 0 -51 15 -32 33 9 10 55 8 72 -2z"/>
<path d="M6182 9161 c-9 -5 -12 -26 -10 -67 3 -51 6 -59 23 -59 17 0 20 8 23
53 l3 52 45 0 c38 0 46 -4 54 -24 5 -13 6 -34 3 -46 -6 -24 10 -40 40 -40 29
0 24 84 -8 115 -21 22 -33 25 -92 25 -37 0 -74 -4 -81 -9z"/>
<path d="M6480 9160 c-11 -7 -7 -10 17 -10 39 0 83 -16 83 -30 0 -5 -21 -10
-46 -10 -54 0 -84 -14 -84 -38 0 -33 22 -42 102 -42 l78 0 2 33 c2 56 -2 72
-23 90 -23 19 -104 23 -129 7z m99 -79 c22 -14 3 -31 -34 -31 -35 0 -51 12
-40 30 8 12 55 13 74 1z"/>
<path d="M6873 9150 c-27 -16 -33 -26 -33 -55 0 -28 5 -37 30 -50 16 -8 52
-15 80 -15 28 0 64 7 80 15 25 13 30 22 30 50 0 29 -6 39 -32 55 -20 12 -51
20 -78 20 -27 0 -58 -8 -77 -20z m121 -16 c27 -10 20 -59 -9 -72 -37 -17 -58
-15 -83 8 -26 25 -27 33 -6 54 15 16 69 21 98 10z"/>
<path d="M7153 9150 c-25 -15 -33 -27 -33 -47 0 -16 4 -33 8 -39 13 -19 50
-34 86 -34 19 0 38 -4 41 -10 4 -6 -17 -10 -54 -10 -34 0 -61 -4 -61 -10 0 -6
28 -10 65 -10 78 0 125 20 126 53 0 12 2 39 4 59 6 54 -13 68 -88 68 -44 0
-71 -6 -94 -20z m127 -44 c0 -53 -31 -69 -85 -44 -18 8 -25 19 -25 39 0 23 6
28 38 36 55 14 72 6 72 -31z"/>
<path d="M7675 9156 c-15 -11 -18 -24 -16 -67 1 -30 4 -56 6 -57 2 -2 13 -1
24 3 17 5 21 15 21 50 0 49 17 65 65 65 15 0 24 4 20 10 -9 15 -98 12 -120 -4z"/>
<path d="M7855 9160 c-4 -6 6 -10 24 -10 37 0 81 -16 81 -30 0 -5 -18 -10 -40
-10 -42 0 -100 -23 -100 -40 0 -28 34 -40 110 -40 l78 0 3 33 c7 57 -1 84 -27
96 -31 14 -121 15 -129 1z m104 -79 c23 -15 2 -31 -40 -31 -37 0 -51 15 -32
33 9 10 55 8 72 -2z"/>
<path d="M8092 9161 c-9 -5 -12 -26 -10 -67 3 -51 6 -59 23 -59 15 0 21 8 23
30 7 77 18 90 69 76 25 -7 29 -13 33 -57 5 -44 7 -49 30 -49 23 0 25 4 26 50
1 46 -1 51 -30 67 -33 18 -141 24 -164 9z"/>
<path d="M8673 9150 c-73 -44 -23 -120 80 -120 81 0 128 38 112 90 -15 47
-135 65 -192 30z m128 -20 c26 -15 24 -45 -6 -64 -29 -19 -45 -20 -80 -4 -30
13 -34 52 -7 67 22 13 68 14 93 1z"/>
<path d="M8943 9163 c-9 -3 -13 -27 -13 -70 0 -61 1 -64 23 -61 19 3 22 10 25
56 l3 53 42 -3 42 -3 3 -45 c4 -53 12 -64 41 -55 18 5 21 14 21 55 0 52 13 65
55 54 25 -6 35 -29 35 -81 0 -35 9 -40 41 -23 14 8 18 18 14 35 -3 14 -7 35
-10 48 -2 13 -15 28 -28 34 -23 11 -270 16 -294 6z"/>
<path d="M9588 9163 c-19 -5 -33 -37 -23 -53 3 -5 22 -12 43 -16 74 -13 79
-44 6 -44 -24 0 -44 -4 -44 -10 0 -6 28 -10 63 -10 49 0 68 4 80 18 10 10 17
21 17 25 0 11 -58 37 -84 37 -24 0 -44 16 -33 27 3 2 24 7 46 10 23 3 41 10
41 14 0 9 -81 10 -112 2z"/>
<path d="M9803 9150 c-25 -15 -33 -27 -33 -47 0 -16 4 -33 8 -38 24 -35 131
-46 182 -20 54 28 51 86 -7 110 -49 21 -112 19 -150 -5z m128 -20 c10 -6 19
-19 19 -29 0 -20 -39 -51 -65 -51 -25 0 -65 31 -65 51 0 34 68 52 111 29z"/>
<path d="M10067 9163 c-4 -3 -7 -28 -7 -54 0 -39 4 -49 25 -63 29 -19 155 -22
173 -4 12 12 17 109 7 120 -3 3 -16 3 -30 0 -21 -4 -24 -10 -27 -56 -3 -45 -6
-51 -27 -54 -43 -6 -71 17 -71 58 0 44 -24 73 -43 53z"/>
<path d="M10355 9154 c-11 -12 -15 -31 -13 -68 3 -43 6 -51 23 -51 15 0 21 8
23 30 6 68 10 75 52 81 58 9 49 24 -14 24 -37 0 -60 -5 -71 -16z"/>
<path d="M10553 9154 c-54 -23 -56 -82 -3 -109 32 -17 140 -21 140 -5 0 6 -18
10 -40 10 -48 0 -90 24 -90 52 0 22 53 48 100 48 18 0 29 4 25 10 -9 14 -94
11 -132 -6z"/>
<path d="M10765 9155 c-30 -13 -49 -53 -38 -81 9 -24 64 -44 125 -44 32 0 58
4 58 10 0 6 -21 10 -47 10 -46 1 -90 20 -76 33 3 4 39 7 80 7 67 0 73 2 73 20
0 48 -106 75 -175 45z m110 -30 c0 -5 -22 -11 -49 -13 -45 -3 -48 -2 -36 13
15 18 85 18 85 0z"/>
<path d="M11226 9162 c-3 -5 6 -19 19 -30 31 -27 31 -33 0 -60 -14 -12 -25
-26 -25 -32 0 -17 36 -11 55 10 23 25 43 25 75 0 30 -23 60 -26 60 -5 0 8 -3
15 -7 15 -5 1 -19 10 -33 21 l-25 21 34 29 c28 23 31 29 18 35 -9 3 -29 -3
-46 -15 l-30 -22 -40 21 c-46 23 -48 23 -55 12z"/>
<path d="M1 9124 c0 -11 3 -14 6 -6 3 7 2 16 -1 19 -3 4 -6 -2 -5 -13z"/>
<path d="M7380 9000 c0 -6 45 -10 116 -10 74 0 113 4 109 10 -4 6 -53 10 -116
10 -66 0 -109 -4 -109 -10z"/>
<path d="M9290 9000 c0 -6 45 -10 115 -10 70 0 115 4 115 10 0 6 -45 10 -115
10 -70 0 -115 -4 -115 -10z"/>
<path d="M10950 9000 c0 -6 45 -10 116 -10 74 0 113 4 109 10 -4 6 -53 10
-116 10 -66 0 -109 -4 -109 -10z"/>
<path d="M11445 9000 c-4 -6 35 -10 109 -10 71 0 116 4 116 10 0 6 -43 10
-109 10 -63 0 -112 -4 -116 -10z"/>
<path d="M0 8940 c0 -19 3 -21 12 -12 9 9 9 15 0 24 -9 9 -12 7 -12 -12z"/>
<path d="M1713 8629 c-29 -18 -33 -26 -33 -64 0 -56 30 -77 118 -83 68 -5 116
9 145 41 33 38 16 77 -50 115 -37 20 -143 15 -180 -9z m160 -8 c13 -5 30 -23
37 -40 12 -29 11 -33 -14 -56 -21 -20 -38 -25 -77 -25 -66 0 -99 22 -99 65 0
22 7 37 23 48 25 18 93 22 130 8z"/>
<path d="M2283 8625 c-6 -14 -7 -27 -2 -31 5 -3 9 -24 9 -48 0 -55 13 -66 75
-65 l50 2 -47 10 -48 10 0 42 c0 42 0 43 43 50 l42 8 -42 9 c-27 6 -43 15 -43
24 0 23 -24 16 -37 -11z"/>
<path d="M3030 8635 c0 -9 -7 -18 -16 -22 -15 -5 -15 -7 0 -15 11 -6 16 -23
16 -52 0 -51 24 -69 86 -64 l39 4 -40 8 c-46 10 -55 20 -55 62 0 29 3 32 43
39 l42 8 -42 10 c-25 6 -43 16 -43 23 0 8 -7 14 -15 14 -8 0 -15 -7 -15 -15z"/>
<path d="M3314 8643 c4 -4 28 -10 54 -13 l47 -5 3 -72 c3 -64 5 -73 22 -73 17
0 19 7 17 73 l-2 72 47 5 c91 11 60 20 -67 20 -71 0 -125 -3 -121 -7z"/>
<path d="M5907 8623 c-4 -3 -7 -42 -7 -85 l0 -78 83 0 c121 0 181 35 126 72
-18 11 -20 18 -11 34 12 23 -1 54 -23 54 -11 0 -13 -8 -9 -29 6 -26 3 -30 -26
-36 -17 -4 -52 -4 -76 0 -34 5 -44 10 -44 25 0 25 13 32 71 34 76 4 71 16 -8
16 -38 0 -73 -3 -76 -7z m163 -100 l28 -16 -24 -20 c-43 -33 -162 -11 -148 28
11 28 102 33 144 8z"/>
<path d="M6467 8624 c-4 -4 -7 -36 -7 -72 0 -78 13 -92 85 -91 28 1 41 3 30 6
-77 17 -85 23 -85 63 l0 39 53 8 52 7 -48 7 c-27 4 -54 15 -61 24 -6 9 -15 13
-19 9z"/>
<path d="M2001 8556 c2 -49 5 -56 29 -66 15 -6 58 -10 96 -8 l69 3 3 63 c3 55
1 62 -16 62 -15 0 -19 -8 -20 -42 -3 -69 -44 -95 -102 -65 -18 9 -24 19 -22
36 5 35 -7 71 -23 71 -12 0 -15 -12 -14 -54z"/>
<path d="M2467 8603 c-9 -14 -7 -158 2 -172 12 -19 33 -4 29 22 -3 20 2 22 61
25 81 4 111 22 111 69 0 26 -5 36 -20 40 -11 3 -20 9 -20 14 0 11 -157 12
-163 2z m138 -15 c27 -12 35 -57 13 -75 -20 -16 -71 -22 -90 -12 -34 18 -39
44 -15 72 24 28 53 33 92 15z"/>
<path d="M2749 8598 c-4 -47 5 -94 19 -105 10 -7 48 -12 94 -13 l77 0 3 33 c6
61 -3 97 -23 97 -19 0 -26 -24 -10 -34 11 -7 -12 -58 -35 -77 -11 -9 -25 -10
-52 -3 -36 9 -37 10 -40 62 -2 37 -7 52 -18 52 -7 0 -14 -6 -15 -12z"/>
<path d="M3520 8590 c0 -10 9 -24 21 -30 11 -7 18 -18 15 -25 -2 -7 4 -21 15
-31 30 -27 20 -56 -21 -68 l-35 -10 35 -4 c19 -2 36 1 38 7 2 6 9 11 16 11 7
0 18 10 25 23 6 12 19 34 29 49 61 93 63 98 42 98 -11 0 -25 -10 -31 -22 -28
-55 -79 -89 -79 -53 0 9 -6 18 -14 21 -8 3 -17 16 -20 30 -8 29 -36 32 -36 4z"/>
<path d="M3777 8603 c-4 -3 -7 -46 -7 -95 0 -79 2 -89 17 -86 11 2 18 13 18
28 0 24 3 25 68 28 37 2 67 7 67 12 0 6 6 10 14 10 18 0 30 34 22 63 -3 12
-18 28 -33 35 -28 13 -155 17 -166 5z m138 -15 c19 -9 25 -19 25 -44 0 -36
-13 -44 -67 -44 -44 0 -78 32 -63 61 20 37 60 48 105 27z"/>
<path d="M4073 8596 c-35 -17 -34 -71 0 -98 16 -13 40 -17 92 -17 l70 1 -65
12 c-119 22 -116 46 7 46 84 0 99 13 57 47 -23 18 -40 23 -84 22 -30 -1 -65
-6 -77 -13z m132 -20 c12 -12 11 -15 -8 -20 -29 -8 -81 -8 -101 0 -13 5 -14 9
-5 20 15 18 96 18 114 0z"/>
<path d="M7410 8606 c0 -1 23 -17 51 -35 54 -33 93 -39 118 -17 9 8 34 23 56
35 31 17 35 21 17 21 -12 0 -22 -4 -22 -10 0 -5 -9 -10 -20 -10 -11 0 -20 -4
-20 -10 0 -5 -8 -10 -18 -10 -10 0 -23 -5 -30 -12 -9 -9 -15 -9 -24 0 -7 7
-20 12 -30 12 -10 0 -18 5 -18 10 0 6 -7 10 -15 10 -8 0 -15 5 -15 10 0 6 -7
10 -15 10 -8 0 -15 -2 -15 -4z"/>
<path d="M6208 8565 c2 -14 13 -30 23 -36 11 -5 19 -16 19 -25 0 -8 7 -17 15
-20 8 -4 15 -15 15 -25 0 -10 2 -19 5 -19 11 0 53 50 58 69 6 24 -18 30 -27 6
-3 -8 -11 -15 -17 -15 -16 0 -57 45 -61 67 -2 10 -10 19 -19 21 -13 2 -15 -3
-11 -23z"/>
<path d="M6357 8583 c-4 -3 -7 -15 -7 -25 0 -26 24 -17 28 10 3 21 -8 29 -21
15z"/>
<path d="M6680 8580 c0 -5 -6 -10 -14 -10 -24 0 -38 -27 -31 -60 5 -21 13 -30
26 -30 10 0 19 -4 19 -10 0 -6 27 -9 63 -9 l62 2 -50 6 c-53 7 -101 28 -90 39
4 4 46 10 93 13 60 4 80 8 65 13 -13 5 -20 13 -17 18 11 17 -31 37 -78 38 -27
0 -48 -4 -48 -10z m103 -19 c3 -12 -1 -22 -10 -25 -20 -8 -74 -6 -98 3 -18 7
-17 9 10 24 43 23 91 22 98 -2z"/>
<path d="M5019 7685 c-415 -557 -619 -823 -629 -821 -8 3 -32 7 -52 11 -56 9
-51 35 6 35 25 0 48 5 51 10 8 13 -90 13 -116 0 -43 -23 -15 -54 60 -66 22 -4
41 -10 41 -13 0 -19 -29 -31 -75 -32 -49 -1 -49 -1 -15 -10 19 -4 41 -6 48 -4
8 3 12 1 10 -4 -1 -6 -257 -352 -568 -769 l-565 -759 -9 41 -8 41 -39 -100
c-21 -55 -42 -108 -45 -118 -4 -12 31 9 90 53 53 40 96 75 96 78 0 2 -16 2
-35 -1 -19 -3 -35 -4 -35 -1 0 13 1119 1506 1153 1538 23 21 42 47 43 56 1 13
1145 1563 1212 1643 8 9 11 17 5 17 -6 0 -286 -371 -624 -825z"/>
<path d="M6205 8430 c-16 -7 -11 -9 20 -9 29 -1 36 2 25 9 -17 11 -19 11 -45
0z"/>
<path d="M2365 8090 c-3 -5 -1 -10 4 -10 6 0 11 5 11 10 0 6 -2 10 -4 10 -3 0
-8 -4 -11 -10z"/>
<path d="M2755 8090 c-3 -5 -1 -10 4 -10 6 0 11 5 11 10 0 6 -2 10 -4 10 -3 0
-8 -4 -11 -10z"/>
<path d="M2009 8078 c-5 -13 -3 -152 2 -160 4 -6 14 -8 22 -5 12 4 14 15 10
41 -7 45 3 74 19 58 17 -17 38 -15 38 3 0 32 -31 65 -61 65 -16 0 -29 -1 -30
-2z"/>
<path d="M2222 8068 c-6 -6 -12 -17 -12 -24 0 -6 -7 -14 -15 -18 -8 -3 -15
-15 -15 -26 0 -21 -33 -29 -45 -10 -11 18 -25 10 -25 -15 0 -18 7 -26 26 -31
26 -7 46 8 81 63 10 16 13 16 22 3 6 -8 11 -34 11 -57 0 -23 4 -44 9 -47 18
-11 27 21 27 94 -1 72 -2 75 -26 78 -14 2 -31 -3 -38 -10z"/>
<path d="M3 8035 c0 -22 2 -30 4 -17 2 12 2 30 0 40 -3 9 -5 -1 -4 -23z"/>
<path d="M5955 8047 c-23 -12 -57 -75 -44 -83 5 -3 9 -15 9 -27 0 -30 51 -57
107 -57 102 0 143 122 56 168 -26 14 -100 14 -128 -1z m119 -59 c8 -39 -16
-78 -47 -78 -65 0 -95 85 -40 113 39 21 79 5 87 -35z"/>
<path d="M2360 7976 c0 -53 3 -66 15 -66 13 0 15 11 13 62 -2 38 -8 63 -15 66
-10 3 -13 -14 -13 -62z"/>
<path d="M2469 8036 c0 -1 -2 -21 -4 -46 -4 -56 2 -80 21 -80 10 0 14 12 14
41 0 48 19 68 66 69 40 0 64 -27 64 -73 0 -26 4 -37 15 -37 11 0 15 12 15 44
0 66 -31 87 -121 84 -38 -1 -69 -2 -70 -2z"/>
<path d="M2756 8033 c-3 -3 -6 -33 -6 -65 0 -45 3 -58 15 -58 12 0 15 13 15
59 0 56 -9 79 -24 64z"/>
<path d="M2854 8031 c-2 -2 -4 -31 -4 -63 0 -42 4 -58 14 -58 8 0 15 16 19 41
6 47 29 68 73 69 37 0 54 -28 47 -77 -7 -45 13 -42 32 3 21 52 19 67 -13 82
-26 11 -157 13 -168 3z"/>
<path d="M3070 8030 c0 -5 14 -10 31 -10 41 0 58 -19 61 -69 2 -30 7 -41 19
-41 28 0 18 84 -12 109 -25 21 -99 29 -99 11z"/>
<path d="M3278 8028 c-2 -7 -3 -30 -2 -51 3 -50 36 -79 84 -72 19 2 51 5 72 5
l36 0 4 60 c3 56 2 60 -19 60 -19 0 -21 -3 -13 -30 5 -16 5 -30 1 -30 -4 0
-13 -11 -19 -25 -12 -26 -41 -32 -89 -19 -18 5 -23 14 -25 57 -3 47 -20 74
-30 45z"/>
<path d="M3560 7973 c0 -49 3 -63 15 -63 11 0 15 11 15 38 0 44 26 72 68 72
39 0 52 -17 52 -67 0 -58 25 -59 34 -1 9 54 21 68 61 68 39 0 62 -24 67 -69 5
-56 28 -51 28 6 0 43 -3 51 -29 66 -34 20 -82 22 -99 5 -9 -9 -19 -9 -45 0
-18 6 -63 11 -100 10 l-67 -2 0 -63z"/>
<path d="M0 7834 c0 -8 5 -12 10 -9 6 4 8 11 5 16 -9 14 -15 11 -15 -7z"/>
<path d="M7120 7543 c-8 -3 -18 -10 -21 -15 -10 -16 -8 -212 3 -225 12 -15
102 -18 93 -3 -3 6 -16 10 -29 10 -22 0 -23 4 -25 97 -1 53 -4 100 -7 104 -2
5 12 11 32 15 25 5 32 9 22 15 -15 10 -45 10 -68 2z"/>
<path d="M9585 7540 l-30 -8 30 -1 c17 -1 35 -5 40 -9 6 -4 10 -52 10 -107 l0
-100 -27 -3 c-48 -6 -31 -23 19 -20 l46 3 0 116 c0 64 -3 122 -7 128 -8 12
-35 13 -81 1z"/>
<path d="M2788 7533 c7 -3 16 -2 19 1 4 3 -2 6 -13 5 -11 0 -14 -3 -6 -6z"/>
<path d="M1947 7523 c-15 -4 -17 -15 -14 -86 2 -64 6 -82 18 -82 10 0 15 14
17 45 4 62 10 76 24 62 36 -36 52 9 18 46 -21 22 -29 24 -63 15z"/>
<path d="M2158 7519 c-10 -5 -18 -17 -18 -24 0 -8 -4 -15 -9 -15 -5 0 -14 -13
-19 -30 -10 -27 -13 -29 -37 -20 -36 14 -37 13 -33 -12 7 -49 80 -23 101 36
13 35 37 -1 37 -55 0 -37 4 -49 15 -49 18 0 17 -4 20 90 3 87 -11 106 -57 79z"/>
<path d="M10280 7505 c0 -8 4 -15 9 -15 5 0 11 7 15 15 3 9 0 15 -9 15 -8 0
-15 -7 -15 -15z"/>
<path d="M10850 7507 c0 -8 -12 -24 -26 -38 -22 -20 -25 -30 -21 -65 5 -48 50
-114 78 -114 25 0 33 17 13 28 -45 25 -47 122 -4 172 26 30 26 30 -10 30 -18
0 -30 -5 -30 -13z"/>
<path d="M10970 7513 c0 -5 9 -23 20 -41 26 -42 26 -96 -1 -134 -16 -22 -19
-32 -10 -41 14 -14 67 44 76 84 8 35 -10 95 -30 103 -8 3 -15 12 -15 21 0 8
-9 15 -20 15 -11 0 -20 -3 -20 -7z"/>
<path d="M6923 7502 c-6 -4 -11 -37 -12 -79 0 -62 2 -74 19 -83 24 -13 120
-13 120 0 0 6 -9 10 -20 10 -41 0 -68 21 -72 56 -4 34 -4 34 44 40 57 8 64 24
11 24 -23 0 -45 7 -58 20 -11 10 -25 16 -32 12z"/>
<path d="M8232 7501 c-8 -4 -12 -34 -11 -79 1 -59 5 -74 19 -82 25 -13 123
-13 115 0 -3 6 -17 10 -29 10 -39 0 -69 31 -61 62 7 26 29 38 73 38 13 0 20 4
17 10 -3 6 -24 10 -46 10 -27 0 -39 4 -39 14 0 17 -22 27 -38 17z"/>
<path d="M10382 7493 c-16 -32 -6 -135 14 -150 21 -15 124 -18 124 -3 0 6 -15
10 -32 10 -44 1 -63 18 -66 58 -2 26 1 32 17 32 10 0 33 3 50 6 27 6 36 2 66
-32 19 -21 35 -43 35 -50 0 -6 7 -15 17 -18 14 -6 14 -8 -3 -21 -10 -8 -31
-15 -46 -15 -16 0 -28 -4 -28 -10 0 -21 75 -9 114 18 60 42 110 142 71 142 -8
0 -15 -3 -15 -7 -1 -5 -14 -23 -29 -41 l-29 -34 -26 29 c-14 15 -26 33 -26 39
0 13 -54 24 -121 24 -38 0 -48 4 -52 20 -6 25 -23 26 -35 3z"/>
<path d="M8649 7493 c-1 -5 -3 -36 -4 -71 -2 -80 12 -94 86 -90 32 2 52 7 49
13 -3 6 -17 9 -32 7 -36 -4 -67 27 -61 61 11 56 143 46 143 -11 0 -7 3 -12 8
-12 4 0 14 -13 23 -29 15 -26 15 -29 -2 -39 -10 -7 -28 -12 -39 -12 -11 0 -20
-4 -20 -10 0 -15 64 -12 95 4 36 19 60 46 91 103 22 41 23 48 9 51 -20 5 -42
-14 -61 -50 l-15 -29 -29 23 c-15 13 -30 30 -33 39 -4 16 -63 29 -129 29 -16
0 -31 6 -34 15 -6 15 -43 21 -45 8z"/>
<path d="M2320 7480 c-11 -7 -3 -10 28 -10 44 0 82 -14 82 -29 0 -5 -28 -11
-61 -14 -70 -6 -101 -26 -83 -55 9 -14 26 -17 95 -17 l84 0 -1 38 c-1 20 -2
44 -3 52 -3 33 -104 59 -141 35z m104 -79 c3 -4 0 -15 -7 -23 -18 -23 -97 -12
-97 13 0 16 8 19 49 19 28 0 52 -4 55 -9z"/>
<path d="M2537 7483 c-4 -3 8 -19 25 -35 l33 -28 -34 -30 c-36 -30 -36 -54 -1
-32 11 7 29 17 39 24 20 12 41 6 83 -24 29 -21 33 1 5 28 -34 31 -34 37 0 69
26 24 27 25 7 25 -12 0 -27 -7 -34 -15 -17 -20 -42 -19 -83 5 -18 11 -37 17
-40 13z"/>
<path d="M2967 7483 c-4 -3 -23 -6 -42 -5 l-35 1 0 -64 c0 -51 3 -65 15 -65
11 0 15 11 15 41 0 47 28 78 72 79 33 0 48 -24 48 -78 0 -36 2 -40 21 -35 16
4 17 8 7 14 -10 7 -10 9 0 9 6 0 12 7 12 15 0 8 -5 15 -11 15 -6 0 -3 7 5 16
26 26 18 39 -29 52 -51 14 -69 15 -78 5z"/>
<path d="M3115 7480 c-17 -7 -16 -9 10 -9 48 -1 73 -25 77 -73 4 -62 28 -62
28 0 0 35 -5 54 -18 65 -23 21 -71 29 -97 17z"/>
<path d="M3643 7483 l-51 -4 2 -62 c2 -45 7 -62 17 -62 9 0 15 14 17 40 4 47
26 75 58 75 45 0 54 -10 54 -60 0 -55 9 -66 36 -45 16 11 17 17 7 34 -10 15
-9 22 2 31 26 21 16 35 -30 48 -25 7 -49 11 -53 10 -4 -1 -30 -3 -59 -5z"/>
<path d="M3825 7480 c-17 -7 -16 -9 10 -9 49 -1 73 -25 77 -74 3 -42 20 -57
26 -23 9 44 -8 84 -42 100 -38 18 -43 18 -71 6z"/>
<path d="M2780 7421 c0 -53 12 -83 27 -68 7 7 11 87 5 110 -2 9 -11 17 -18 17
-10 0 -14 -15 -14 -59z"/>
<path d="M3310 7431 c0 -41 4 -51 25 -65 25 -16 88 -21 143 -10 30 6 30 7 29
65 -1 53 -3 59 -23 59 -17 0 -20 -5 -16 -25 2 -14 -1 -39 -8 -55 -11 -27 -17
-30 -56 -30 -23 0 -46 6 -51 13 -8 12 -9 16 -12 70 0 17 -7 27 -16 27 -11 0
-15 -12 -15 -49z"/>
<path d="M5980 7458 c-50 -14 -60 -26 -60 -67 0 -29 5 -38 27 -48 32 -15 143
-17 143 -3 0 6 -17 10 -38 10 -54 0 -92 20 -92 48 0 24 27 39 88 49 23 4 29 8
20 14 -16 11 -43 10 -88 -3z"/>
<path d="M6172 7453 c-60 -29 -66 -80 -12 -108 37 -19 123 -19 159 0 109 56
-37 163 -147 108z m109 -23 c38 -21 13 -79 -34 -80 -27 0 -77 29 -77 45 0 34
70 56 111 35z"/>
<path d="M6443 7460 c-20 -8 -23 -16 -23 -70 0 -45 3 -60 14 -60 29 0 44 28
39 68 -4 33 -2 40 15 44 42 11 71 -2 78 -37 3 -17 4 -40 2 -51 -5 -29 48 -33
57 -4 14 43 -3 85 -40 103 -38 18 -106 21 -142 7z"/>
<path d="M6709 7450 l-24 -20 23 -20 c13 -11 39 -22 58 -26 54 -10 44 -34 -15
-34 -28 0 -53 -4 -56 -10 -4 -6 18 -10 58 -10 79 0 117 22 94 54 -7 10 -31 21
-53 25 -53 9 -53 34 1 41 30 4 35 7 22 13 -34 13 -84 7 -108 -13z"/>
<path d="M7270 7454 c-19 -8 -40 -26 -47 -39 -10 -22 -8 -29 19 -55 27 -27 36
-30 94 -30 36 0 64 4 64 10 0 9 -28 15 -57 11 -24 -3 -73 29 -73 49 0 24 21
35 84 45 35 5 45 9 35 16 -21 13 -79 10 -119 -7z"/>
<path d="M7484 7459 c-35 -10 -59 -47 -49 -78 20 -65 203 -68 226 -4 23 67
-73 112 -177 82z m116 -44 l21 -23 -29 -21 c-36 -25 -55 -26 -87 -5 -32 21
-32 45 1 65 32 20 66 14 94 -16z"/>
<path d="M7742 7462 c-30 -19 -27 -132 4 -132 20 0 27 21 33 92 1 22 32 31 64
19 22 -9 27 -19 33 -61 6 -44 9 -50 30 -50 13 0 25 6 25 13 8 63 -9 101 -52
116 -37 13 -118 14 -137 3z"/>
<path d="M8023 7460 c-13 -5 -23 -18 -23 -28 0 -19 20 -31 78 -47 37 -11 19
-30 -32 -33 -71 -5 -44 -22 34 -22 58 0 71 3 80 19 5 11 10 22 10 25 0 9 -58
36 -78 36 -11 0 -25 7 -32 15 -10 12 -7 15 13 20 14 4 35 4 47 0 16 -5 21 -3
18 6 -5 17 -83 22 -115 9z"/>
<path d="M9088 7463 c-15 -4 -18 -16 -18 -71 0 -86 7 -98 46 -77 16 8 49 15
72 15 84 0 130 63 81 108 -30 29 -121 41 -181 25z m120 -33 c38 -24 39 -44 1
-67 -23 -14 -32 -14 -57 -4 -17 7 -33 19 -36 26 -8 21 5 54 23 58 30 8 36 7
69 -13z"/>
<path d="M9378 7453 c-48 -25 -49 -90 -2 -111 31 -15 154 -16 154 -2 0 6 -18
10 -40 10 -43 0 -92 18 -84 31 3 5 39 9 80 9 72 0 75 1 72 23 -7 48 -119 73
-180 40z m112 -28 c0 -11 -12 -15 -45 -15 -69 0 -57 28 13 29 22 1 32 -4 32
-14z"/>
<path d="M9880 7460 c-11 -7 -7 -10 17 -10 41 0 63 -9 63 -26 0 -9 -12 -14
-34 -14 -44 0 -85 -15 -92 -34 -4 -9 100 -168 267 -408 1005 -1450 1349 -1948
1349 -1953 0 -3 -17 -3 -37 0 l-38 6 40 -35 c77 -69 157 -129 153 -115 -2 8
-19 60 -38 117 -34 100 -50 126 -50 78 0 -14 -4 -27 -9 -30 -5 -4 -256 351
-557 786 -302 436 -658 951 -791 1143 -133 193 -243 353 -243 357 0 4 33 8 73
10 l72 3 3 34 c6 58 -4 77 -46 89 -47 14 -82 15 -102 2z m90 -87 c8 -7 -24
-23 -46 -23 -27 0 -40 27 -16 33 17 4 52 -1 62 -10z"/>
<path d="M10111 7461 c-9 -6 -14 -26 -13 -57 0 -73 1 -74 17 -74 20 0 36 41
28 70 -8 31 20 50 71 50 30 0 37 3 26 10 -19 12 -110 13 -129 1z"/>
<path d="M10281 7461 c-8 -5 -11 -28 -9 -67 3 -51 6 -59 23 -59 18 0 20 8 23
61 3 63 -8 82 -37 65z"/>
<path d="M9741 7357 c-14 -17 -4 -27 25 -27 31 0 39 17 15 29 -25 14 -26 14
-40 -2z"/>
<path d="M8375 7300 c-4 -6 32 -10 100 -10 68 0 104 4 100 10 -3 6 -48 10
-100 10 -52 0 -97 -4 -100 -10z"/>
<path d="M3915 6978 c-3 -7 -4 -49 -2 -93 2 -63 6 -80 17 -80 12 0 15 17 15
89 0 63 -4 91 -12 93 -7 3 -15 -1 -18 -9z"/>
<path d="M1510 6885 c0 -75 2 -85 18 -85 13 0 18 8 19 33 3 93 0 87 29 73 14
-8 44 -34 67 -60 34 -36 50 -46 75 -46 l32 0 0 86 c0 76 -2 85 -17 82 -14 -3
-18 -15 -20 -57 -1 -29 -4 -55 -6 -57 -6 -6 -67 27 -67 36 0 4 -16 24 -35 44
-25 26 -43 36 -65 36 l-30 0 0 -85z"/>
<path d="M2693 6956 c-14 -6 -23 -20 -23 -33 0 -23 27 -35 105 -49 22 -4 48
-13 59 -20 17 -12 16 -13 -14 -29 -24 -12 -45 -15 -80 -10 -29 4 -50 3 -54 -4
-11 -18 81 -25 137 -10 44 12 52 18 55 40 3 30 -14 39 -110 59 -36 7 -58 17
-58 25 0 18 23 25 80 25 27 0 52 5 55 10 9 14 -124 11 -152 -4z"/>
<path d="M5932 6959 c2 -6 8 -10 13 -10 5 0 11 4 13 10 2 6 -4 11 -13 11 -9 0
-15 -5 -13 -11z"/>
<path d="M6516 6932 c-35 -51 -35 -111 -1 -157 27 -34 61 -50 71 -33 3 5 -1
17 -9 26 -8 9 -21 31 -29 48 -13 27 -13 37 -2 70 7 21 20 44 29 50 22 17 18
34 -9 34 -16 0 -32 -12 -50 -38z"/>
<path d="M7729 6931 c22 -28 31 -50 31 -76 0 -26 -9 -48 -31 -76 l-31 -39 27
0 c72 0 103 126 48 196 -18 21 -37 34 -51 34 -24 0 -23 0 7 -39z"/>
<path d="M6317 6943 c-9 -8 -9 -126 -1 -147 5 -12 21 -16 73 -16 46 0 62 3 51
10 -8 5 -25 10 -37 10 -28 0 -57 42 -48 70 5 16 15 20 45 20 56 0 59 17 4 26
-25 3 -48 13 -51 20 -5 15 -25 19 -36 7z"/>
<path d="M6688 6937 c-36 -14 -45 -37 -14 -37 33 0 50 -24 43 -64 -6 -36 6
-56 34 -56 14 0 18 11 21 63 5 95 1 107 -30 106 -15 -1 -39 -6 -54 -12z"/>
<path d="M6945 6936 c-49 -23 -55 -112 -10 -142 32 -21 126 -20 158 1 23 15
27 24 27 65 0 34 -5 52 -20 65 -26 23 -114 29 -155 11z m112 -41 c16 -34 16
-36 -4 -63 -24 -33 -58 -40 -84 -16 -41 37 -13 112 44 113 22 1 31 -6 44 -34z"/>
<path d="M7525 6940 c-3 -5 -14 -10 -24 -10 -34 0 -61 -38 -61 -84 0 -40 3
-45 35 -60 64 -31 175 0 175 49 0 27 -29 55 -57 55 -11 0 -35 3 -53 6 l-32 7
23 13 c13 7 38 13 56 14 17 0 35 5 38 10 4 6 -13 10 -44 10 -27 0 -53 -4 -56
-10z m64 -84 c19 -23 -3 -56 -37 -56 -28 1 -62 20 -62 37 0 32 77 46 99 19z"/>
<path d="M1829 6908 c-2 -52 4 -83 19 -95 10 -7 48 -12 95 -13 l77 0 0 65 c0
53 -3 63 -15 59 -8 -4 -15 -15 -15 -26 0 -11 -7 -35 -16 -54 -17 -36 -40 -43
-88 -24 -23 8 -26 15 -26 60 0 38 -4 50 -15 50 -9 0 -15 -10 -16 -22z"/>
<path d="M2110 6864 c0 -55 3 -64 18 -64 15 0 17 6 14 35 -6 48 19 75 68 75
41 0 50 -13 50 -77 0 -29 3 -33 28 -33 24 1 25 2 10 14 -10 7 -15 16 -11 20 4
3 12 22 18 40 12 34 12 34 -25 45 -20 6 -67 10 -103 10 l-67 -1 0 -64z"/>
<path d="M2335 6920 c3 -5 17 -10 31 -10 36 0 54 -23 54 -69 0 -30 4 -41 15
-41 25 0 20 91 -5 113 -22 18 -106 25 -95 7z"/>
<path d="M2983 6924 c3 -3 30 -9 59 -13 38 -4 53 -10 53 -21 0 -11 -16 -16
-62 -20 -73 -6 -90 -18 -73 -49 10 -20 18 -22 93 -19 l82 3 -1 49 c-1 62 -18
76 -98 76 -32 0 -57 -3 -53 -6z m117 -83 c0 -34 -102 -42 -108 -8 -3 14 5 17
52 17 31 0 56 -4 56 -9z"/>
<path d="M3208 6925 c-2 -2 -1 -31 0 -64 3 -44 8 -61 18 -61 10 0 14 13 14 43
0 35 4 46 23 56 30 16 81 11 84 -9 7 -59 15 -90 22 -90 8 0 19 26 26 60 1 8 5
22 9 30 10 24 -41 40 -122 39 -39 -1 -72 -3 -74 -4z"/>
<path d="M3430 6920 c8 -5 24 -10 35 -10 36 -1 55 -24 55 -69 0 -30 4 -41 15
-41 23 0 19 79 -4 108 -15 17 -30 22 -68 22 -35 0 -44 -3 -33 -10z"/>
<path d="M3630 6835 c0 -78 3 -95 15 -95 8 0 15 9 15 19 0 42 8 46 75 43 42
-3 65 0 65 7 0 6 6 11 14 11 19 0 29 31 20 64 -4 16 -13 26 -24 26 -11 0 -22
5 -25 10 -3 6 -40 10 -81 10 l-74 0 0 -95z m156 64 c25 -20 17 -57 -16 -74
-41 -21 -63 -19 -89 9 -24 25 -22 34 8 69 17 21 70 18 97 -4z"/>
<path d="M4042 6916 c-45 -22 -41 -83 8 -104 29 -13 137 -19 148 -8 3 3 -18 6
-46 6 -50 0 -102 16 -102 31 0 12 38 21 83 19 95 -5 113 10 58 49 -32 23 -109
27 -149 7z m131 -20 c16 -13 16 -14 -5 -20 -30 -8 -82 -8 -102 0 -13 5 -14 9
-5 20 15 18 88 18 112 0z"/>
<path d="M6058 6912 c-27 -3 -28 -5 -28 -68 0 -56 2 -64 19 -64 23 0 31 19 31
71 0 37 2 39 31 39 53 0 69 -15 69 -65 0 -43 1 -45 30 -45 28 0 30 2 30 39 0
59 -30 87 -100 92 -30 2 -67 3 -82 1z"/>
<path d="M5929 6903 c-1 -5 -3 -34 -5 -65 -2 -51 0 -58 17 -58 18 0 21 6 34
72 2 10 -1 21 -6 24 -6 3 -5 11 2 20 9 11 7 14 -15 14 -14 0 -27 -3 -27 -7z"/>
<path d="M7212 6890 c-13 -12 -22 -33 -22 -49 0 -44 35 -61 122 -60 50 0 67 3
53 9 -11 5 -33 9 -50 10 -16 0 -41 7 -55 15 -23 13 -21 14 47 15 84 0 103 6
103 31 0 45 -156 68 -198 29z m118 -15 c11 -13 5 -15 -41 -15 -52 1 -53 1 -29
15 33 19 55 19 70 0z"/>
<path d="M2262 6388 c-12 -12 -17 -149 -6 -161 13 -13 34 7 34 33 0 53 73 56
122 6 36 -37 53 -43 82 -31 11 5 32 3 50 -3 40 -15 113 -16 121 -2 4 6 -13 10
-45 10 -52 0 -90 13 -90 30 0 5 37 10 82 12 67 2 83 6 86 19 5 25 -58 59 -104
58 -22 0 -52 -8 -69 -18 -25 -14 -31 -25 -33 -59 -3 -44 -20 -56 -29 -22 -3
11 -11 20 -19 20 -24 0 -26 21 -5 44 28 29 27 33 -11 56 -38 23 -146 28 -166
8z m138 -23 c27 -32 -40 -60 -94 -39 -19 7 -21 40 -3 47 27 11 85 6 97 -8z
m249 -38 c6 -8 8 -17 4 -20 -10 -11 -111 -8 -118 2 -16 27 93 43 114 18z"/>
<path d="M3520 6370 c-8 -14 -8 -26 0 -41 7 -11 9 -31 6 -44 -12 -46 60 -83
104 -55 11 7 5 10 -23 10 -41 0 -56 21 -52 70 1 21 7 25 38 28 40 3 42 22 3
22 -13 0 -29 7 -36 15 -17 20 -27 19 -40 -5z"/>
<path d="M5890 6364 c0 -3 25 -31 56 -61 41 -39 53 -57 44 -63 -16 -10 -4 -30
17 -30 11 0 14 6 10 22 -8 28 5 49 56 98 25 24 36 40 27 40 -16 0 -65 -41 -72
-60 -6 -18 -52 -2 -87 31 -30 27 -51 37 -51 23z"/>
<path d="M2755 6350 c-4 -6 -7 -81 -6 -137 1 -50 28 -62 33 -15 3 26 5 27 55
24 71 -5 113 19 113 64 0 49 -48 75 -130 72 -34 -2 -63 -5 -65 -8z m147 -27
c56 -50 -44 -115 -102 -66 -24 21 -25 40 -3 65 20 23 80 24 105 1z"/>
<path d="M3061 6345 c-55 -30 -52 -86 5 -110 41 -17 120 -20 129 -5 4 6 -13
10 -45 10 -52 0 -90 13 -90 30 0 5 37 10 82 12 67 2 83 6 86 19 8 43 -111 74
-167 44z m122 -19 c28 -22 20 -26 -46 -26 -69 0 -83 6 -66 27 15 17 89 16 112
-1z"/>
<path d="M3305 6350 c-4 -6 10 -10 35 -10 45 0 84 -16 75 -31 -4 -5 -26 -9
-50 -9 -44 0 -95 -17 -95 -31 0 -40 41 -53 130 -41 52 7 55 8 57 37 2 46 -6
64 -37 80 -33 17 -106 20 -115 5z m108 -76 c3 -3 3 -12 0 -20 -3 -9 -21 -14
-54 -14 -42 0 -49 3 -49 20 0 17 7 20 48 20 27 0 51 -3 55 -6z"/>
<path d="M6950 6350 c0 -6 8 -14 18 -17 9 -4 37 -19 61 -35 l44 -27 27 19 c16
11 32 20 37 20 13 0 69 49 56 50 -6 0 -34 -14 -61 -31 -47 -29 -52 -30 -87
-18 -20 7 -44 21 -55 31 -21 20 -40 23 -40 8z"/>
<path d="M6185 6326 c-36 -12 -40 -16 -43 -49 -2 -29 1 -39 15 -44 10 -4 21
-10 24 -15 9 -14 105 -22 113 -9 5 8 -9 11 -46 11 -50 0 -78 12 -78 32 0 4 33
8 73 8 75 0 117 13 84 26 -9 3 -15 10 -12 15 7 10 -48 39 -72 38 -10 -1 -36
-7 -58 -13z m103 -28 c3 -15 -5 -18 -51 -18 -60 0 -73 6 -55 27 17 21 102 13
106 -9z"/>
<path d="M6420 6331 c-15 -4 -26 -15 -28 -27 -2 -17 5 -23 45 -34 80 -22 81
-50 2 -50 -34 0 -48 -4 -43 -11 10 -16 102 -5 122 15 15 15 15 17 1 32 -9 8
-35 18 -58 21 -31 4 -41 10 -41 24 0 16 8 19 46 19 27 0 43 4 39 10 -7 11 -47
12 -85 1z"/>
<path d="M0 5620 c0 -19 3 -21 12 -12 9 9 9 15 0 24 -9 9 -12 7 -12 -12z"/>
<path d="M1435 5080 c-3 -5 -1 -10 4 -10 6 0 11 5 11 10 0 6 -2 10 -4 10 -3 0
-8 -4 -11 -10z"/>
<path d="M1510 5080 c0 -5 5 -10 11 -10 5 0 7 5 4 10 -3 6 -8 10 -11 10 -2 0
-4 -4 -4 -10z"/>
<path d="M1580 5080 c0 -5 5 -10 11 -10 5 0 7 5 4 10 -3 6 -8 10 -11 10 -2 0
-4 -4 -4 -10z"/>
<path d="M1655 5080 c-3 -5 -1 -10 4 -10 6 0 11 5 11 10 0 6 -2 10 -4 10 -3 0
-8 -4 -11 -10z"/>
<path d="M1800 5080 c0 -5 5 -10 11 -10 5 0 7 5 4 10 -3 6 -8 10 -11 10 -2 0
-4 -4 -4 -10z"/>
<path d="M1875 5080 c-3 -5 -1 -10 4 -10 6 0 11 5 11 10 0 6 -2 10 -4 10 -3 0
-8 -4 -11 -10z"/>
<path d="M1945 5080 c-3 -5 -1 -10 4 -10 6 0 11 5 11 10 0 6 -2 10 -4 10 -3 0
-8 -4 -11 -10z"/>
<path d="M2020 5080 c0 -5 5 -10 11 -10 5 0 7 5 4 10 -3 6 -8 10 -11 10 -2 0
-4 -4 -4 -10z"/>
<path d="M2090 5080 c0 -5 5 -10 11 -10 5 0 7 5 4 10 -3 6 -8 10 -11 10 -2 0
-4 -4 -4 -10z"/>
<path d="M2165 5080 c-3 -5 -1 -10 4 -10 6 0 11 5 11 10 0 6 -2 10 -4 10 -3 0
-8 -4 -11 -10z"/>
<path d="M2310 5080 c0 -5 5 -10 11 -10 5 0 7 5 4 10 -3 6 -8 10 -11 10 -2 0
-4 -4 -4 -10z"/>
<path d="M2385 5080 c-3 -5 -1 -10 4 -10 6 0 11 5 11 10 0 6 -2 10 -4 10 -3 0
-8 -4 -11 -10z"/>
<path d="M2530 5080 c0 -5 5 -10 11 -10 5 0 7 5 4 10 -3 6 -8 10 -11 10 -2 0
-4 -4 -4 -10z"/>
<path d="M2675 5080 c-3 -5 -1 -10 4 -10 6 0 11 5 11 10 0 6 -2 10 -4 10 -3 0
-8 -4 -11 -10z"/>
<path d="M2820 5080 c0 -5 5 -10 11 -10 5 0 7 5 4 10 -3 6 -8 10 -11 10 -2 0
-4 -4 -4 -10z"/>
<path d="M2895 5080 c-3 -5 -1 -10 4 -10 6 0 11 5 11 10 0 6 -2 10 -4 10 -3 0
-8 -4 -11 -10z"/>
<path d="M3040 5080 c0 -5 5 -10 11 -10 5 0 7 5 4 10 -3 6 -8 10 -11 10 -2 0
-4 -4 -4 -10z"/>
<path d="M3115 5080 c-3 -5 -1 -10 4 -10 6 0 11 5 11 10 0 6 -2 10 -4 10 -3 0
-8 -4 -11 -10z"/>
<path d="M3185 5080 c-3 -5 -1 -10 4 -10 6 0 11 5 11 10 0 6 -2 10 -4 10 -3 0
-8 -4 -11 -10z"/>
<path d="M3260 5080 c0 -5 5 -10 11 -10 5 0 7 5 4 10 -3 6 -8 10 -11 10 -2 0
-4 -4 -4 -10z"/>
<path d="M3330 5080 c0 -5 5 -10 11 -10 5 0 7 5 4 10 -3 6 -8 10 -11 10 -2 0
-4 -4 -4 -10z"/>
<path d="M3405 5080 c-3 -5 -1 -10 4 -10 6 0 11 5 11 10 0 6 -2 10 -4 10 -3 0
-8 -4 -11 -10z"/>
<path d="M3550 5080 c0 -5 5 -10 11 -10 5 0 7 5 4 10 -3 6 -8 10 -11 10 -2 0
-4 -4 -4 -10z"/>
<path d="M3625 5080 c-3 -5 -1 -10 4 -10 6 0 11 5 11 10 0 6 -2 10 -4 10 -3 0
-8 -4 -11 -10z"/>
<path d="M3695 5080 c-3 -5 -1 -10 4 -10 6 0 11 5 11 10 0 6 -2 10 -4 10 -3 0
-8 -4 -11 -10z"/>
<path d="M3770 5080 c0 -5 5 -10 11 -10 5 0 7 5 4 10 -3 6 -8 10 -11 10 -2 0
-4 -4 -4 -10z"/>
<path d="M3840 5080 c0 -5 5 -10 11 -10 5 0 7 5 4 10 -3 6 -8 10 -11 10 -2 0
-4 -4 -4 -10z"/>
<path d="M3915 5080 c-3 -5 -1 -10 4 -10 6 0 11 5 11 10 0 6 -2 10 -4 10 -3 0
-8 -4 -11 -10z"/>
<path d="M4060 5080 c0 -5 5 -10 11 -10 5 0 7 5 4 10 -3 6 -8 10 -11 10 -2 0
-4 -4 -4 -10z"/>
<path d="M4135 5080 c-3 -5 -1 -10 4 -10 6 0 11 5 11 10 0 6 -2 10 -4 10 -3 0
-8 -4 -11 -10z"/>
<path d="M4205 5080 c-3 -5 -1 -10 4 -10 6 0 11 5 11 10 0 6 -2 10 -4 10 -3 0
-8 -4 -11 -10z"/>
<path d="M4280 5080 c0 -5 5 -10 11 -10 5 0 7 5 4 10 -3 6 -8 10 -11 10 -2 0
-4 -4 -4 -10z"/>
<path d="M4350 5080 c0 -5 5 -10 11 -10 5 0 7 5 4 10 -3 6 -8 10 -11 10 -2 0
-4 -4 -4 -10z"/>
<path d="M4425 5080 c-3 -5 -1 -10 4 -10 6 0 11 5 11 10 0 6 -2 10 -4 10 -3 0
-8 -4 -11 -10z"/>
<path d="M4570 5080 c0 -5 5 -10 11 -10 5 0 7 5 4 10 -3 6 -8 10 -11 10 -2 0
-4 -4 -4 -10z"/>
<path d="M4645 5080 c-3 -5 -1 -10 4 -10 6 0 11 5 11 10 0 6 -2 10 -4 10 -3 0
-8 -4 -11 -10z"/>
<path d="M4790 5080 c0 -5 5 -10 11 -10 5 0 7 5 4 10 -3 6 -8 10 -11 10 -2 0
-4 -4 -4 -10z"/>
<path d="M4935 5080 c-3 -5 -1 -10 4 -10 6 0 11 5 11 10 0 6 -2 10 -4 10 -3 0
-8 -4 -11 -10z"/>
<path d="M5080 5080 c0 -5 5 -10 11 -10 5 0 7 5 4 10 -3 6 -8 10 -11 10 -2 0
-4 -4 -4 -10z"/>
<path d="M5155 5080 c-3 -5 -1 -10 4 -10 6 0 11 5 11 10 0 6 -2 10 -4 10 -3 0
-8 -4 -11 -10z"/>
<path d="M5300 5080 c0 -5 5 -10 11 -10 5 0 7 5 4 10 -3 6 -8 10 -11 10 -2 0
-4 -4 -4 -10z"/>
<path d="M5375 5080 c-3 -5 -1 -10 4 -10 6 0 11 5 11 10 0 6 -2 10 -4 10 -3 0
-8 -4 -11 -10z"/>
<path d="M5445 5080 c-3 -5 -1 -10 4 -10 6 0 11 5 11 10 0 6 -2 10 -4 10 -3 0
-8 -4 -11 -10z"/>
<path d="M5520 5080 c0 -5 5 -10 11 -10 5 0 7 5 4 10 -3 6 -8 10 -11 10 -2 0
-4 -4 -4 -10z"/>
<path d="M5590 5080 c0 -5 5 -10 11 -10 5 0 7 5 4 10 -3 6 -8 10 -11 10 -2 0
-4 -4 -4 -10z"/>
<path d="M5665 5080 c-3 -5 -1 -10 4 -10 6 0 11 5 11 10 0 6 -2 10 -4 10 -3 0
-8 -4 -11 -10z"/>
<path d="M5810 5080 c0 -5 5 -10 11 -10 5 0 7 5 4 10 -3 6 -8 10 -11 10 -2 0
-4 -4 -4 -10z"/>
<path d="M1420 5020 c0 -5 5 -10 10 -10 6 0 10 5 10 10 0 6 -4 10 -10 10 -5 0
-10 -4 -10 -10z"/>
<path d="M5880 5000 c0 -5 5 -10 10 -10 6 0 10 5 10 10 0 6 -4 10 -10 10 -5 0
-10 -4 -10 -10z"/>
<path d="M1420 4950 c0 -5 5 -10 10 -10 6 0 10 5 10 10 0 6 -4 10 -10 10 -5 0
-10 -4 -10 -10z"/>
<path d="M1420 4880 c0 -5 5 -10 11 -10 5 0 7 5 4 10 -3 6 -8 10 -11 10 -2 0
-4 -4 -4 -10z"/>
<path d="M5880 4850 c0 -5 5 -10 10 -10 6 0 10 5 10 10 0 6 -4 10 -10 10 -5 0
-10 -4 -10 -10z"/>
<path d="M1673 4809 c-68 -20 -86 -107 -34 -160 25 -24 38 -29 79 -29 60 0 82
7 82 26 0 11 -4 12 -19 4 -36 -19 -90 -12 -116 15 -27 26 -31 49 -15 89 11 31
66 49 112 35 34 -9 48 -5 32 11 -14 14 -86 20 -121 9z"/>
<path d="M2390 4720 c0 -82 3 -100 15 -100 8 0 15 5 15 12 0 9 3 9 12 0 19
-19 76 -14 99 9 29 29 23 85 -13 112 -24 18 -32 19 -63 10 l-35 -11 0 34 c0
24 -5 34 -15 34 -12 0 -15 -18 -15 -100z m112 13 c20 -18 24 -63 6 -81 -7 -7
-24 -12 -38 -12 -33 0 -50 17 -50 51 0 51 46 75 82 42z"/>
<path d="M2600 4805 c0 -8 7 -15 15 -15 8 0 15 7 15 15 0 8 -7 15 -15 15 -8 0
-15 -7 -15 -15z"/>
<path d="M3220 4720 c0 -82 3 -100 15 -100 12 0 15 18 15 100 0 82 -3 100 -15
100 -12 0 -15 -18 -15 -100z"/>
<path d="M3550 4805 c0 -8 7 -15 15 -15 8 0 15 7 15 15 0 8 -7 15 -15 15 -8 0
-15 -7 -15 -15z"/>
<path d="M4290 4786 l0 -34 -35 11 c-31 9 -39 8 -63 -10 -38 -28 -44 -94 -10
-117 27 -19 79 -21 96 -4 9 9 12 9 12 0 0 -7 7 -12 15 -12 12 0 15 18 15 100
0 82 -3 100 -15 100 -10 0 -15 -10 -15 -34z m-18 -53 c35 -32 15 -93 -30 -93
-35 0 -52 17 -52 51 0 51 46 75 82 42z"/>
<path d="M5200 4720 c0 -82 3 -100 15 -100 12 0 15 18 15 100 0 82 -3 100 -15
100 -12 0 -15 -18 -15 -100z"/>
<path d="M5290 4805 c0 -8 7 -15 15 -15 8 0 15 7 15 15 0 8 -7 15 -15 15 -8 0
-15 -7 -15 -15z"/>
<path d="M5500 4786 l0 -34 -35 11 c-31 9 -39 8 -63 -10 -38 -28 -44 -94 -10
-117 27 -19 79 -21 96 -4 9 9 12 9 12 0 0 -7 7 -12 15 -12 12 0 15 18 15 100
0 82 -3 100 -15 100 -10 0 -15 -10 -15 -34z m-18 -53 c35 -32 15 -93 -30 -93
-35 0 -52 17 -52 51 0 51 46 75 82 42z"/>
<path d="M1420 4799 c0 -5 5 -7 10 -4 6 3 10 8 10 11 0 2 -4 4 -10 4 -5 0 -10
-5 -10 -11z"/>
<path d="M3420 4791 c0 -11 -6 -22 -12 -25 -10 -5 -10 -7 0 -12 7 -3 12 -26
12 -58 0 -29 5 -57 12 -64 14 -14 78 -16 78 -2 0 6 -13 10 -30 10 -30 0 -30 1
-30 55 0 54 0 55 30 55 17 0 30 5 30 10 0 6 -13 10 -30 10 -23 0 -30 4 -30 20
0 11 -7 20 -15 20 -8 0 -15 -9 -15 -19z"/>
<path d="M5880 4780 c0 -5 5 -10 10 -10 6 0 10 5 10 10 0 6 -4 10 -10 10 -5 0
-10 -4 -10 -10z"/>
<path d="M1868 4764 c-34 -10 -18 -24 20 -18 24 3 43 1 56 -9 17 -13 15 -14
-29 -20 -56 -8 -75 -21 -75 -51 0 -32 19 -46 60 -46 20 0 41 5 48 12 9 9 12 9
12 0 0 -7 7 -12 15 -12 21 0 21 112 0 130 -16 13 -80 21 -107 14z m92 -83 c0
-44 -82 -58 -88 -14 -3 23 10 30 61 32 20 1 27 -4 27 -18z"/>
<path d="M2060 4695 c0 -60 3 -75 15 -75 12 0 15 13 15 55 0 43 4 56 19 65 45
23 71 -3 71 -71 0 -37 4 -49 15 -49 12 0 15 13 15 55 0 44 4 56 20 65 45 24
70 -5 70 -82 0 -27 4 -38 15 -38 11 0 15 12 15 44 0 89 -37 124 -98 94 -25
-13 -31 -13 -51 0 -17 12 -29 13 -56 4 -20 -6 -35 -6 -35 -1 0 5 -7 9 -15 9
-12 0 -15 -15 -15 -75z"/>
<path d="M2600 4695 c0 -60 3 -75 15 -75 12 0 15 15 15 75 0 60 -3 75 -15 75
-12 0 -15 -15 -15 -75z"/>
<path d="M2708 4764 c-34 -10 -18 -24 20 -18 24 3 43 1 56 -9 17 -13 15 -14
-29 -20 -56 -8 -75 -21 -75 -51 0 -32 19 -46 60 -46 20 0 41 5 48 12 9 9 12 9
12 0 0 -7 7 -12 15 -12 21 0 21 112 0 130 -16 13 -80 21 -107 14z m92 -83 c0
-44 -82 -58 -88 -14 -3 23 10 30 61 32 20 1 27 -4 27 -18z"/>
<path d="M3050 4763 c-43 -17 -66 -74 -42 -109 19 -29 94 -44 136 -28 31 12
15 21 -28 17 -47 -6 -86 9 -86 32 0 12 15 15 71 15 68 0 70 1 64 23 -4 12 -13
28 -19 35 -14 15 -74 24 -96 15z m71 -33 l24 -19 -57 -1 c-60 0 -76 13 -35 30
33 13 43 12 68 -10z"/>
<path d="M3550 4695 c0 -60 3 -75 15 -75 12 0 15 15 15 75 0 60 -3 75 -15 75
-12 0 -15 -15 -15 -75z"/>
<path d="M3640 4665 c0 -87 3 -105 15 -105 11 0 15 11 15 42 0 33 3 39 12 30
19 -19 76 -14 99 9 29 29 23 85 -13 112 -24 18 -32 19 -63 10 -20 -6 -35 -7
-35 -2 0 5 -7 9 -15 9 -12 0 -15 -18 -15 -105z m112 68 c20 -18 24 -63 6 -81
-7 -7 -24 -12 -38 -12 -33 0 -50 17 -50 51 0 51 46 75 82 42z"/>
<path d="M3890 4763 c-52 -20 -68 -85 -30 -123 24 -24 86 -27 118 -4 28 20 31
83 4 107 -20 19 -69 29 -92 20z m64 -29 c19 -18 21 -65 4 -82 -7 -7 -24 -12
-38 -12 -33 0 -50 17 -50 51 0 32 23 59 50 59 10 0 26 -7 34 -16z"/>
<path d="M4420 4763 c-43 -17 -66 -74 -42 -109 19 -29 94 -44 136 -28 31 12
15 21 -28 17 -47 -6 -86 9 -86 32 0 12 15 15 71 15 68 0 70 1 64 23 -4 12 -13
28 -19 35 -14 15 -74 24 -96 15z m71 -33 l24 -19 -57 -1 c-60 0 -76 13 -35 30
33 13 43 12 68 -10z"/>
<path d="M4823 4760 c-15 -6 -23 -18 -23 -34 0 -22 7 -27 48 -39 30 -9 48 -20
50 -32 3 -15 -3 -17 -47 -14 -36 3 -51 0 -51 -8 0 -9 17 -13 53 -13 58 0 93
23 81 53 -6 17 -15 21 -71 32 -18 4 -33 13 -33 20 0 18 34 28 70 20 35 -8 41
10 8 19 -31 8 -58 7 -85 -4z"/>
<path d="M5008 4764 c-34 -10 -18 -24 20 -18 24 3 43 1 56 -9 17 -13 15 -14
-29 -20 -56 -8 -75 -21 -75 -51 0 -32 19 -46 60 -46 20 0 41 5 48 12 9 9 12 9
12 0 0 -7 7 -12 15 -12 21 0 21 112 0 130 -16 13 -80 21 -107 14z m92 -83 c0
-44 -82 -58 -88 -14 -3 23 10 30 61 32 20 1 27 -4 27 -18z"/>
<path d="M5290 4695 c0 -60 3 -75 15 -75 12 0 15 15 15 75 0 60 -3 75 -15 75
-12 0 -15 -15 -15 -75z"/>
<path d="M5608 4764 c-34 -10 -18 -24 20 -18 24 3 43 1 56 -9 17 -13 15 -14
-29 -20 -56 -8 -75 -21 -75 -51 0 -32 19 -46 60 -46 20 0 41 5 48 12 9 9 12 9
12 0 0 -7 7 -12 15 -12 21 0 21 112 0 130 -16 13 -80 21 -107 14z m92 -83 c0
-44 -82 -58 -88 -14 -3 23 10 30 61 32 20 1 27 -4 27 -18z"/>
<path d="M14325 4750 c-3 -5 -1 -10 4 -10 6 0 11 5 11 10 0 6 -2 10 -4 10 -3
0 -8 -4 -11 -10z"/>
<path d="M1420 4730 c0 -5 5 -10 10 -10 6 0 10 5 10 10 0 6 -4 10 -10 10 -5 0
-10 -4 -10 -10z"/>
<path d="M5885 4710 c-3 -5 -1 -10 4 -10 6 0 11 5 11 10 0 6 -2 10 -4 10 -3 0
-8 -4 -11 -10z"/>
<path d="M9870 4700 c0 -5 5 -10 10 -10 6 0 10 5 10 10 0 6 -4 10 -10 10 -5 0
-10 -4 -10 -10z"/>
<path d="M14330 4680 c0 -5 5 -10 11 -10 5 0 7 5 4 10 -3 6 -8 10 -11 10 -2 0
-4 -4 -4 -10z"/>
<path d="M1420 4660 c0 -5 5 -10 11 -10 5 0 7 5 4 10 -3 6 -8 10 -11 10 -2 0
-4 -4 -4 -10z"/>
<path d="M5885 4630 c3 -5 8 -10 11 -10 2 0 4 5 4 10 0 6 -5 10 -11 10 -5 0
-7 -4 -4 -10z"/>
<path d="M9870 4630 c0 -5 5 -10 10 -10 6 0 10 5 10 10 0 6 -4 10 -10 10 -5 0
-10 -4 -10 -10z"/>
<path d="M10117 4543 c-43 -91 -47 -122 -12 -93 8 7 15 19 15 26 0 10 16 14
60 14 55 0 61 -2 70 -25 8 -22 40 -36 40 -19 0 4 -20 49 -44 100 -59 125 -69
125 -129 -3z m103 -24 c0 -5 -18 -9 -40 -9 -22 0 -40 2 -40 4 0 2 9 25 21 51
l21 48 19 -43 c10 -23 19 -46 19 -51z"/>
<path d="M10510 4625 c0 -8 7 -15 15 -15 8 0 15 7 15 15 0 8 -7 15 -15 15 -8
0 -15 -7 -15 -15z"/>
<path d="M12610 4625 c0 -8 7 -15 15 -15 8 0 15 7 15 15 0 8 -7 15 -15 15 -8
0 -15 -7 -15 -15z"/>
<path d="M14330 4599 c0 -5 5 -7 10 -4 6 3 10 8 10 11 0 2 -4 4 -10 4 -5 0
-10 -5 -10 -11z"/>
<path d="M10332 4578 c-31 -31 -8 -58 61 -72 15 -4 27 -13 27 -21 0 -18 -33
-28 -70 -20 -18 4 -30 2 -30 -3 0 -15 55 -25 90 -17 66 14 56 68 -15 83 -25 5
-41 14 -43 25 -3 14 5 17 48 17 32 0 49 4 45 10 -9 14 -99 12 -113 -2z"/>
<path d="M10510 4515 c0 -60 3 -75 15 -75 12 0 15 15 15 75 0 60 -3 75 -15 75
-12 0 -15 -15 -15 -75z"/>
<path d="M10612 4574 c-34 -23 -28 -89 10 -117 24 -18 32 -19 63 -10 28 9 35
9 35 -3 0 -24 -46 -46 -80 -39 -34 7 -42 -10 -9 -20 33 -11 87 4 104 28 21 31
22 177 0 177 -8 0 -15 -5 -15 -12 0 -9 -3 -9 -12 0 -17 17 -69 15 -96 -4z m98
-23 c14 -28 12 -52 -7 -73 -20 -22 -46 -23 -67 -2 -19 18 -21 65 -4 82 19 19
66 15 78 -7z"/>
<path d="M10810 4515 c0 -60 3 -75 15 -75 11 0 15 13 15 54 0 61 14 79 57 74
27 -3 28 -5 31 -65 2 -47 7 -63 17 -63 22 0 21 113 -1 134 -18 19 -75 21 -92
4 -9 -9 -12 -9 -12 0 0 7 -7 12 -15 12 -12 0 -15 -15 -15 -75z"/>
<path d="M11031 4571 c-42 -42 -22 -108 37 -126 29 -8 102 3 102 17 0 6 -16 7
-40 3 -30 -5 -47 -2 -65 9 -40 26 -29 36 39 36 36 0 68 5 72 11 3 6 -2 23 -13
37 -27 37 -102 43 -132 13z m107 -23 c3 -15 -4 -18 -47 -18 -28 0 -51 4 -51 8
0 34 92 43 98 10z"/>
<path d="M11351 4571 c-42 -42 -22 -108 37 -126 29 -8 102 3 102 17 0 6 -16 7
-40 3 -30 -5 -47 -2 -65 9 -40 26 -29 36 39 36 36 0 68 5 72 11 3 6 -2 23 -13
37 -27 37 -102 43 -132 13z m107 -23 c3 -15 -4 -18 -47 -18 -28 0 -51 4 -51 8
0 34 92 43 98 10z"/>
<path d="M11550 4515 c0 -60 3 -75 15 -75 11 0 15 13 15 54 0 61 14 79 57 74
27 -3 28 -5 31 -65 2 -47 7 -63 17 -63 22 0 21 113 -1 134 -18 19 -75 21 -92
4 -9 -9 -12 -9 -12 0 0 7 -7 12 -15 12 -12 0 -15 -15 -15 -75z"/>
<path d="M11870 4515 c0 -60 3 -75 15 -75 11 0 15 13 15 53 0 57 12 77 45 77
33 0 45 -20 45 -77 0 -40 4 -53 15 -53 11 0 15 13 15 53 0 58 12 77 47 77 29
0 43 -27 43 -85 0 -63 24 -55 28 9 4 63 -17 96 -60 96 -17 0 -39 -7 -48 -15
-15 -14 -18 -14 -30 0 -15 18 -71 20 -88 3 -9 -9 -12 -9 -12 0 0 7 -7 12 -15
12 -12 0 -15 -15 -15 -75z"/>
<path d="M12207 4583 c-15 -14 -5 -18 45 -18 32 0 53 -5 55 -12 3 -9 -8 -13
-37 -13 -54 0 -80 -15 -80 -45 0 -38 42 -61 86 -47 19 6 34 6 34 1 0 -5 7 -9
15 -9 24 0 21 112 -3 133 -19 17 -102 24 -115 10z m103 -78 c0 -21 -45 -48
-70 -40 -19 6 -27 34 -13 48 3 4 24 7 45 7 27 0 38 -4 38 -15z"/>
<path d="M12423 4562 c15 -15 27 -32 27 -38 0 -5 -14 -26 -31 -47 -37 -45 -16
-51 26 -7 l29 30 32 -31 c45 -43 61 -33 23 14 l-32 38 34 35 c27 28 30 34 14
34 -10 0 -31 -12 -46 -26 l-26 -25 -21 25 c-11 14 -28 26 -38 26 -15 0 -14 -4
9 -28z"/>
<path d="M12610 4515 c0 -60 3 -75 15 -75 12 0 15 15 15 75 0 60 -3 75 -15 75
-12 0 -15 -15 -15 -75z"/>
<path d="M12700 4515 c0 -60 3 -75 15 -75 11 0 15 13 15 53 0 57 12 77 45 77
33 0 45 -20 45 -77 0 -40 4 -53 15 -53 11 0 15 13 15 53 0 58 12 77 47 77 29
0 43 -27 43 -85 0 -63 24 -55 28 9 4 63 -17 96 -60 96 -17 0 -39 -7 -48 -15
-15 -14 -18 -14 -30 0 -15 18 -71 20 -88 3 -9 -9 -12 -9 -12 0 0 7 -7 12 -15
12 -12 0 -15 -15 -15 -75z"/>
<path d="M13040 4570 c-27 -27 -26 -81 1 -106 13 -11 35 -19 59 -19 52 0 80
27 80 76 0 28 -6 42 -22 53 -32 23 -94 20 -118 -4z m98 -12 c17 -17 15 -64 -4
-82 -33 -34 -84 -8 -84 43 0 34 17 51 50 51 14 0 31 -5 38 -12z"/>
<path d="M13250 4565 c0 -8 7 -15 15 -15 8 0 15 7 15 15 0 8 -7 15 -15 15 -8
0 -15 -7 -15 -15z"/>
<path d="M5880 4560 c0 -5 5 -10 10 -10 6 0 10 5 10 10 0 6 -4 10 -10 10 -5 0
-10 -4 -10 -10z"/>
<path d="M14330 4530 c0 -5 5 -10 10 -10 6 0 10 5 10 10 0 6 -4 10 -10 10 -5
0 -10 -4 -10 -10z"/>
<path d="M1420 4509 c0 -5 5 -7 10 -4 6 3 10 8 10 11 0 2 -4 4 -10 4 -5 0 -10
-5 -10 -11z"/>
<path d="M5885 4490 c-3 -5 -1 -10 4 -10 6 0 11 5 11 10 0 6 -2 10 -4 10 -3 0
-8 -4 -11 -10z"/>
<path d="M9870 4479 c0 -5 5 -7 10 -4 6 3 10 8 10 11 0 2 -4 4 -10 4 -5 0 -10
-5 -10 -11z"/>
<path d="M13250 4460 c0 -11 7 -20 15 -20 8 0 15 9 15 20 0 11 -7 20 -15 20
-8 0 -15 -9 -15 -20z"/>
<path d="M14330 4460 c0 -5 5 -10 10 -10 6 0 10 5 10 10 0 6 -4 10 -10 10 -5
0 -10 -4 -10 -10z"/>
<path d="M1420 4440 c0 -5 5 -10 10 -10 6 0 10 5 10 10 0 6 -4 10 -10 10 -5 0
-10 -4 -10 -10z"/>
<path d="M9870 4410 c0 -5 5 -10 11 -10 5 0 7 5 4 10 -3 6 -8 10 -11 10 -2 0
-4 -4 -4 -10z"/>
<path d="M1420 4370 c0 -5 5 -10 11 -10 5 0 7 5 4 10 -3 6 -8 10 -11 10 -2 0
-4 -4 -4 -10z"/>
<path d="M1940 4250 c0 -82 3 -100 15 -100 8 0 15 4 15 9 0 5 15 4 35 -2 31
-9 39 -8 63 10 36 27 42 83 13 112 -23 23 -80 28 -99 9 -9 -9 -12 -4 -12 25 0
26 -4 37 -15 37 -12 0 -15 -18 -15 -100z m118 18 c29 -29 1 -98 -39 -98 -26 0
-49 28 -49 59 0 34 17 51 50 51 14 0 31 -5 38 -12z"/>
<path d="M5880 4340 c0 -5 5 -10 10 -10 6 0 10 5 10 10 0 6 -4 10 -10 10 -5 0
-10 -4 -10 -10z"/>
<path d="M9870 4340 c0 -5 5 -10 11 -10 5 0 7 5 4 10 -3 6 -8 10 -11 10 -2 0
-4 -4 -4 -10z"/>
<path d="M2350 4321 c0 -11 -6 -22 -12 -25 -10 -5 -10 -7 0 -12 7 -3 12 -26
12 -59 0 -59 14 -75 64 -75 35 0 33 18 -1 22 -26 3 -28 7 -31 56 l-3 52 30 0
c17 0 31 5 31 10 0 6 -13 10 -30 10 -23 0 -30 4 -30 20 0 11 -7 20 -15 20 -8
0 -15 -9 -15 -19z"/>
<path d="M14330 4310 c0 -5 5 -10 10 -10 6 0 10 5 10 10 0 6 -4 10 -10 10 -5
0 -10 -4 -10 -10z"/>
<path d="M1420 4289 c0 -5 5 -7 10 -4 6 3 10 8 10 11 0 2 -4 4 -10 4 -5 0 -10
-5 -10 -11z"/>
<path d="M1627 4293 c-15 -14 -5 -18 45 -18 32 0 53 -5 55 -12 3 -9 -8 -13
-37 -13 -54 0 -80 -15 -80 -45 0 -38 42 -61 86 -47 19 6 34 6 34 1 0 -5 7 -9
15 -9 24 0 21 112 -3 133 -19 17 -102 24 -115 10z m103 -78 c0 -21 -45 -48
-70 -40 -19 6 -27 34 -13 48 3 4 24 7 45 7 27 0 38 -4 38 -15z"/>
<path d="M2165 4229 c39 -77 39 -105 -1 -115 -17 -4 -22 -10 -15 -17 5 -5 20
-7 33 -4 17 5 35 31 71 102 52 106 52 105 34 105 -7 0 -26 -26 -41 -57 l-28
-58 -29 58 c-16 31 -36 57 -44 57 -12 0 -7 -17 20 -71z"/>
<path d="M2491 4281 c-42 -42 -22 -108 37 -126 29 -8 102 3 102 17 0 6 -16 7
-40 3 -30 -5 -47 -2 -65 9 -40 26 -29 36 39 36 36 0 68 5 72 11 3 6 -2 23 -13
37 -27 37 -102 43 -132 13z m107 -23 c3 -15 -4 -18 -47 -18 -28 0 -51 4 -51 8
0 34 92 43 98 10z"/>
<path d="M5880 4270 c0 -5 5 -10 10 -10 6 0 10 5 10 10 0 6 -4 10 -10 10 -5 0
-10 -4 -10 -10z"/>
<path d="M14330 4240 c0 -5 5 -10 10 -10 6 0 10 5 10 10 0 6 -4 10 -10 10 -5
0 -10 -4 -10 -10z"/>
<path d="M1420 4220 c0 -5 5 -10 10 -10 6 0 10 5 10 10 0 6 -4 10 -10 10 -5 0
-10 -4 -10 -10z"/>
<path d="M2695 4181 c-8 -15 3 -31 21 -31 9 0 14 7 12 17 -4 20 -24 28 -33 14z"/>
<path d="M11010 4060 l0 -120 36 0 c21 0 33 4 29 10 -3 6 -13 10 -21 10 -11 0
-14 20 -14 100 0 94 1 100 21 100 11 0 17 5 14 10 -3 6 -19 10 -36 10 l-29 0
0 -120z"/>
<path d="M12970 4170 c0 -5 9 -10 20 -10 19 0 20 -7 20 -100 0 -93 -1 -100
-20 -100 -11 0 -20 -4 -20 -10 0 -5 16 -10 35 -10 l35 0 0 120 0 120 -35 0
c-19 0 -35 -4 -35 -10z"/>
<path d="M13560 4165 c0 -8 7 -15 15 -15 8 0 15 7 15 15 0 8 -7 15 -15 15 -8
0 -15 -7 -15 -15z"/>
<path d="M14002 4141 c-13 -23 -22 -56 -22 -83 0 -48 29 -111 53 -116 13 -3
13 3 -4 35 -25 48 -24 114 1 163 28 54 2 55 -28 1z"/>
<path d="M14110 4177 c0 -2 9 -26 21 -52 23 -52 21 -103 -7 -156 -12 -25 -12
-29 0 -29 18 0 56 78 56 116 0 34 -39 116 -57 122 -7 2 -13 2 -13 -1z"/>
<path d="M14330 4170 c0 -5 5 -10 11 -10 5 0 7 5 4 10 -3 6 -8 10 -11 10 -2 0
-4 -4 -4 -10z"/>
<path d="M10880 4151 c0 -11 -6 -22 -12 -25 -10 -5 -10 -7 0 -12 7 -3 12 -26
12 -58 0 -29 5 -57 12 -64 14 -14 78 -16 78 -2 0 6 -13 10 -30 10 -30 0 -30 1
-30 55 0 54 0 55 30 55 17 0 30 5 30 10 0 6 -13 10 -30 10 -23 0 -30 4 -30 20
0 11 -7 20 -15 20 -8 0 -15 -9 -15 -19z"/>
<path d="M11920 4151 c0 -11 -6 -22 -12 -25 -10 -5 -10 -7 0 -12 7 -3 12 -26
12 -58 0 -29 5 -57 12 -64 14 -14 78 -16 78 -2 0 6 -13 10 -30 10 -30 0 -30 1
-30 55 0 54 0 55 30 55 17 0 30 5 30 10 0 6 -13 10 -30 10 -23 0 -30 4 -30 20
0 11 -7 20 -15 20 -8 0 -15 -9 -15 -19z"/>
<path d="M12220 4151 c0 -11 -6 -22 -12 -25 -10 -5 -10 -7 0 -12 7 -3 12 -26
12 -58 0 -29 5 -57 12 -64 14 -14 78 -16 78 -2 0 6 -13 10 -30 10 -30 0 -30 1
-30 55 0 54 0 55 30 55 17 0 30 5 30 10 0 6 -13 10 -30 10 -23 0 -30 4 -30 20
0 11 -7 20 -15 20 -8 0 -15 -9 -15 -19z"/>
<path d="M13650 4151 c0 -11 -6 -22 -12 -25 -10 -5 -10 -7 0 -12 7 -3 12 -26
12 -58 0 -29 5 -57 12 -64 14 -14 78 -16 78 -2 0 6 -13 10 -30 10 -30 0 -30 1
-30 55 0 54 0 55 30 55 17 0 30 5 30 10 0 6 -13 10 -30 10 -23 0 -30 4 -30 20
0 11 -7 20 -15 20 -8 0 -15 -9 -15 -19z"/>
<path d="M1420 4150 c0 -5 5 -10 10 -10 6 0 10 5 10 10 0 6 -4 10 -10 10 -5 0
-10 -4 -10 -10z"/>
<path d="M5880 4119 c0 -5 5 -7 10 -4 6 3 10 8 10 11 0 2 -4 4 -10 4 -5 0 -10
-5 -10 -11z"/>
<path d="M9870 4120 c0 -5 5 -10 11 -10 5 0 7 5 4 10 -3 6 -8 10 -11 10 -2 0
-4 -4 -4 -10z"/>
<path d="M10140 4123 c-52 -19 -68 -85 -29 -124 15 -15 30 -19 66 -17 26 2 48
8 50 14 2 6 -10 8 -31 6 -48 -6 -76 12 -76 48 0 39 37 64 80 55 17 -4 30 -2
30 3 0 19 -54 28 -90 15z"/>
<path d="M10320 4123 c-52 -20 -68 -85 -30 -123 24 -24 86 -27 118 -4 28 20
31 83 4 107 -20 19 -69 29 -92 20z m64 -29 c19 -18 21 -65 4 -82 -7 -7 -24
-12 -38 -12 -33 0 -50 17 -50 51 0 32 23 59 50 59 10 0 26 -7 34 -16z"/>
<path d="M10490 4055 c0 -60 3 -75 15 -75 11 0 15 12 15 48 0 52 6 65 33 75
38 14 57 -9 57 -68 0 -42 3 -55 15 -55 12 0 15 13 15 60 0 53 -3 61 -26 76
-20 14 -32 15 -60 6 -19 -6 -34 -6 -34 -1 0 5 -7 9 -15 9 -12 0 -15 -15 -15
-75z"/>
<path d="M10713 4120 c-15 -6 -23 -18 -23 -34 0 -22 7 -27 48 -39 30 -9 48
-20 50 -32 3 -15 -3 -17 -47 -14 -36 3 -51 0 -51 -8 0 -9 17 -13 53 -13 58 0
93 23 81 53 -6 17 -15 21 -71 32 -18 4 -33 13 -33 20 0 18 34 28 70 20 35 -8
41 10 8 19 -31 8 -58 7 -85 -4z"/>
<path d="M11180 4123 c-52 -19 -68 -85 -29 -124 15 -15 30 -19 66 -17 26 2 48
8 50 14 2 6 -10 8 -31 6 -48 -6 -76 12 -76 48 0 39 37 64 80 55 17 -4 30 -2
30 3 0 19 -54 28 -90 15z"/>
<path d="M11360 4123 c-52 -20 -68 -85 -30 -123 24 -24 86 -27 118 -4 28 20
31 83 4 107 -20 19 -69 29 -92 20z m64 -29 c19 -18 21 -65 4 -82 -7 -7 -24
-12 -38 -12 -33 0 -50 17 -50 51 0 32 23 59 50 59 10 0 26 -7 34 -16z"/>
<path d="M11530 4055 c0 -60 3 -75 15 -75 11 0 15 12 15 48 0 52 6 65 33 75
38 14 57 -9 57 -68 0 -42 3 -55 15 -55 12 0 15 13 15 60 0 53 -3 61 -26 76
-20 14 -32 15 -60 6 -19 -6 -34 -6 -34 -1 0 5 -7 9 -15 9 -12 0 -15 -15 -15
-75z"/>
<path d="M11753 4120 c-15 -6 -23 -18 -23 -34 0 -22 7 -27 48 -39 30 -9 48
-20 50 -32 3 -15 -3 -17 -47 -14 -36 3 -51 0 -51 -8 0 -9 17 -13 53 -13 58 0
93 23 81 53 -6 17 -15 21 -71 32 -18 4 -33 13 -33 20 0 18 34 28 70 20 35 -8
41 10 8 19 -31 8 -58 7 -85 -4z"/>
<path d="M12330 4125 c0 -3 16 -37 36 -76 19 -39 33 -77 30 -85 -3 -8 -18 -20
-33 -26 -27 -11 -28 -12 -5 -16 39 -6 50 4 97 97 49 98 52 111 31 111 -7 0
-26 -28 -41 -62 l-29 -63 -28 63 c-16 36 -34 62 -43 62 -8 0 -15 -2 -15 -5z"/>
<path d="M12550 4025 c0 -87 3 -105 15 -105 11 0 15 11 15 42 0 33 3 39 12 30
19 -19 76 -14 99 9 29 29 23 85 -13 112 -24 18 -32 19 -63 10 -20 -6 -35 -7
-35 -2 0 5 -7 9 -15 9 -12 0 -15 -18 -15 -105z m112 68 c20 -18 24 -63 6 -81
-7 -7 -24 -12 -38 -12 -33 0 -50 17 -50 51 0 51 46 75 82 42z"/>
<path d="M12800 4123 c-43 -17 -66 -74 -42 -109 19 -29 94 -44 136 -28 31 12
15 21 -28 17 -47 -6 -86 9 -86 32 0 12 15 15 71 15 68 0 70 1 64 23 -4 12 -13
28 -19 35 -14 15 -74 24 -96 15z m71 -33 l24 -19 -57 -1 c-60 0 -76 13 -35 30
33 13 43 12 68 -10z"/>
<path d="M13228 4124 c-34 -10 -18 -24 20 -18 24 3 43 1 56 -9 17 -13 15 -14
-29 -20 -56 -8 -75 -21 -75 -51 0 -32 19 -46 60 -46 20 0 41 5 48 12 9 9 12 9
12 0 0 -7 7 -12 15 -12 21 0 21 112 0 130 -16 13 -80 21 -107 14z m92 -83 c0
-44 -82 -58 -88 -14 -3 23 10 30 61 32 20 1 27 -4 27 -18z"/>
<path d="M13420 4055 c0 -60 3 -75 15 -75 11 0 15 12 15 50 0 42 4 52 25 66
13 8 29 13 34 10 5 -4 12 -2 16 4 10 16 -19 22 -48 11 -17 -7 -27 -7 -27 -1 0
6 -7 10 -15 10 -12 0 -15 -15 -15 -75z"/>
<path d="M13560 4055 c0 -60 3 -75 15 -75 12 0 15 15 15 75 0 60 -3 75 -15 75
-12 0 -15 -15 -15 -75z"/>
<path d="M13760 4125 c0 -3 16 -37 36 -76 19 -39 33 -77 30 -85 -3 -8 -18 -20
-33 -26 -27 -11 -28 -12 -5 -16 39 -6 50 4 97 97 49 98 52 111 31 111 -7 0
-26 -28 -41 -62 l-29 -63 -28 63 c-16 36 -34 62 -43 62 -8 0 -15 -2 -15 -5z"/>
<path d="M14330 4089 c0 -5 5 -7 10 -4 6 3 10 8 10 11 0 2 -4 4 -10 4 -5 0
-10 -5 -10 -11z"/>
<path d="M5880 4049 c0 -5 5 -7 10 -4 6 3 10 8 10 11 0 2 -4 4 -10 4 -5 0 -10
-5 -10 -11z"/>
<path d="M1450 4030 c0 -5 5 -10 10 -10 6 0 10 5 10 10 0 6 -4 10 -10 10 -5 0
-10 -4 -10 -10z"/>
<path d="M1525 4030 c-3 -5 -1 -10 4 -10 6 0 11 5 11 10 0 6 -2 10 -4 10 -3 0
-8 -4 -11 -10z"/>
<path d="M1600 4030 c0 -5 5 -10 11 -10 5 0 7 5 4 10 -3 6 -8 10 -11 10 -2 0
-4 -4 -4 -10z"/>
<path d="M1670 4030 c0 -5 5 -10 10 -10 6 0 10 5 10 10 0 6 -4 10 -10 10 -5 0
-10 -4 -10 -10z"/>
<path d="M1745 4030 c-3 -5 -1 -10 4 -10 6 0 11 5 11 10 0 6 -2 10 -4 10 -3 0
-8 -4 -11 -10z"/>
<path d="M1890 4030 c0 -5 5 -10 11 -10 5 0 7 5 4 10 -3 6 -8 10 -11 10 -2 0
-4 -4 -4 -10z"/>
<path d="M1960 4030 c0 -5 5 -10 10 -10 6 0 10 5 10 10 0 6 -4 10 -10 10 -5 0
-10 -4 -10 -10z"/>
<path d="M2035 4030 c-3 -5 -1 -10 4 -10 6 0 11 5 11 10 0 6 -2 10 -4 10 -3 0
-8 -4 -11 -10z"/>
<path d="M2110 4030 c0 -5 5 -10 11 -10 5 0 7 5 4 10 -3 6 -8 10 -11 10 -2 0
-4 -4 -4 -10z"/>
<path d="M2180 4030 c0 -5 5 -10 10 -10 6 0 10 5 10 10 0 6 -4 10 -10 10 -5 0
-10 -4 -10 -10z"/>
<path d="M2255 4030 c-3 -5 -1 -10 4 -10 6 0 11 5 11 10 0 6 -2 10 -4 10 -3 0
-8 -4 -11 -10z"/>
<path d="M2400 4030 c0 -5 5 -10 11 -10 5 0 7 5 4 10 -3 6 -8 10 -11 10 -2 0
-4 -4 -4 -10z"/>
<path d="M2470 4030 c0 -5 5 -10 10 -10 6 0 10 5 10 10 0 6 -4 10 -10 10 -5 0
-10 -4 -10 -10z"/>
<path d="M2545 4030 c-3 -5 -1 -10 4 -10 6 0 11 5 11 10 0 6 -2 10 -4 10 -3 0
-8 -4 -11 -10z"/>
<path d="M2620 4030 c0 -5 5 -10 11 -10 5 0 7 5 4 10 -3 6 -8 10 -11 10 -2 0
-4 -4 -4 -10z"/>
<path d="M2690 4030 c0 -5 5 -10 10 -10 6 0 10 5 10 10 0 6 -4 10 -10 10 -5 0
-10 -4 -10 -10z"/>
<path d="M2765 4030 c-3 -5 -1 -10 4 -10 6 0 11 5 11 10 0 6 -2 10 -4 10 -3 0
-8 -4 -11 -10z"/>
<path d="M2910 4030 c0 -5 5 -10 10 -10 6 0 10 5 10 10 0 6 -4 10 -10 10 -5 0
-10 -4 -10 -10z"/>
<path d="M2980 4030 c0 -5 5 -10 10 -10 6 0 10 5 10 10 0 6 -4 10 -10 10 -5 0
-10 -4 -10 -10z"/>
<path d="M3130 4030 c0 -5 5 -10 11 -10 5 0 7 5 4 10 -3 6 -8 10 -11 10 -2 0
-4 -4 -4 -10z"/>
<path d="M3200 4030 c0 -5 5 -10 10 -10 6 0 10 5 10 10 0 6 -4 10 -10 10 -5 0
-10 -4 -10 -10z"/>
<path d="M3275 4030 c-3 -5 -1 -10 4 -10 6 0 11 5 11 10 0 6 -2 10 -4 10 -3 0
-8 -4 -11 -10z"/>
<path d="M3350 4030 c0 -5 5 -10 11 -10 5 0 7 5 4 10 -3 6 -8 10 -11 10 -2 0
-4 -4 -4 -10z"/>
<path d="M3420 4030 c0 -5 5 -10 10 -10 6 0 10 5 10 10 0 6 -4 10 -10 10 -5 0
-10 -4 -10 -10z"/>
<path d="M3495 4030 c-3 -5 -1 -10 4 -10 6 0 11 5 11 10 0 6 -2 10 -4 10 -3 0
-8 -4 -11 -10z"/>
<path d="M3640 4030 c0 -5 5 -10 11 -10 5 0 7 5 4 10 -3 6 -8 10 -11 10 -2 0
-4 -4 -4 -10z"/>
<path d="M3710 4030 c0 -5 5 -10 10 -10 6 0 10 5 10 10 0 6 -4 10 -10 10 -5 0
-10 -4 -10 -10z"/>
<path d="M3785 4030 c-3 -5 -1 -10 4 -10 6 0 11 5 11 10 0 6 -2 10 -4 10 -3 0
-8 -4 -11 -10z"/>
<path d="M3860 4030 c0 -5 5 -10 11 -10 5 0 7 5 4 10 -3 6 -8 10 -11 10 -2 0
-4 -4 -4 -10z"/>
<path d="M3930 4030 c0 -5 5 -10 10 -10 6 0 10 5 10 10 0 6 -4 10 -10 10 -5 0
-10 -4 -10 -10z"/>
<path d="M4005 4030 c-3 -5 -1 -10 4 -10 6 0 11 5 11 10 0 6 -2 10 -4 10 -3 0
-8 -4 -11 -10z"/>
<path d="M4150 4030 c0 -5 5 -10 11 -10 5 0 7 5 4 10 -3 6 -8 10 -11 10 -2 0
-4 -4 -4 -10z"/>
<path d="M4220 4030 c0 -5 5 -10 10 -10 6 0 10 5 10 10 0 6 -4 10 -10 10 -5 0
-10 -4 -10 -10z"/>
<path d="M4295 4030 c-3 -5 -1 -10 4 -10 6 0 11 5 11 10 0 6 -2 10 -4 10 -3 0
-8 -4 -11 -10z"/>
<path d="M4370 4030 c0 -5 5 -10 11 -10 5 0 7 5 4 10 -3 6 -8 10 -11 10 -2 0
-4 -4 -4 -10z"/>
<path d="M4440 4030 c0 -5 5 -10 10 -10 6 0 10 5 10 10 0 6 -4 10 -10 10 -5 0
-10 -4 -10 -10z"/>
<path d="M4515 4030 c-3 -5 -1 -10 4 -10 6 0 11 5 11 10 0 6 -2 10 -4 10 -3 0
-8 -4 -11 -10z"/>
<path d="M4660 4030 c0 -5 5 -10 11 -10 5 0 7 5 4 10 -3 6 -8 10 -11 10 -2 0
-4 -4 -4 -10z"/>
<path d="M4730 4030 c0 -5 5 -10 10 -10 6 0 10 5 10 10 0 6 -4 10 -10 10 -5 0
-10 -4 -10 -10z"/>
<path d="M4805 4030 c-3 -5 -1 -10 4 -10 6 0 11 5 11 10 0 6 -2 10 -4 10 -3 0
-8 -4 -11 -10z"/>
<path d="M4880 4030 c0 -5 5 -10 11 -10 5 0 7 5 4 10 -3 6 -8 10 -11 10 -2 0
-4 -4 -4 -10z"/>
<path d="M4950 4030 c0 -5 5 -10 10 -10 6 0 10 5 10 10 0 6 -4 10 -10 10 -5 0
-10 -4 -10 -10z"/>
<path d="M5025 4030 c-3 -5 -1 -10 4 -10 6 0 11 5 11 10 0 6 -2 10 -4 10 -3 0
-8 -4 -11 -10z"/>
<path d="M5170 4030 c0 -5 5 -10 10 -10 6 0 10 5 10 10 0 6 -4 10 -10 10 -5 0
-10 -4 -10 -10z"/>
<path d="M5240 4030 c0 -5 5 -10 10 -10 6 0 10 5 10 10 0 6 -4 10 -10 10 -5 0
-10 -4 -10 -10z"/>
<path d="M5390 4030 c0 -5 5 -10 11 -10 5 0 7 5 4 10 -3 6 -8 10 -11 10 -2 0
-4 -4 -4 -10z"/>
<path d="M5460 4030 c0 -5 5 -10 10 -10 6 0 10 5 10 10 0 6 -4 10 -10 10 -5 0
-10 -4 -10 -10z"/>
<path d="M5535 4030 c-3 -5 -1 -10 4 -10 6 0 11 5 11 10 0 6 -2 10 -4 10 -3 0
-8 -4 -11 -10z"/>
<path d="M5680 4030 c0 -5 5 -10 10 -10 6 0 10 5 10 10 0 6 -4 10 -10 10 -5 0
-10 -4 -10 -10z"/>
<path d="M5750 4030 c0 -5 5 -10 10 -10 6 0 10 5 10 10 0 6 -4 10 -10 10 -5 0
-10 -4 -10 -10z"/>
<path d="M14330 4020 c0 -5 5 -10 10 -10 6 0 10 5 10 10 0 6 -4 10 -10 10 -5
0 -10 -4 -10 -10z"/>
<path d="M13100 3995 c0 -8 9 -15 20 -15 11 0 20 7 20 15 0 8 -9 15 -20 15
-11 0 -20 -7 -20 -15z"/>
<path d="M9870 3969 c0 -5 5 -7 10 -4 6 3 10 8 10 11 0 2 -4 4 -10 4 -5 0 -10
-5 -10 -11z"/>
<path d="M14330 3950 c0 -5 5 -10 11 -10 5 0 7 5 4 10 -3 6 -8 10 -11 10 -2 0
-4 -4 -4 -10z"/>
<path d="M12015 3930 c-4 -6 27 -10 84 -10 54 0 91 4 91 10 0 6 -35 10 -84 10
-47 0 -88 -4 -91 -10z"/>
<path d="M9870 3900 c0 -5 5 -10 10 -10 6 0 10 5 10 10 0 6 -4 10 -10 10 -5 0
-10 -4 -10 -10z"/>
<path d="M0 3875 c1 -26 2 -28 11 -12 8 14 8 22 0 30 -8 8 -11 3 -11 -18z"/>
<path d="M9870 3830 c0 -5 5 -10 11 -10 5 0 7 5 4 10 -3 6 -8 10 -11 10 -2 0
-4 -4 -4 -10z"/>
<path d="M14330 3799 c0 -5 5 -7 10 -4 6 3 10 8 10 11 0 2 -4 4 -10 4 -5 0
-10 -5 -10 -11z"/>
<path d="M9870 3749 c0 -5 5 -7 10 -4 6 3 10 8 10 11 0 2 -4 4 -10 4 -5 0 -10
-5 -10 -11z"/>
<path d="M9900 3710 c0 -5 5 -10 11 -10 5 0 7 5 4 10 -3 6 -8 10 -11 10 -2 0
-4 -4 -4 -10z"/>
<path d="M9975 3710 c-3 -5 -1 -10 4 -10 6 0 11 5 11 10 0 6 -2 10 -4 10 -3 0
-8 -4 -11 -10z"/>
<path d="M10120 3710 c0 -5 5 -10 11 -10 5 0 7 5 4 10 -3 6 -8 10 -11 10 -2 0
-4 -4 -4 -10z"/>
<path d="M10265 3710 c-3 -5 -1 -10 4 -10 6 0 11 5 11 10 0 6 -2 10 -4 10 -3
0 -8 -4 -11 -10z"/>
<path d="M10410 3710 c0 -5 5 -10 11 -10 5 0 7 5 4 10 -3 6 -8 10 -11 10 -2 0
-4 -4 -4 -10z"/>
<path d="M10485 3710 c-3 -5 -1 -10 4 -10 6 0 11 5 11 10 0 6 -2 10 -4 10 -3
0 -8 -4 -11 -10z"/>
<path d="M10630 3710 c0 -5 5 -10 11 -10 5 0 7 5 4 10 -3 6 -8 10 -11 10 -2 0
-4 -4 -4 -10z"/>
<path d="M10705 3710 c-3 -5 -1 -10 4 -10 6 0 11 5 11 10 0 6 -2 10 -4 10 -3
0 -8 -4 -11 -10z"/>
<path d="M10775 3710 c-3 -5 -1 -10 4 -10 6 0 11 5 11 10 0 6 -2 10 -4 10 -3
0 -8 -4 -11 -10z"/>
<path d="M10850 3710 c0 -5 5 -10 11 -10 5 0 7 5 4 10 -3 6 -8 10 -11 10 -2 0
-4 -4 -4 -10z"/>
<path d="M10920 3710 c0 -5 5 -10 11 -10 5 0 7 5 4 10 -3 6 -8 10 -11 10 -2 0
-4 -4 -4 -10z"/>
<path d="M10995 3710 c-3 -5 -1 -10 4 -10 6 0 11 5 11 10 0 6 -2 10 -4 10 -3
0 -8 -4 -11 -10z"/>
<path d="M11140 3710 c0 -5 5 -10 11 -10 5 0 7 5 4 10 -3 6 -8 10 -11 10 -2 0
-4 -4 -4 -10z"/>
<path d="M11215 3710 c-3 -5 -1 -10 4 -10 6 0 11 5 11 10 0 6 -2 10 -4 10 -3
0 -8 -4 -11 -10z"/>
<path d="M11285 3710 c-3 -5 -1 -10 4 -10 6 0 11 5 11 10 0 6 -2 10 -4 10 -3
0 -8 -4 -11 -10z"/>
<path d="M11360 3710 c0 -5 5 -10 11 -10 5 0 7 5 4 10 -3 6 -8 10 -11 10 -2 0
-4 -4 -4 -10z"/>
<path d="M11430 3710 c0 -5 5 -10 11 -10 5 0 7 5 4 10 -3 6 -8 10 -11 10 -2 0
-4 -4 -4 -10z"/>
<path d="M11505 3710 c-3 -5 -1 -10 4 -10 6 0 11 5 11 10 0 6 -2 10 -4 10 -3
0 -8 -4 -11 -10z"/>
<path d="M11650 3710 c0 -5 5 -10 11 -10 5 0 7 5 4 10 -3 6 -8 10 -11 10 -2 0
-4 -4 -4 -10z"/>
<path d="M11725 3710 c-3 -5 -1 -10 4 -10 6 0 11 5 11 10 0 6 -2 10 -4 10 -3
0 -8 -4 -11 -10z"/>
<path d="M11795 3710 c-3 -5 -1 -10 4 -10 6 0 11 5 11 10 0 6 -2 10 -4 10 -3
0 -8 -4 -11 -10z"/>
<path d="M11870 3710 c0 -5 5 -10 11 -10 5 0 7 5 4 10 -3 6 -8 10 -11 10 -2 0
-4 -4 -4 -10z"/>
<path d="M11940 3710 c0 -5 5 -10 11 -10 5 0 7 5 4 10 -3 6 -8 10 -11 10 -2 0
-4 -4 -4 -10z"/>
<path d="M12015 3710 c-3 -5 -1 -10 4 -10 6 0 11 5 11 10 0 6 -2 10 -4 10 -3
0 -8 -4 -11 -10z"/>
<path d="M12160 3710 c0 -5 5 -10 11 -10 5 0 7 5 4 10 -3 6 -8 10 -11 10 -2 0
-4 -4 -4 -10z"/>
<path d="M12235 3710 c-3 -5 -1 -10 4 -10 6 0 11 5 11 10 0 6 -2 10 -4 10 -3
0 -8 -4 -11 -10z"/>
<path d="M12380 3710 c0 -5 5 -10 11 -10 5 0 7 5 4 10 -3 6 -8 10 -11 10 -2 0
-4 -4 -4 -10z"/>
<path d="M12525 3710 c-3 -5 -1 -10 4 -10 6 0 11 5 11 10 0 6 -2 10 -4 10 -3
0 -8 -4 -11 -10z"/>
<path d="M12670 3710 c0 -5 5 -10 11 -10 5 0 7 5 4 10 -3 6 -8 10 -11 10 -2 0
-4 -4 -4 -10z"/>
<path d="M12745 3710 c-3 -5 -1 -10 4 -10 6 0 11 5 11 10 0 6 -2 10 -4 10 -3
0 -8 -4 -11 -10z"/>
<path d="M12890 3710 c0 -5 5 -10 11 -10 5 0 7 5 4 10 -3 6 -8 10 -11 10 -2 0
-4 -4 -4 -10z"/>
<path d="M13035 3710 c-3 -5 -1 -10 4 -10 6 0 11 5 11 10 0 6 -2 10 -4 10 -3
0 -8 -4 -11 -10z"/>
<path d="M13110 3710 c0 -5 5 -10 11 -10 5 0 7 5 4 10 -3 6 -8 10 -11 10 -2 0
-4 -4 -4 -10z"/>
<path d="M13180 3710 c0 -5 5 -10 11 -10 5 0 7 5 4 10 -3 6 -8 10 -11 10 -2 0
-4 -4 -4 -10z"/>
<path d="M13255 3710 c-3 -5 -1 -10 4 -10 6 0 11 5 11 10 0 6 -2 10 -4 10 -3
0 -8 -4 -11 -10z"/>
<path d="M13400 3710 c0 -5 5 -10 11 -10 5 0 7 5 4 10 -3 6 -8 10 -11 10 -2 0
-4 -4 -4 -10z"/>
<path d="M13475 3710 c-3 -5 -1 -10 4 -10 6 0 11 5 11 10 0 6 -2 10 -4 10 -3
0 -8 -4 -11 -10z"/>
<path d="M13545 3710 c-3 -5 -1 -10 4 -10 6 0 11 5 11 10 0 6 -2 10 -4 10 -3
0 -8 -4 -11 -10z"/>
<path d="M13620 3710 c0 -5 5 -10 11 -10 5 0 7 5 4 10 -3 6 -8 10 -11 10 -2 0
-4 -4 -4 -10z"/>
<path d="M13690 3710 c0 -5 5 -10 11 -10 5 0 7 5 4 10 -3 6 -8 10 -11 10 -2 0
-4 -4 -4 -10z"/>
<path d="M13765 3710 c-3 -5 -1 -10 4 -10 6 0 11 5 11 10 0 6 -2 10 -4 10 -3
0 -8 -4 -11 -10z"/>
<path d="M13910 3710 c0 -5 5 -10 11 -10 5 0 7 5 4 10 -3 6 -8 10 -11 10 -2 0
-4 -4 -4 -10z"/>
<path d="M13985 3710 c-3 -5 -1 -10 4 -10 6 0 11 5 11 10 0 6 -2 10 -4 10 -3
0 -8 -4 -11 -10z"/>
<path d="M14055 3710 c-3 -5 -1 -10 4 -10 6 0 11 5 11 10 0 6 -2 10 -4 10 -3
0 -8 -4 -11 -10z"/>
<path d="M14130 3710 c0 -5 5 -10 11 -10 5 0 7 5 4 10 -3 6 -8 10 -11 10 -2 0
-4 -4 -4 -10z"/>
<path d="M14200 3710 c0 -5 5 -10 11 -10 5 0 7 5 4 10 -3 6 -8 10 -11 10 -2 0
-4 -4 -4 -10z"/>
<path d="M14275 3710 c-3 -5 -1 -10 4 -10 6 0 11 5 11 10 0 6 -2 10 -4 10 -3
0 -8 -4 -11 -10z"/>
<path d="M0 3004 c0 -8 5 -12 10 -9 6 4 8 11 5 16 -9 14 -15 11 -15 -7z"/>
<path d="M1 2514 c0 -11 3 -14 6 -6 3 7 2 16 -1 19 -3 4 -6 -2 -5 -13z"/>
<path d="M1 2435 c1 -40 1 -40 11 -12 7 21 7 32 -1 40 -8 8 -11 0 -10 -28z"/>
<path d="M0 2156 c0 -20 4 -35 9 -31 10 6 8 51 -2 62 -4 3 -7 -10 -7 -31z"/>
<path d="M2 1900 c0 -14 2 -19 5 -12 2 6 2 18 0 25 -3 6 -5 1 -5 -13z"/>
<path d="M13110 579 c0 -84 11 -108 50 -108 11 0 10 3 -5 15 -17 12 -20 27
-20 91 0 52 -4 78 -12 80 -10 4 -13 -16 -13 -78z"/>
<path d="M8807 622 c-10 -10 -17 -22 -17 -25 0 -4 -9 -17 -20 -29 -42 -46 -47
-53 -53 -75 -7 -29 7 -29 34 -2 18 18 30 21 96 17 58 -3 77 -7 84 -21 10 -16
39 -24 39 -10 0 4 -12 25 -27 47 -79 118 -103 135 -136 98z m72 -54 c28 -35
18 -48 -39 -48 -43 0 -66 13 -54 31 35 57 59 61 93 17z"/>
<path d="M9784 614 c-11 -42 2 -114 22 -129 11 -8 39 -14 64 -14 l45 1 -39 9
c-53 13 -66 25 -66 64 0 32 2 34 53 43 47 9 49 10 15 11 -47 1 -68 10 -68 27
0 24 -19 15 -26 -12z"/>
<path d="M11886 620 c-45 -23 -56 -35 -56 -66 0 -26 32 -64 53 -64 9 0 19 -4
22 -10 3 -5 39 -9 78 -9 l72 2 -70 12 c-116 20 -143 42 -115 95 10 19 82 47
140 53 21 2 11 4 -25 5 -42 1 -72 -5 -99 -18z"/>
<path d="M9090 590 c0 -5 -9 -10 -20 -10 -39 0 -46 -78 -8 -87 10 -3 18 -9 18
-14 0 -5 28 -8 63 -8 l62 1 -45 10 c-77 16 -90 25 -90 56 0 34 25 50 90 55 41
3 40 4 -12 5 -33 1 -58 -2 -58 -8z"/>
<path d="M9278 577 c-33 -27 -38 -74 -10 -83 9 -3 25 -10 34 -15 10 -5 41 -9
70 -8 l53 1 -60 12 c-114 22 -111 46 6 46 87 0 97 9 56 48 -33 31 -111 30
-149 -1z m118 -6 l24 -19 -23 -6 c-33 -9 -90 -7 -107 4 -8 5 -12 10 -10 12 52
33 82 36 116 9z"/>
<path d="M9510 581 c-12 -24 -13 -121 -1 -140 7 -11 11 -9 20 8 10 18 21 21
71 21 33 0 60 4 60 9 0 5 9 11 20 14 16 4 20 14 20 46 0 34 -3 41 -20 41 -11
0 -20 5 -20 10 0 6 -30 10 -70 10 -58 0 -71 -3 -80 -19z m148 -11 c31 -29 28
-56 -9 -76 -35 -18 -89 -13 -109 11 -20 24 -8 68 20 76 46 13 76 9 98 -11z"/>
<path d="M10000 593 c43 -6 100 -26 100 -34 0 -10 -30 -18 -84 -21 -25 -2 -43
-10 -50 -21 -18 -29 17 -47 90 -47 69 0 75 5 69 65 -4 49 -28 65 -95 63 -30 0
-44 -2 -30 -5z m97 -78 c8 -23 1 -26 -54 -28 -43 -2 -48 0 -51 21 -3 20 0 22
48 22 36 0 52 -4 57 -15z"/>
<path d="M10216 584 c-3 -9 -6 -38 -6 -65 0 -37 4 -49 15 -49 12 0 15 13 15
55 0 59 0 59 75 68 17 2 2 5 -31 6 -48 1 -63 -3 -68 -15z"/>
<path d="M12189 590 c92 -14 94 -50 3 -50 -49 0 -82 -14 -82 -35 0 -23 35 -35
104 -35 l66 0 0 55 c0 42 -3 55 -15 55 -8 0 -15 5 -15 10 0 6 -25 9 -57 9
l-58 -1 54 -8z m55 -66 c8 -3 12 -12 9 -20 -7 -19 -99 -19 -106 0 -3 8 -3 17
0 20 8 8 77 8 97 0z"/>
<path d="M12377 593 c-11 -10 -8 -123 3 -123 6 0 10 19 10 43 0 55 9 66 54 74
27 4 41 1 56 -12 11 -10 26 -15 36 -11 16 6 15 8 -2 21 -19 15 -144 21 -157 8z"/>
<path d="M12680 585 c-13 -8 -27 -23 -31 -33 -11 -28 0 -62 20 -62 9 0 22 -5
28 -11 5 -5 32 -9 59 -7 l49 3 -40 8 c-75 14 -90 22 -93 46 -5 32 9 43 75 57
l58 12 -50 0 c-27 0 -61 -6 -75 -13z"/>
<path d="M12890 585 c-38 -22 -49 -85 -14 -85 8 0 17 -7 20 -15 5 -11 22 -15
73 -14 52 1 60 2 38 9 -16 5 -35 6 -43 3 -19 -7 -76 17 -71 31 2 6 35 12 80
14 45 2 77 7 77 13 0 7 -22 8 -62 4 -35 -4 -74 -2 -88 3 l-25 9 32 17 c40 20
71 20 94 0 10 -9 23 -13 30 -9 19 12 -31 34 -76 34 -22 -1 -51 -7 -65 -14z"/>
<path d="M13320 589 c91 -16 93 -49 2 -49 -49 0 -82 -14 -82 -35 0 -23 35 -35
103 -35 65 0 65 0 69 31 7 43 -2 79 -18 79 -8 0 -14 5 -14 10 0 6 -25 9 -57 9
l-58 -1 55 -9z m66 -70 c10 -18 -8 -28 -56 -31 -40 -3 -45 -1 -48 20 -3 20 0
22 47 22 27 0 53 -5 57 -11z"/>
<path d="M13507 593 c-11 -10 -8 -123 3 -123 10 0 11 10 14 72 2 35 5 37 57
47 l44 9 -56 1 c-31 1 -59 -2 -62 -6z"/>
<path d="M12535 540 c-3 -5 -1 -18 4 -28 6 -11 7 -22 4 -26 -3 -3 -1 -6 5 -6
7 0 12 15 12 35 0 34 -12 46 -25 25z"/>
<path d="M3 255 c0 -27 2 -38 4 -22 2 15 2 37 0 50 -2 12 -4 0 -4 -28z"/>
<path d="M4643 113 c2319 -2 6115 -2 8435 0 2319 1 421 2 -4218 2 -4639 0
-6537 -1 -4217 -2z"/>
</g>
</svg>
